<?xml version="1.0" standalone="no"?>
<!DOCTYPE svg PUBLIC "-//W3C//DTD SVG 1.1//EN" "http://www.w3.org/Graphics/SVG/1.1/DTD/svg11.dtd" >
<svg xmlns="http://www.w3.org/2000/svg" xmlns:xlink="http://www.w3.org/1999/xlink" version="1.1">
<metadata>
Created by FontForge 20170731 at Tue Feb  4 03:46:23 2014
 By Aleksey,,,
Copyright (c) 2013 by Type Dynamic. All rights reserved.
</metadata>
<defs>
<font id="Larsseit-Bold" horiz-adv-x="270" >
  <font-face 
    font-family="Larsseit"
    font-weight="700"
    font-stretch="normal"
    units-per-em="1000"
    panose-1="0 0 0 0 0 0 0 0 0 0"
    ascent="800"
    descent="-200"
    x-height="507"
    cap-height="700"
    bbox="-183 -304 3157 994"
    underline-thickness="50"
    underline-position="-200"
    unicode-range="U+0020-FB01"
  />
<missing-glyph horiz-adv-x="591" 
d="M59 0v700h472v-700h-472zM294 408l142 226h-284zM466 135v422l-134 -211zM432 66l-138 218l-138 -218h276zM255 346l-130 206v-412z" />
    <glyph glyph-name="fi" unicode="fi" horiz-adv-x="620" 
d="M277 741q31 0 59 -9v-116q-27 11 -52 11q-57 0 -57 -70v-50h109v-118h-109v-389h-131v389h-82v118h82v53q0 181 181 181zM420 507h130v-507h-130v507zM485 733q32 0 55.5 -22.5t23.5 -54.5q0 -33 -23 -55t-56 -22t-56 22t-23 55q0 32 23 54.5t56 22.5z" />
    <glyph glyph-name="f_j" unicode="fj" horiz-adv-x="620" 
d="M277 741q31 0 59 -9v-116q-27 11 -52 11q-57 0 -57 -70v-50h109v-118h-109v-389h-131v389h-82v118h82v53q0 181 181 181zM420 507h130v-530q0 -203 -171 -203q-52 0 -83 10v116q27 -8 58 -8q35 0 50.5 21.5t15.5 67.5v526zM485 733q32 0 55.5 -22.5t23.5 -54.5
q0 -33 -23 -55t-56 -22t-56 22t-23 55q0 32 23 54.5t56 22.5z" />
    <glyph glyph-name=".notdef" horiz-adv-x="591" 
d="M59 0v700h472v-700h-472zM294 408l142 226h-284zM466 135v422l-134 -211zM432 66l-138 218l-138 -218h276zM255 346l-130 206v-412z" />
    <glyph glyph-name=".null" horiz-adv-x="0" 
 />
    <glyph glyph-name="nonmarkingreturn" horiz-adv-x="333" 
 />
    <glyph glyph-name="space" unicode=" " horiz-adv-x="197" 
 />
    <glyph glyph-name="exclam" unicode="!" 
d="M70 700h130v-487h-130v487zM216 68q0 -34 -23.5 -56.5t-57.5 -22.5t-57.5 22.5t-23.5 56.5q0 33 23.5 55.5t57.5 22.5t57.5 -22.5t23.5 -55.5z" />
    <glyph glyph-name="quotedbl" unicode="&#x22;" horiz-adv-x="356" 
d="M31 733h119l-26 -220h-84zM214 733h119l-26 -220h-84z" />
    <glyph glyph-name="numbersign" unicode="#" horiz-adv-x="679" 
d="M519 272h99v-121h-121l-26 -151h-130l26 151h-128l-26 -151h-130l26 151h-94v121h116l30 170h-100v121h121l24 137h130l-24 -137h128l24 137h130l-24 -137h94v-121h-115zM419 442h-128l-30 -170h128z" />
    <glyph glyph-name="dollar" unicode="$" horiz-adv-x="563" 
d="M236 808h95v-99q78 -13 121.5 -65.5t47.5 -139.5h-139q-1 41 -24.5 64t-60.5 23t-58 -19.5t-21 -55.5t26 -56q22 -17 97 -44q110 -37 156 -86.5t46 -130.5q0 -86 -51.5 -141.5t-139.5 -67.5v-98h-95v99q-91 14 -141.5 72.5t-52.5 150.5h139q4 -106 110 -106q42 0 67 21.5
t25 57.5q0 35 -28 58t-96 45q-105 34 -153 83t-48 131t47.5 137.5t130.5 68.5v98z" />
    <glyph glyph-name="percent" unicode="%" horiz-adv-x="886" 
d="M563 700h136l-376 -700h-137zM201 713q75 0 126 -51t51 -128q0 -76 -51 -127q-52 -50 -126 -50q-75 0 -127 50q-50 52 -50 127q0 76 50 128q51 51 127 51zM201 613q-31 0 -51 -22.5t-20 -55.5t20 -55t51 -22q30 0 50 22t20 55t-20 55.5t-50 22.5zM685 343q75 0 126 -52
q51 -51 51 -127q0 -78 -51 -127q-50 -50 -126 -50q-75 0 -127 50q-50 50 -50 127q0 76 50 128q51 51 127 51zM685 242q-31 0 -51 -22t-20 -55t20 -55.5t51 -22.5q30 0 50 22.5t20 55.5t-20 55t-50 22z" />
    <glyph glyph-name="ampersand" unicode="&#x26;" horiz-adv-x="680" 
d="M292 713q88 0 147 -47q58 -46 58 -125q0 -70 -34 -108q-32 -37 -98 -76l-1 -1l104 -111l2 8q15 52 8 110l124 3q8 -71 -6 -133q-12 -49 -33 -90l134 -143h-177l-42 44q-80 -57 -185 -57q-120 0 -187.5 54.5t-67.5 148.5q0 65 31 106t97 80l3 1l-16 18q-61 68 -61 141
q0 78 54 127q55 50 146 50zM298 103q58 0 98 30l-147 158q-71 -39 -71 -97q0 -44 32.5 -67.5t87.5 -23.5zM227 535q0 -23 15 -44l9 -12q22 -22 23 -25l10 -11q1 0 12 6.5t13 7.5q1 0 11 7t12 9q31 26 30 60q0 28 -18.5 46t-48.5 18q-29 0 -48.5 -17.5t-19.5 -44.5z" />
    <glyph glyph-name="quotesingle" unicode="'" horiz-adv-x="173" 
d="M31 733h119l-26 -220h-84z" />
    <glyph glyph-name="parenleft" unicode="(" horiz-adv-x="296" 
d="M197 742l92 -62q-66 -87 -96 -169q-29 -82 -29 -190q0 -107 29 -191q30 -81 96 -168l-92 -62q-79 97 -117.5 196.5t-38.5 224.5t38.5 224.5t117.5 196.5z" />
    <glyph glyph-name="parenright" unicode=")" horiz-adv-x="296" 
d="M8 680l91 62q79 -98 118 -197.5t39 -223.5t-39 -223.5t-118 -197.5l-91 62q66 90 94 168q30 83 30 191q0 109 -30 190q-27 79 -94 169z" />
    <glyph glyph-name="asterisk" unicode="*" horiz-adv-x="359" 
d="M133 739h92l-4 -110l101 39l28 -87l-104 -31l68 -85l-74 -54l-61 89l-60 -89l-73 53l66 86l-104 30l28 87l102 -38z" />
    <glyph glyph-name="plus" unicode="+" horiz-adv-x="472" 
d="M178 556h116v-149h148v-115h-148v-148h-116v148h-148v115h148v149z" />
    <glyph glyph-name="comma" unicode="," horiz-adv-x="220" 
d="M110 144q34 0 56 -23.5t22 -61.5q0 -97 -83 -192l-37 14q24 49 30 114q-29 3 -47.5 23t-18.5 50q0 32 22.5 54t55.5 22z" />
    <glyph glyph-name="hyphen" unicode="-" horiz-adv-x="365" 
d="M25 317h315v-115h-315v115z" />
    <glyph glyph-name="period" unicode="." horiz-adv-x="222" 
d="M111 146q33 0 56.5 -22.5t23.5 -55.5t-23.5 -56t-56.5 -23q-34 0 -57 22.5t-23 56.5t23 56t57 22z" />
    <glyph glyph-name="slash" unicode="/" horiz-adv-x="408" 
d="M274 700h129l-270 -700h-128z" />
    <glyph glyph-name="zero" unicode="0" horiz-adv-x="572" 
d="M535 351q0 -169 -65 -267q-64 -97 -184 -97t-184 97t-64 267t64 265q64 97 184 97t184 -97q65 -97 65 -265zM177 351q0 -114 27.5 -175t81.5 -61t81.5 61t27.5 175q0 113 -27.5 173.5t-81.5 60.5t-81.5 -60.5t-27.5 -173.5z" />
    <glyph glyph-name="one" unicode="1" horiz-adv-x="385" 
d="M215 700h101v-700h-138v485h-147v116q85 0 128 22.5t56 76.5z" />
    <glyph glyph-name="two" unicode="2" horiz-adv-x="497" 
d="M256 713q100 0 154.5 -54.5t54.5 -148.5q0 -55 -21 -102t-66 -101l-146 -179h235v-128h-426v100l215 256q39 46 54.5 77t15.5 70q0 82 -72 82q-81 0 -79 -98h-138q-1 102 59 164t160 62z" />
    <glyph glyph-name="three" unicode="3" horiz-adv-x="546" 
d="M266 713q100 0 157 -58q58 -57 58 -146q0 -54 -24.5 -91.5t-62.5 -53.5q50 -15 80.5 -56.5t30.5 -106.5q0 -99 -63.5 -156.5t-169.5 -57.5q-109 0 -171.5 60t-62.5 167h137q1 -48 28 -73.5t74 -25.5q40 0 65 25t25 67q0 96 -120 96h-42v118h40q98 0 98 82
q0 39 -19.5 60.5t-55.5 21.5t-58 -24.5t-22 -69.5h-138q0 103 58.5 162.5t157.5 59.5z" />
    <glyph glyph-name="four" unicode="4" horiz-adv-x="575" 
d="M283 700h171v-452h89v-123h-89v-125h-138v125h-293v111zM318 247v282l-18 -39l-135 -243h153z" />
    <glyph glyph-name="five" unicode="5" horiz-adv-x="543" 
d="M65 700h407v-128h-268v-141q42 20 95 20q95 0 152 -56.5t57 -163.5q0 -112 -62.5 -178t-170.5 -66t-169 56.5t-61 160.5h138q1 -43 25.5 -66t67.5 -23q45 0 69.5 29t24.5 80t-25.5 79t-71.5 28q-48 0 -85 -25h-123v394z" />
    <glyph glyph-name="six" unicode="6" horiz-adv-x="560" 
d="M294 713q91 0 153 -59q61 -58 64 -153h-140q-6 84 -83 84q-108 0 -109 -195q44 51 129 51q98 0 156 -61q59 -62 59 -159q0 -105 -65 -170q-64 -64 -167 -64q-114 0 -177 72q-74 89 -74 277q0 190 62.5 283.5t191.5 93.5zM286 324q-42 0 -71 -29t-30 -71v-4
q0 -45 28.5 -76t72.5 -31q43 0 70 30t27 77q0 43 -27.5 73.5t-69.5 30.5z" />
    <glyph glyph-name="seven" unicode="7" horiz-adv-x="508" 
d="M36 700h434v-111l-256 -589h-149l248 571h-277v129z" />
    <glyph glyph-name="eight" unicode="8" horiz-adv-x="557" 
d="M279 713q96 0 156 -60t60 -147q0 -48 -21.5 -86.5t-53.5 -60.5q95 -50 95 -159q0 -91 -68 -153q-67 -60 -168 -60t-169 60q-68 62 -68 153q0 57 26 98t68 61q-32 22 -53 60.5t-21 86.5q0 87 60 147t157 60zM279 300q-43 0 -70.5 -26.5t-27.5 -68.5q0 -41 27.5 -66
t70.5 -25t70 25t27 66q0 42 -28 68.5t-69 26.5zM279 586q-37 0 -59.5 -23.5t-22.5 -61.5t22 -60q23 -23 60 -23t59 22t22 61q0 38 -22.5 61.5t-58.5 23.5z" />
    <glyph glyph-name="nine" unicode="9" horiz-adv-x="560" 
d="M265 -13q-92 0 -153 58t-64 154h140q6 -84 83 -84q105 0 109 195q-46 -51 -129 -51q-99 0 -157 61t-58 159q0 105 65 170q64 64 167 64q114 0 177 -72q74 -89 74 -277q0 -190 -62.5 -283.5t-191.5 -93.5zM273 587q-43 0 -70 -30t-27 -77q0 -42 27 -74q29 -30 70 -30
q43 0 71 30q23 21 28 53.5t-5.5 61t-36 48.5t-57.5 18z" />
    <glyph glyph-name="colon" unicode=":" horiz-adv-x="222" 
d="M111 518q33 0 56.5 -23t23.5 -56t-23.5 -55.5t-56.5 -22.5q-34 0 -57 22.5t-23 55.5q0 34 23 56.5t57 22.5zM111 146q33 0 56.5 -22.5t23.5 -55.5t-23.5 -56t-56.5 -23q-34 0 -57 22.5t-23 56.5t23 56t57 22z" />
    <glyph glyph-name="semicolon" unicode=";" horiz-adv-x="222" 
d="M111 518q33 0 56.5 -23t23.5 -56t-23.5 -55.5t-56.5 -22.5q-34 0 -57 22.5t-23 55.5q0 34 23 56.5t57 22.5zM189 59q0 -97 -83 -192l-37 14q24 49 30 114q-29 3 -47.5 23t-18.5 50q0 32 22.5 54t55.5 22q34 0 56 -23.5t22 -61.5z" />
    <glyph glyph-name="less" unicode="&#x3c;" horiz-adv-x="284" 
d="M149 446h123l-143 -196l143 -195h-123l-138 187v17z" />
    <glyph glyph-name="equal" unicode="=" horiz-adv-x="472" 
d="M30 509h412v-112h-412v112zM30 302h412v-113h-412v113z" />
    <glyph glyph-name="greater" unicode="&#x3e;" horiz-adv-x="284" 
d="M11 446h124l137 -187v-17l-137 -187h-124l144 195z" />
    <glyph glyph-name="question" unicode="?" horiz-adv-x="443" 
d="M429 522q0 -96 -55 -153q-9 -10 -41 -39.5t-44.5 -49t-12.5 -43.5v-24h-131v30q0 39 16.5 70t40 52t47 41.5t40 48.5t16.5 62q0 44 -23 68.5t-63 24.5q-42 0 -67 -26t-25 -73h-123q1 94 62 148q61 55 151 55t151 -52q61 -51 61 -140zM211 146q33 0 56.5 -22.5t23.5 -55.5
t-23.5 -56t-56.5 -23q-35 0 -58 22.5t-23 56.5t23 56t58 22z" />
    <glyph glyph-name="at" unicode="@" horiz-adv-x="827" 
d="M403 351q-42 0 -68.5 -29t-26.5 -77q0 -47 26.5 -76.5t67.5 -29.5q40 0 68 27t28 73v9q0 46 -28 74.5t-67 28.5zM416 621q171 0 274 -106t103 -270q0 -105 -48 -156q-47 -50 -114 -50q-75 0 -113 60q-46 -60 -134 -60q-81 0 -134 59q-52 58 -52 146t51 147q53 60 131 60
q84 0 124 -64l7 55h92v-271q0 -31 9.5 -45t32.5 -14q69 0 69 133q0 131 -81 217q-81 85 -217 85q-140 0 -222 -85q-82 -83 -82 -217q0 -132 83 -218q82 -85 221 -85q73 0 136 30l26 -70q-66 -33 -162 -33q-173 0 -278 106q-104 106 -104 270q0 169 105 272q106 104 277 104z
" />
    <glyph glyph-name="A" unicode="A" horiz-adv-x="723" 
d="M286 700h151l271 -700h-149l-58 155h-279l-58 -155h-149zM374 494l-13 39l-13 -39l-83 -219h192z" />
    <glyph glyph-name="B" unicode="B" horiz-adv-x="597" 
d="M71 700h223q106 0 168 -53.5t62 -146.5q0 -88 -61 -136q47 -21 73.5 -62t26.5 -96q0 -93 -65 -150q-65 -56 -172 -56h-255v700zM326 293h-118v-165h118q44 0 69 22t25 61t-24.5 60.5t-69.5 21.5zM294 572h-86v-159h87q41 0 64.5 21t23.5 56q0 39 -23.5 60.5t-65.5 21.5z
" />
    <glyph glyph-name="C" unicode="C" horiz-adv-x="737" 
d="M387 713q127 0 209 -63t112 -176h-151q-41 111 -170 111q-91 0 -150 -66q-57 -66 -57 -168q0 -103 57 -170q59 -66 151 -66q138 0 178 117h145q-30 -118 -111.5 -181.5t-211.5 -63.5q-154 0 -253 103q-98 104 -98 261q0 156 98 259q99 103 252 103z" />
    <glyph glyph-name="D" unicode="D" horiz-adv-x="733" 
d="M71 700h262q166 0 263 -97q99 -97 99 -253t-99 -253q-97 -97 -263 -97h-262v700zM333 572h-125v-444h125q104 0 161.5 58t57.5 164q0 105 -57 163.5t-162 58.5z" />
    <glyph glyph-name="E" unicode="E" horiz-adv-x="519" 
d="M71 700h403v-128h-266v-148h230v-129h-230v-167h266v-128h-403v700z" />
    <glyph glyph-name="F" unicode="F" horiz-adv-x="492" 
d="M71 700h397v-128h-260v-157h221v-129h-221v-286h-137v700z" />
    <glyph glyph-name="G" unicode="G" horiz-adv-x="764" 
d="M387 713q127 0 209 -63t112 -176h-151q-41 111 -173 111q-90 0 -147 -66t-57 -168q0 -103 58 -170q58 -66 152 -66q77 0 124 35.5t52 99.5h-167v128h314v-61q0 -154 -89 -243q-88 -87 -234 -87q-155 0 -254 103q-99 104 -99 261q0 156 98 259q99 103 252 103z" />
    <glyph glyph-name="H" unicode="H" horiz-adv-x="717" 
d="M508 700h138v-700h-138v298h-300v-298h-137v700h137v-273h300v273z" />
    <glyph glyph-name="I" unicode="I" horiz-adv-x="279" 
d="M71 700h137v-700h-137v700z" />
    <glyph glyph-name="J" unicode="J" horiz-adv-x="531" 
d="M331 700h138v-486q0 -109 -55.5 -165t-160.5 -56q-110 0 -167.5 62.5t-60.5 175.5h137q4 -109 91 -109q78 0 78 101v477z" />
    <glyph glyph-name="K" unicode="K" horiz-adv-x="683" 
d="M457 700h167l-219 -314l264 -386h-165l-193 276l-100 -130v-146h-138v700h138v-355z" />
    <glyph glyph-name="L" unicode="L" horiz-adv-x="522" 
d="M70 700h138v-572h291v-128h-429v700z" />
    <glyph glyph-name="M" unicode="M" horiz-adv-x="890" 
d="M661 700h159v-700h-138v443l-20 -61l-159 -382h-116l-159 382l-20 61v-443h-137v700h158l200 -451l15 -41l16 41z" />
    <glyph glyph-name="N" unicode="N" horiz-adv-x="731" 
d="M523 700h138v-700h-138l-288 423l-27 46v-469h-137v700h136l287 -424l29 -48v472z" />
    <glyph glyph-name="O" unicode="O" horiz-adv-x="799" 
d="M400 713q158 0 260 -103q102 -102 102 -259t-102 -261q-102 -103 -260 -103q-159 0 -261 103q-102 104 -102 261t102 259q102 103 261 103zM400 585q-98 0 -160 -66q-60 -66 -60 -168q0 -103 60 -170q62 -66 160 -66t158 66q61 67 61 170t-61 168q-60 66 -158 66z" />
    <glyph glyph-name="P" unicode="P" horiz-adv-x="566" 
d="M71 700h225q113 0 179 -63q67 -61 67 -163q0 -100 -67 -163t-179 -63h-88v-248h-137v700zM296 572h-88v-195h88q49 0 77.5 26t28.5 71q0 47 -28.5 72.5t-77.5 25.5z" />
    <glyph glyph-name="Q" unicode="Q" horiz-adv-x="793" 
d="M400 713q158 0 260 -103q102 -102 102 -259q0 -167 -114 -273l141 -182h-179l-85 111q-60 -20 -125 -20q-159 0 -261 103q-102 104 -102 261t102 259q102 103 261 103zM400 585q-98 0 -160 -66q-60 -66 -60 -168q0 -103 60 -170q62 -66 160 -66q28 0 45 4v100h141
q33 59 33 132q0 103 -61 168q-60 66 -158 66z" />
    <glyph glyph-name="R" unicode="R" horiz-adv-x="580" 
d="M71 700h216q111 0 179 -62q67 -61 67 -161q0 -65 -32 -114.5t-90 -75.5l152 -287h-157l-136 262h-62v-262h-137v700zM287 572h-79v-188h79q49 0 77 24t28 69t-28 70t-77 25z" />
    <glyph glyph-name="S" unicode="S" horiz-adv-x="549" 
d="M273 713q101 0 159 -54t62 -155h-139q-1 41 -24.5 64t-60.5 23t-58 -19.5t-21 -55.5t26 -56q22 -17 97 -44q110 -37 156 -86.5t46 -130.5q0 -99 -66 -156q-65 -56 -167 -56q-115 0 -179.5 61t-67.5 166h139q4 -106 110 -106q42 0 67 21.5t25 57.5q0 35 -28 58t-96 45
q-105 34 -153 83t-48 131q0 92 59 151q59 58 162 58z" />
    <glyph glyph-name="T" unicode="T" horiz-adv-x="615" 
d="M11 700h593v-128h-228v-572h-137v572h-228v128z" />
    <glyph glyph-name="U" unicode="U" horiz-adv-x="693" 
d="M493 700h138v-418q0 -140 -74 -217.5t-210 -77.5t-210.5 77t-74.5 218v418h138v-418q0 -167 147 -167q146 0 146 167v418z" />
    <glyph glyph-name="V" unicode="V" horiz-adv-x="700" 
d="M542 700h147l-274 -700h-130l-274 700h147l177 -462l15 -48l15 48z" />
    <glyph glyph-name="W" unicode="W" horiz-adv-x="1002" 
d="M842 700h145l-213 -700h-145l-118 402l-10 48l-9 -48l-119 -402h-145l-213 700h145l132 -446l11 -51l9 51l126 446h126l127 -446l8 -51l11 51z" />
    <glyph glyph-name="X" unicode="X" horiz-adv-x="702" 
d="M512 700h162l-229 -345l236 -355h-162l-168 253l-168 -253h-161l235 355l-229 345h162l161 -243z" />
    <glyph glyph-name="Y" unicode="Y" horiz-adv-x="687" 
d="M518 700h160l-265 -440v-260h-139v260l-265 440h160l150 -244l24 -47l25 47z" />
    <glyph glyph-name="Z" unicode="Z" horiz-adv-x="601" 
d="M43 700h506v-112l-331 -460h345v-128h-522v112l334 460h-332v128z" />
    <glyph glyph-name="bracketleft" unicode="[" horiz-adv-x="329" 
d="M70 716h234v-118h-111v-557h111v-118h-234v793z" />
    <glyph glyph-name="backslash" unicode="\" horiz-adv-x="408" 
d="M5 700h128l270 -700h-129z" />
    <glyph glyph-name="bracketright" unicode="]" horiz-adv-x="329" 
d="M25 716h234v-793h-234v118h110v557h-110v118z" />
    <glyph glyph-name="asciicircum" unicode="^" horiz-adv-x="540" 
d="M15 462l255 300l255 -300h-133l-122 144l-122 -144h-133z" />
    <glyph glyph-name="underscore" unicode="_" horiz-adv-x="635" 
d="M25 0h585v-115h-585v115z" />
    <glyph glyph-name="grave" unicode="`" horiz-adv-x="285" 
d="M10 732h159l106 -158h-111z" />
    <glyph glyph-name="a" unicode="a" horiz-adv-x="516" 
d="M257 518q94 0 147.5 -47.5t53.5 -137.5v-333h-111l-8 62q-48 -73 -145 -73q-69 0 -111.5 40t-42.5 106q0 67 40 103t117 49l131 24v19q0 77 -71 77q-33 0 -54.5 -18.5t-21.5 -48.5h-126q5 80 60 129t142 49zM328 209v15l-101 -21q-57 -13 -57 -57q0 -23 15.5 -36.5
t43.5 -13.5q53 0 81 46q18 28 18 67z" />
    <glyph glyph-name="b" unicode="b" horiz-adv-x="620" 
d="M69 730h129v-278q50 66 153 66q102 0 169 -76t67 -188t-68 -189q-67 -76 -168 -76q-107 0 -161 79l-10 -68h-111v730zM324 396q-51 0 -89 -38t-39 -101v-6q0 -65 38 -103q37 -37 90 -37q55 0 91.5 40t36.5 103q0 62 -36.5 102t-91.5 40z" />
    <glyph glyph-name="c" unicode="c" horiz-adv-x="557" 
d="M287 518q95 0 157.5 -49.5t76.5 -140.5h-126q-11 34 -39 53t-66 19q-54 0 -88 -42q-35 -41 -35 -105q0 -63 35.5 -104t90.5 -41q38 0 66 20t37 51h127q-18 -91 -81 -140.5t-155 -49.5q-113 0 -183 73q-71 74 -71 191q0 114 71 190q72 75 183 75z" />
    <glyph glyph-name="d" unicode="d" horiz-adv-x="619" 
d="M421 730h130v-730h-112l-10 68q-54 -79 -161 -79q-101 0 -168 76t-67 189q0 112 67 188t169 76t152 -66v278zM295 396q-55 0 -91.5 -40t-36.5 -102q0 -63 36.5 -103t91.5 -40q53 0 90 37q38 38 38 103v6q-1 63 -39 101t-89 38z" />
    <glyph glyph-name="e" unicode="e" horiz-adv-x="559" 
d="M285 518q108 0 171.5 -68.5t63.5 -195.5v-40h-353q3 -51 36 -82.5t86 -31.5q79 0 102 59h126q-50 -170 -232 -170q-113 0 -183 72q-69 73 -69 192q0 117 70 190q71 75 182 75zM168 304h221q-1 48 -30 77t-77 29q-47 0 -78 -29t-36 -77z" />
    <glyph glyph-name="f" unicode="f" horiz-adv-x="358" 
d="M279 741q35 0 67 -9v-116q-27 11 -52 11q-67 0 -67 -70v-50h116v-118h-116v-389h-131v389h-80v118h80v53q0 89 47 135t136 46z" />
    <glyph glyph-name="g" unicode="g" horiz-adv-x="524" 
d="M330 507h192v-110h-75q10 -29 10 -59q0 -77 -56 -127q-55 -49 -144 -49q-49 0 -84 13q-12 -15 -12 -37q0 -42 51 -42h119q79 0 122.5 -37.5t43.5 -108.5q0 -83 -60 -129.5t-164 -46.5q-113 0 -171.5 40.5t-58.5 115.5q0 56 51 89q-59 41 -59 109q0 64 52 107
q-35 46 -35 103q0 80 58 129q58 51 147 51q37 0 73 -11zM298 -2h-76q-24 -3 -38 -18.5t-14 -39.5q0 -33 27.5 -51t76.5 -18q96 0 96 71q0 56 -72 56zM180 338q0 -35 21 -57.5t55 -22.5t54.5 22.5t20.5 57.5q0 37 -20.5 59.5t-54.5 22.5t-55 -22.5t-21 -59.5z" />
    <glyph glyph-name="h" unicode="h" horiz-adv-x="552" 
d="M69 730h129v-276q43 64 129 64q79 0 121.5 -50t42.5 -139v-329h-131v301q0 91 -72 91q-41 0 -65.5 -32.5t-24.5 -91.5v-268h-129v730z" />
    <glyph glyph-name="i" unicode="i" 
d="M70 507h130v-507h-130v507zM135 733q32 0 55.5 -22.5t23.5 -54.5q0 -33 -23 -55t-56 -22t-56 22t-23 55q0 32 23 54.5t56 22.5z" />
    <glyph glyph-name="j" unicode="j" 
d="M70 507h130v-530q0 -203 -171 -203q-52 0 -83 10v116q27 -8 58 -8q35 0 50.5 21.5t15.5 67.5v526zM135 733q32 0 55.5 -22.5t23.5 -54.5q0 -33 -23 -55t-56 -22t-56 22t-23 55q0 32 23 54.5t56 22.5z" />
    <glyph glyph-name="k" unicode="k" horiz-adv-x="540" 
d="M71 730h130v-428l148 205h155l-149 -213l175 -294h-148l-118 194l-63 -80v-114h-130v730z" />
    <glyph glyph-name="l" unicode="l" 
d="M70 730h130v-730h-130v730z" />
    <glyph glyph-name="m" unicode="m" horiz-adv-x="839" 
d="M616 518q78 0 120 -50t42 -139v-329h-130v301q0 91 -71 91q-39 0 -63.5 -31t-25.5 -87v-274h-130v301q0 91 -71 91q-40 0 -64.5 -32.5t-24.5 -91.5v-268h-129v507h111l10 -66q41 77 135 77q107 0 145 -89q19 40 57.5 64.5t88.5 24.5z" />
    <glyph glyph-name="n" unicode="n" horiz-adv-x="552" 
d="M327 518q79 0 121.5 -50t42.5 -139v-329h-131v301q0 91 -72 91q-41 0 -65.5 -32.5t-24.5 -91.5v-268h-129v507h111l10 -66q41 77 137 77z" />
    <glyph glyph-name="o" unicode="o" horiz-adv-x="598" 
d="M298 518q115 0 191 -74q76 -73 76 -190q0 -118 -76 -191q-76 -74 -191 -74q-114 0 -190 74q-75 73 -75 191q0 116 75 190q76 74 190 74zM299 400q-57 0 -95 -42q-37 -40 -37 -104t37 -105q38 -41 95 -41t94 41.5t37 104.5q0 64 -36 105t-95 41z" />
    <glyph glyph-name="p" unicode="p" horiz-adv-x="623" 
d="M354 518q102 0 169 -76t67 -188t-68 -189q-67 -76 -168 -76q-106 0 -152 67v-271h-130v722h112l9 -68q54 79 161 79zM327 396q-52 0 -90 -38t-38 -102v-6q2 -64 39 -101q38 -38 89 -38q55 0 91.5 40t36.5 103t-36.5 102.5t-91.5 39.5z" />
    <glyph glyph-name="q" unicode="q" horiz-adv-x="623" 
d="M268 518q107 0 161 -79l10 68h112v-722h-130v271q-49 -67 -152 -67q-102 0 -169 76t-67 189q0 112 67 188t168 76zM295 396q-55 0 -91.5 -39.5t-36.5 -102.5t36.5 -103t91.5 -40q51 0 89 38q37 37 39 101v6q0 64 -38 102t-90 38z" />
    <glyph glyph-name="r" unicode="r" horiz-adv-x="369" 
d="M343 512v-130q-62 0 -101 -30q-38 -30 -41 -94v-258h-130v507h112l12 -81q32 86 148 86z" />
    <glyph glyph-name="s" unicode="s" horiz-adv-x="460" 
d="M230 518q80 0 131.5 -44t54.5 -116h-129q-1 58 -58 58q-27 0 -41.5 -13.5t-14.5 -36.5q0 -24 19 -36.5t70 -21.5q88 -15 126.5 -52t38.5 -102q0 -79 -54 -122t-142 -43q-91 0 -143.5 44t-54.5 121h128q2 -62 73 -62q63 0 63 48q0 25 -19.5 39t-72.5 24q-83 14 -122.5 51
t-39.5 99q0 71 49 117q50 48 138 48z" />
    <glyph glyph-name="t" unicode="t" horiz-adv-x="379" 
d="M99 630h131l-1 -123h116v-118h-117l-2 -205q0 -40 14.5 -56.5t51.5 -16.5q29 0 53 7v-114q-30 -11 -82 -11q-86 0 -127 38.5t-40 121.5l2 236h-83v118h83z" />
    <glyph glyph-name="u" unicode="u" horiz-adv-x="549" 
d="M351 507h129v-507h-111l-10 66q-41 -77 -134 -77q-79 0 -121 50t-42 139v329h130v-300q0 -92 72 -92q39 0 63 31t24 89v272z" />
    <glyph glyph-name="v" unicode="v" horiz-adv-x="516" 
d="M367 507h141l-184 -507h-132l-183 507h140l99 -311l10 -44l10 44z" />
    <glyph glyph-name="w" unicode="w" horiz-adv-x="781" 
d="M632 507h139l-153 -507h-136l-92 298l-98 -298h-129l-153 507h140l77 -305l9 -54l11 54l86 305h115l86 -305l11 -54l9 54z" />
    <glyph glyph-name="x" unicode="x" horiz-adv-x="533" 
d="M359 507h151l-154 -249l160 -258h-151l-99 160l-98 -160h-151l159 258l-153 249h151l92 -148z" />
    <glyph glyph-name="y" unicode="y" horiz-adv-x="521" 
d="M367 507h141l-261 -722h-135l77 221l-180 501h140l99 -311l10 -44l10 44z" />
    <glyph glyph-name="z" unicode="z" horiz-adv-x="478" 
d="M36 507h401v-97l-229 -297h242v-113h-415v97l229 297h-228v113z" />
    <glyph glyph-name="braceleft" unicode="{" horiz-adv-x="325" 
d="M277 716h23v-118h-18q-65 0 -65 -72v-100q0 -41 -17.5 -69t-48.5 -38q66 -21 66 -106v-100q0 -72 65 -72h18v-118h-23q-88 0 -134.5 49t-46.5 136v83q0 72 -65 72h-12v113h12q65 0 65 72v83q0 87 46.5 136t134.5 49z" />
    <glyph glyph-name="bar" unicode="|" horiz-adv-x="242" 
d="M61 726h121v-793h-121v793z" />
    <glyph glyph-name="braceright" unicode="}" horiz-adv-x="325" 
d="M25 716h23q89 0 135 -48.5t46 -136.5v-83q0 -72 65 -72h12v-113h-12q-65 0 -65 -72v-83q0 -88 -46 -136.5t-135 -48.5h-23v118h19q31 0 48 19t17 53v100q0 86 65 106q-65 20 -65 107v100q0 34 -17 53t-48 19h-19v118z" />
    <glyph glyph-name="asciitilde" unicode="~" horiz-adv-x="568" 
d="M188 456q32 0 61.5 -14t46.5 -33q42 -46 87 -46q57 0 77 80l88 -38q-42 -154 -167 -154q-65 0 -111 46q-45 47 -86 47q-55 0 -76 -80l-88 38q40 154 168 154z" />
    <glyph glyph-name="exclamdown" unicode="&#xa1;" 
d="M199 -194h-130v487h130v-487zM53 438q0 34 23.5 56.5t57.5 22.5t57.5 -22.5t23.5 -56.5q0 -33 -23.5 -55.5t-57.5 -22.5t-57.5 22.5t-23.5 55.5z" />
    <glyph glyph-name="cent" unicode="&#xa2;" horiz-adv-x="557" 
d="M241 615h97v-101q74 -13 122.5 -61t60.5 -125h-126q-11 34 -39 53t-66 19q-54 0 -88 -42q-35 -41 -35 -105q0 -63 35.5 -104t90.5 -41q38 0 66 20t37 51h127q-15 -77 -63.5 -125t-121.5 -60v-102h-97v101q-93 13 -151 85q-57 71 -57 175q0 103 57 173q58 72 151 88v101z
" />
    <glyph glyph-name="sterling" unicode="&#xa3;" horiz-adv-x="534" 
d="M226 382h135v-96h-107q2 -32 2 -38q0 -52 -26 -96l-13 -22h122q37 0 53.5 18t16.5 57h119q-1 -100 -51.5 -152.5t-144.5 -52.5h-311v34l45 58q57 73 57 160q0 4 -2 34h-103v96h73q-31 72 -31 125q0 92 59 149q58 57 152 57q98 0 154 -54.5t58 -154.5h-124q0 40 -22.5 65
t-59.5 25q-38 0 -60 -24t-22 -67q0 -41 31 -121z" />
    <glyph glyph-name="currency" unicode="&#xa4;" horiz-adv-x="655" 
d="M427 444l120 119l84 -85l-119 -118q26 -46 26 -99t-27 -100l120 -118l-84 -85l-122 119q-49 -23 -98 -23q-47 0 -98 23l-121 -119l-85 85l119 118q-25 46 -25 100q0 53 25 99l-119 118l85 85l119 -118q47 25 100 25q43 0 100 -26zM398 338q-29 32 -71 32t-71 -32
q-28 -31 -28 -77t28 -77q28 -30 71 -30t71 30q29 32 29 77t-29 77z" />
    <glyph glyph-name="yen" unicode="&#xa5;" horiz-adv-x="665" 
d="M508 700h160l-212 -352h76v-95h-129v-68h129v-96h-129v-89h-139v89h-132v96h132v68h-132v95h79l-212 352h160l150 -244l24 -47l25 47z" />
    <glyph glyph-name="brokenbar" unicode="&#xa6;" horiz-adv-x="242" 
d="M61 726h121v-280h-121v280zM61 213h121v-280h-121v280z" />
    <glyph glyph-name="section" unicode="&#xa7;" horiz-adv-x="522" 
d="M261 720q90 0 143.5 -43.5t56.5 -118.5h-131q-1 64 -70 64q-30 0 -48 -15.5t-18 -40.5q0 -27 22 -43t77 -25q106 -17 151.5 -53t45.5 -102q0 -71 -73 -117q57 -39 57 -113q0 -81 -59 -122q-59 -42 -148 -42q-96 0 -152.5 43.5t-58.5 118.5h131q0 -30 22 -47t59 -17
q35 0 54 15t19 41q0 27 -27.5 43t-101.5 28q-180 30 -180 148q0 81 76 127q-47 38 -47 107q0 82 57 122q59 42 143 42zM293 267l19 -3q47 23 47 63q0 31 -26 47t-100 29q-18 3 -26 5q-43 -22 -43 -65q0 -32 27 -48.5t102 -27.5z" />
    <glyph glyph-name="dieresis" unicode="&#xa8;" horiz-adv-x="369" 
d="M82 712q30 0 50.5 -20t20.5 -50t-20.5 -50t-50.5 -20q-31 0 -51.5 20t-20.5 50t20.5 50t51.5 20zM236 692q21 20 51 20t51 -20t21 -50t-21 -50t-51 -20t-51 20q-20 20 -20 50t20 50z" />
    <glyph glyph-name="copyright" unicode="&#xa9;" horiz-adv-x="607" 
d="M308 620q107 0 132 -106h-91q-10 28 -41 28q-27 0 -42.5 -18t-15.5 -48q0 -31 15.5 -49.5t42.5 -18.5q35 0 47 33h87q-22 -111 -134 -111q-65 0 -105.5 41t-40.5 105q0 63 40.5 103.5t105.5 40.5zM305 754q122 0 197 -79q75 -78 75 -199q0 -120 -75 -200
q-75 -78 -197 -78q-123 0 -199 78q-76 79 -76 200q0 122 76 199q76 79 199 79zM305 683q-89 0 -145 -59q-55 -58 -55 -148q0 -91 55 -149t145 -58q89 0 143 58q54 59 54 149t-54 148q-54 59 -143 59z" />
    <glyph glyph-name="ordfeminine" unicode="&#xaa;" horiz-adv-x="388" 
d="M193 712q68 0 106.5 -32.5t38.5 -94.5v-226h-83l-6 39q-36 -46 -101 -46q-49 0 -78.5 27t-29.5 72q0 47 27.5 71.5t84.5 33.5l88 16v11q0 45 -47 45q-22 0 -35.5 -10.5t-13.5 -28.5h-95q4 55 42.5 89t101.5 34zM240 497v9l-66 -13q-19 -3 -27.5 -10t-8.5 -22
q0 -29 36 -29q40 0 56 28q10 16 10 37z" />
    <glyph glyph-name="guillemotleft" unicode="&#xab;" horiz-adv-x="487" 
d="M127 446h124l-122 -196l122 -195h-124l-116 187v17zM352 446h124l-122 -196l122 -195h-124l-115 187v17z" />
    <glyph glyph-name="logicalnot" unicode="&#xac;" horiz-adv-x="615" 
d="M41 450h538v-302h-90v208h-448v94z" />
    <glyph glyph-name="registered" unicode="&#xae;" horiz-adv-x="607" 
d="M305 754q122 0 197 -79q75 -78 75 -199q0 -120 -75 -200q-75 -78 -197 -78q-123 0 -199 78q-76 79 -76 200q0 122 76 199q76 79 199 79zM305 683q-89 0 -145 -59q-55 -58 -55 -148q0 -91 55 -149t145 -58q89 0 143 58q54 59 54 149t-54 148q-54 59 -143 59zM195 614h115
q50 0 79.5 -26t29.5 -70q0 -50 -42 -75l54 -109h-97l-38 92h-17v-92h-84v280zM302 547h-23v-61h23q33 0 33 30q0 31 -33 31z" />
    <glyph glyph-name="overscore" unicode="&#xaf;" horiz-adv-x="299" 
d="M10 685h279v-97h-279v97z" />
    <glyph glyph-name="degree" unicode="&#xb0;" horiz-adv-x="357" 
d="M177 722q69 0 113 -43q45 -43 45 -111t-45 -112q-45 -42 -113 -42q-67 0 -111 43q-45 43 -45 111t45 111q44 43 111 43zM177 639q-30 0 -49.5 -20t-19.5 -51t19.5 -51t49.5 -20q31 0 51.5 20t20.5 51t-20.5 51t-51.5 20z" />
    <glyph glyph-name="plusminus" unicode="&#xb1;" horiz-adv-x="472" 
d="M178 647h116v-149h148v-115h-148v-148h-116v148h-148v115h148v149zM30 183h412v-115h-412v115z" />
    <glyph glyph-name="two.sups" unicode="&#xb2;" horiz-adv-x="324" 
d="M165 807q63 0 98 -31.5t35 -86.5q0 -57 -53 -113l-76 -76h127v-92h-264v72l125 129q25 25 33.5 39.5t8.5 32.5q0 35 -35 35q-39 0 -39 -43h-99q-1 59 38 96.5t101 37.5z" />
    <glyph glyph-name="three.sups" unicode="&#xb3;" horiz-adv-x="355" 
d="M174 807q62 0 98.5 -33t36.5 -85q0 -54 -49 -76q63 -19 63 -88q0 -59 -39 -91.5t-106 -32.5q-69 0 -107 34t-38 97h98q0 -20 14 -30.5t36 -10.5q20 0 31.5 10.5t11.5 28.5q0 42 -57 42h-30v77h29q44 0 44 36q3 23 -23 30q-29 7 -44 -13q-7 -10 -6 -23h-98q0 60 36 94
t99 34z" />
    <glyph glyph-name="acute" unicode="&#xb4;" horiz-adv-x="285" 
d="M116 732h159l-154 -158h-111z" />
    <glyph glyph-name="mu" unicode="&#xb5;" horiz-adv-x="556" 
d="M357 507h130v-507h-112l-9 66q-41 -77 -135 -77q-18 0 -33 3v-207h-129v722h129v-300q0 -92 72 -92q39 0 63 31t24 89v272z" />
    <glyph glyph-name="paragraph" unicode="&#xb6;" horiz-adv-x="618" 
d="M230 700h371v-85h-84v-695h-85v695h-98v-695h-86v388h-18q-91 0 -148 54q-57 56 -57 141q0 87 57 142q56 55 148 55z" />
    <glyph glyph-name="middot" unicode="&#xb7;" horiz-adv-x="222" 
d="M111 338q33 0 56.5 -23t23.5 -56t-23.5 -56t-56.5 -23q-34 0 -57 22.5t-23 56.5t23 56.5t57 22.5z" />
    <glyph glyph-name="cedilla" unicode="&#xb8;" horiz-adv-x="223" 
d="M79 6h60l-13 -57q40 -2 63.5 -24t23.5 -60q0 -44 -30.5 -69.5t-80.5 -25.5q-57 0 -92 32l39 56q20 -23 51 -23q35 0 35 29q0 30 -36 30q-7 0 -27 -5l-18 6z" />
    <glyph glyph-name="one.sups" unicode="&#xb9;" horiz-adv-x="268" 
d="M147 800h71v-392h-98v256h-89v76q101 0 116 60z" />
    <glyph glyph-name="ordmasculine" unicode="&#xba;" horiz-adv-x="444" 
d="M221 712q83 0 135 -51q54 -49 54 -130q0 -79 -54 -129q-53 -50 -135 -50q-81 0 -134 50t-53 129q0 80 53 130q53 51 134 51zM284 597q-24 26 -62 26t-62 -26t-24 -65t24 -65t62 -26t62 26t24 65t-24 65z" />
    <glyph glyph-name="guillemotright" unicode="&#xbb;" horiz-adv-x="487" 
d="M11 446h124l116 -187v-17l-116 -187h-124l122 195zM237 446h123l116 -187v-17l-116 -187h-123l121 195z" />
    <glyph glyph-name="onequarter" unicode="&#xbc;" horiz-adv-x="773" 
d="M567 392h124v-243h51v-87h-51v-62h-98v62h-177v78zM594 148v130l-9 -21l-68 -109h77zM147 700h71v-392h-98v256h-89v76q101 0 116 60zM479 700h136l-377 -700h-136z" />
    <glyph glyph-name="onehalf" unicode="&#xbd;" horiz-adv-x="758" 
d="M598 399q63 0 98 -31.5t35 -86.5q0 -57 -53 -113l-76 -76h127v-92h-264v72l125 129q25 25 33.5 39.5t8.5 32.5q0 35 -35 35q-39 0 -39 -43h-99q-1 59 38 96.5t101 37.5zM147 700h71v-392h-98v256h-89v76q101 0 116 60zM479 700h136l-377 -700h-136z" />
    <glyph glyph-name="threequarters" unicode="&#xbe;" horiz-adv-x="844" 
d="M174 707q62 0 98.5 -33t36.5 -85q0 -54 -49 -76q63 -19 63 -88q0 -59 -39 -91.5t-106 -32.5q-69 0 -107 34t-38 97h98q0 -20 14 -30.5t36 -10.5q20 0 31.5 10.5t11.5 28.5q0 42 -57 42h-30v77h29q44 0 44 36q3 23 -23 30q-29 7 -44 -13q-7 -10 -6 -23h-98q0 60 36 94
t99 34zM638 392h124v-243h51v-87h-51v-62h-98v62h-177v78zM665 148v130l-9 -21l-68 -109h77zM551 700h136l-377 -700h-136z" />
    <glyph glyph-name="questiondown" unicode="&#xbf;" horiz-adv-x="443" 
d="M13 -16q0 93 54 153q10 11 41.5 40t44.5 48.5t13 43.5v24h131v-30q0 -39 -16.5 -70t-40 -52t-47 -41.5t-40 -48.5t-16.5 -62q0 -44 23 -68.5t63 -24.5q42 0 67 26t25 73h123q-1 -94 -63 -148q-59 -55 -150 -55q-90 0 -151 52q-61 51 -61 140zM231 360q-33 0 -56.5 22.5
t-23.5 55.5t23.5 56t56.5 23q35 0 58 -22.5t23 -56.5t-23 -56t-58 -22z" />
    <glyph glyph-name="Agrave" unicode="&#xc0;" horiz-adv-x="723" 
d="M286 700h151l271 -700h-149l-58 155h-279l-58 -155h-149zM374 494l-13 39l-13 -39l-83 -219h192zM158 854h179l93 -120h-129z" />
    <glyph glyph-name="Aacute" unicode="&#xc1;" horiz-adv-x="723" 
d="M286 700h151l271 -700h-149l-58 155h-279l-58 -155h-149zM374 494l-13 39l-13 -39l-83 -219h192zM375 854h179l-143 -120h-129z" />
    <glyph glyph-name="Acircumflex" unicode="&#xc2;" horiz-adv-x="723" 
d="M286 700h151l271 -700h-149l-58 155h-279l-58 -155h-149zM374 494l-13 39l-13 -39l-83 -219h192zM325 860h73l154 -127h-140l-51 51l-51 -51h-139z" />
    <glyph glyph-name="Atilde" unicode="&#xc3;" horiz-adv-x="723" 
d="M286 700h151l271 -700h-149l-58 155h-279l-58 -155h-149zM374 494l-13 39l-13 -39l-83 -219h192zM297 874q55 0 79 -32t51 -32q33 0 33 55h77q0 -67 -28 -104t-83 -37q-54 0 -80 32q-24 32 -50 32q-34 0 -34 -55h-76q0 67 28 104t83 37z" />
    <glyph glyph-name="Adieresis" unicode="&#xc4;" horiz-adv-x="723" 
d="M286 700h151l271 -700h-149l-58 155h-279l-58 -155h-149zM374 494l-13 39l-13 -39l-83 -219h192zM258 870q30 0 50.5 -20t20.5 -50t-20.5 -50t-50.5 -20q-31 0 -51.5 20t-20.5 50t20.5 50t51.5 20zM412 850q21 20 51 20t51 -20t21 -50t-21 -50t-51 -20t-51 20
q-20 20 -20 50t20 50z" />
    <glyph glyph-name="Aring" unicode="&#xc5;" horiz-adv-x="723" 
d="M286 700h151l271 -700h-149l-58 155h-279l-58 -155h-149zM374 494l-13 39l-13 -39l-83 -219h192zM465 826q0 -43 -30 -72.5t-75 -29.5t-74.5 29.5t-29.5 72.5q0 45 29 74t75 29t75.5 -29t29.5 -74zM324 826q0 -15 10.5 -25.5t25.5 -10.5q16 0 26.5 10.5t10.5 25.5
q2 23 -17.5 32.5t-38.5 0t-17 -32.5z" />
    <glyph glyph-name="AE" unicode="&#xc6;" horiz-adv-x="958" 
d="M454 700h459v-128h-266v-148h229v-129h-229v-167h266v-128h-404v156h-237l-102 -156h-162zM509 274v264l-22 -42l-142 -222h164z" />
    <glyph glyph-name="Ccedilla" unicode="&#xc7;" horiz-adv-x="737" 
d="M387 713q127 0 209 -63t112 -176h-151q-41 111 -170 111q-91 0 -150 -66q-57 -66 -57 -168q0 -103 57 -170q59 -66 151 -66q138 0 178 117h145q-28 -112 -103 -175t-194 -69l-9 -39q40 -2 63.5 -24t23.5 -60q0 -44 -30.5 -69.5t-80.5 -25.5q-57 0 -92 32l39 56
q20 -23 51 -23q35 0 35 29q0 30 -36 30q-9 0 -27 -5l-18 6l21 94q-140 10 -229 112q-88 100 -88 250q0 156 98 259q99 103 252 103z" />
    <glyph glyph-name="Egrave" unicode="&#xc8;" horiz-adv-x="519" 
d="M71 700h403v-128h-266v-148h230v-129h-230v-167h266v-128h-403v700zM81 854h179l93 -120h-129z" />
    <glyph glyph-name="Eacute" unicode="&#xc9;" horiz-adv-x="519" 
d="M71 700h403v-128h-266v-148h230v-129h-230v-167h266v-128h-403v700zM297 854h179l-143 -120h-129z" />
    <glyph glyph-name="Ecircumflex" unicode="&#xca;" horiz-adv-x="519" 
d="M71 700h403v-128h-266v-148h230v-129h-230v-167h266v-128h-403v700zM241 860h73l154 -127h-140l-51 51l-51 -51h-139z" />
    <glyph glyph-name="Edieresis" unicode="&#xcb;" horiz-adv-x="519" 
d="M174 870q30 0 50.5 -20t20.5 -50t-20.5 -50t-50.5 -20q-31 0 -51.5 20t-20.5 50t20.5 50t51.5 20zM328 850q21 20 51 20t51 -20t21 -50t-21 -50t-51 -20t-51 20q-20 20 -20 50t20 50zM71 700h403v-128h-266v-148h230v-129h-230v-167h266v-128h-403v700z" />
    <glyph glyph-name="Igrave" unicode="&#xcc;" horiz-adv-x="279" 
d="M71 700h137v-700h-137v700zM-63 854h179l93 -120h-129z" />
    <glyph glyph-name="Iacute" unicode="&#xcd;" horiz-adv-x="279" 
d="M71 700h137v-700h-137v700zM152 854h179l-143 -120h-129z" />
    <glyph glyph-name="Icircumflex" unicode="&#xce;" horiz-adv-x="279" 
d="M104 860h73l154 -127h-140l-51 51l-51 -51h-139zM71 700h137v-700h-137v700z" />
    <glyph glyph-name="Idieresis" unicode="&#xcf;" horiz-adv-x="279" 
d="M37 870q30 0 50.5 -20t20.5 -50t-20.5 -50t-50.5 -20q-31 0 -51.5 20t-20.5 50t20.5 50t51.5 20zM191 850q21 20 51 20t51 -20t21 -50t-21 -50t-51 -20t-51 20q-20 20 -20 50t20 50zM71 700h137v-700h-137v700z" />
    <glyph glyph-name="Eth" unicode="&#xd0;" horiz-adv-x="743" 
d="M80 700h262q166 0 263 -97q99 -97 99 -253t-99 -253q-97 -97 -263 -97h-262v313h-74v97h74v290zM342 572h-125v-162h99v-97h-99v-185h125q104 0 161.5 58t57.5 164q0 105 -57 163.5t-162 58.5z" />
    <glyph glyph-name="Ntilde" unicode="&#xd1;" horiz-adv-x="731" 
d="M523 700h138v-700h-138l-288 423l-27 46v-469h-137v700h136l287 -424l29 -48v472zM301 874q55 0 79 -32t51 -32q33 0 33 55h77q0 -67 -28 -104t-83 -37q-54 0 -80 32q-24 32 -50 32q-34 0 -34 -55h-76q0 67 28 104t83 37z" />
    <glyph glyph-name="Ograve" unicode="&#xd2;" horiz-adv-x="799" 
d="M400 713q158 0 260 -103q102 -102 102 -259t-102 -261q-102 -103 -260 -103q-159 0 -261 103q-102 104 -102 261t102 259q102 103 261 103zM400 585q-98 0 -160 -66q-60 -66 -60 -168q0 -103 60 -170q62 -66 160 -66t158 66q61 67 61 170t-61 168q-60 66 -158 66z
M197 864h179l93 -120h-129z" />
    <glyph glyph-name="Oacute" unicode="&#xd3;" horiz-adv-x="799" 
d="M400 713q158 0 260 -103q102 -102 102 -259t-102 -261q-102 -103 -260 -103q-159 0 -261 103q-102 104 -102 261t102 259q102 103 261 103zM400 585q-98 0 -160 -66q-60 -66 -60 -168q0 -103 60 -170q62 -66 160 -66t158 66q61 67 61 170t-61 168q-60 66 -158 66z
M413 864h179l-143 -120h-129z" />
    <glyph glyph-name="Ocircumflex" unicode="&#xd4;" horiz-adv-x="799" 
d="M400 713q158 0 260 -103q102 -102 102 -259t-102 -261q-102 -103 -260 -103q-159 0 -261 103q-102 104 -102 261t102 259q102 103 261 103zM400 585q-98 0 -160 -66q-60 -66 -60 -168q0 -103 60 -170q62 -66 160 -66t158 66q61 67 61 170t-61 168q-60 66 -158 66z
M363 870h73l154 -127h-140l-51 51l-51 -51h-139z" />
    <glyph glyph-name="Otilde" unicode="&#xd5;" horiz-adv-x="799" 
d="M336 884q55 0 79 -32t51 -32q33 0 33 55h77q0 -67 -28 -104t-83 -37q-54 0 -80 32q-24 32 -50 32q-34 0 -34 -55h-76q0 67 28 104t83 37zM400 713q158 0 260 -103q102 -102 102 -259t-102 -261q-102 -103 -260 -103q-159 0 -261 103q-102 104 -102 261t102 259
q102 103 261 103zM400 585q-98 0 -160 -66q-60 -66 -60 -168q0 -103 60 -170q62 -66 160 -66t158 66q61 67 61 170t-61 168q-60 66 -158 66z" />
    <glyph glyph-name="Odieresis" unicode="&#xd6;" horiz-adv-x="799" 
d="M400 713q158 0 260 -103q102 -102 102 -259t-102 -261q-102 -103 -260 -103q-159 0 -261 103q-102 104 -102 261t102 259q102 103 261 103zM400 585q-98 0 -160 -66q-60 -66 -60 -168q0 -103 60 -170q62 -66 160 -66t158 66q61 67 61 170t-61 168q-60 66 -158 66z
M297 880q30 0 50.5 -20t20.5 -50t-20.5 -50t-50.5 -20q-31 0 -51.5 20t-20.5 50t20.5 50t51.5 20zM451 860q21 20 51 20t51 -20t21 -50t-21 -50t-51 -20t-51 20q-20 20 -20 50t20 50z" />
    <glyph glyph-name="multiply" unicode="&#xd7;" horiz-adv-x="436" 
d="M218 432l113 113l82 -82l-114 -113l113 -113l-82 -81l-112 112l-113 -112l-81 81l112 113l-113 113l81 82z" />
    <glyph glyph-name="Oslash" unicode="&#xd8;" horiz-adv-x="799" 
d="M400 713q71 0 135 -23l51 86l98 -50l-53 -90q62 -49 96.5 -123.5t34.5 -161.5q0 -157 -102 -261q-102 -103 -260 -103q-70 0 -137 24l-52 -89l-98 50l54 92q-62 49 -96 123.5t-34 163.5q0 157 102 259q102 103 261 103zM619 351q0 101 -58 165l-231 -391q30 -10 70 -10
q98 0 158 66q61 67 61 170zM400 585q-98 0 -160 -66q-60 -66 -60 -168t58 -167l230 391q-33 10 -68 10z" />
    <glyph glyph-name="Ugrave" unicode="&#xd9;" horiz-adv-x="693" 
d="M493 700h138v-418q0 -140 -74 -217.5t-210 -77.5t-210.5 77t-74.5 218v418h138v-418q0 -167 147 -167q146 0 146 167v418zM143 854h179l93 -120h-129z" />
    <glyph glyph-name="Uacute" unicode="&#xda;" horiz-adv-x="693" 
d="M493 700h138v-418q0 -140 -74 -217.5t-210 -77.5t-210.5 77t-74.5 218v418h138v-418q0 -167 147 -167q146 0 146 167v418zM359 854h179l-143 -120h-129z" />
    <glyph glyph-name="Ucircumflex" unicode="&#xdb;" horiz-adv-x="693" 
d="M493 700h138v-418q0 -140 -74 -217.5t-210 -77.5t-210.5 77t-74.5 218v418h138v-418q0 -167 147 -167q146 0 146 167v418zM309 860h73l154 -127h-140l-51 51l-51 -51h-139z" />
    <glyph glyph-name="Udieresis" unicode="&#xdc;" horiz-adv-x="693" 
d="M243 870q30 0 50.5 -20t20.5 -50t-20.5 -50t-50.5 -20q-31 0 -51.5 20t-20.5 50t20.5 50t51.5 20zM397 850q21 20 51 20t51 -20t21 -50t-21 -50t-51 -20t-51 20q-20 20 -20 50t20 50zM493 700h138v-418q0 -140 -74 -217.5t-210 -77.5t-210.5 77t-74.5 218v418h138v-418
q0 -167 147 -167q146 0 146 167v418z" />
    <glyph glyph-name="Yacute" unicode="&#xdd;" horiz-adv-x="687" 
d="M518 700h160l-265 -440v-260h-139v260l-265 440h160l150 -244l24 -47l25 47zM356 854h179l-143 -120h-129z" />
    <glyph glyph-name="Thorn" unicode="&#xde;" horiz-adv-x="590" 
d="M71 700h137v-103h111q109 0 174 -60q66 -59 66 -155q0 -94 -66 -154q-65 -60 -174 -60h-111v-168h-137v700zM319 468h-111v-171h111q46 0 72.5 22t26.5 63t-26.5 63.5t-72.5 22.5z" />
    <glyph glyph-name="germandbls" unicode="&#xdf;" horiz-adv-x="580" 
d="M291 740v-123q-42 0 -66 -25t-24 -72v-13h326v-102l-110 -181q73 -16 118 -76q46 -58 46 -135q0 -110 -61.5 -171.5t-175.5 -61.5q-48 0 -86 8l2 131q38 -11 72 -11q50 0 79.5 26.5t29.5 76.5q0 48 -32.5 75t-89.5 27h-47v94l108 182h-179v-389h-138v517q0 223 228 223z
" />
    <glyph glyph-name="agrave" unicode="&#xe0;" horiz-adv-x="516" 
d="M257 518q94 0 147.5 -47.5t53.5 -137.5v-333h-111l-8 62q-48 -73 -145 -73q-69 0 -111.5 40t-42.5 106q0 67 40 103t117 49l131 24v19q0 77 -71 77q-33 0 -54.5 -18.5t-21.5 -48.5h-126q5 80 60 129t142 49zM328 209v15l-101 -21q-57 -13 -57 -57q0 -23 15.5 -36.5
t43.5 -13.5q53 0 81 46q18 28 18 67zM55 732h159l106 -158h-111z" />
    <glyph glyph-name="aacute" unicode="&#xe1;" horiz-adv-x="516" 
d="M257 518q94 0 147.5 -47.5t53.5 -137.5v-333h-111l-8 62q-48 -73 -145 -73q-69 0 -111.5 40t-42.5 106q0 67 40 103t117 49l131 24v19q0 77 -71 77q-33 0 -54.5 -18.5t-21.5 -48.5h-126q5 80 60 129t142 49zM328 209v15l-101 -21q-57 -13 -57 -57q0 -23 15.5 -36.5
t43.5 -13.5q53 0 81 46q18 28 18 67zM302 732h159l-154 -158h-111z" />
    <glyph glyph-name="acircumflex" unicode="&#xe2;" horiz-adv-x="516" 
d="M257 518q94 0 147.5 -47.5t53.5 -137.5v-333h-111l-8 62q-48 -73 -145 -73q-69 0 -111.5 40t-42.5 106q0 67 40 103t117 49l131 24v19q0 77 -71 77q-33 0 -54.5 -18.5t-21.5 -48.5h-126q5 80 60 129t142 49zM328 209v15l-101 -21q-57 -13 -57 -57q0 -23 15.5 -36.5
t43.5 -13.5q53 0 81 46q18 28 18 67zM213 732h96l140 -158h-132l-56 78l-56 -78h-131z" />
    <glyph glyph-name="atilde" unicode="&#xe3;" horiz-adv-x="516" 
d="M257 518q94 0 147.5 -47.5t53.5 -137.5v-333h-111l-8 62q-48 -73 -145 -73q-69 0 -111.5 40t-42.5 106q0 67 40 103t117 49l131 24v19q0 77 -71 77q-33 0 -54.5 -18.5t-21.5 -48.5h-126q5 80 60 129t142 49zM328 209v15l-101 -21q-57 -13 -57 -57q0 -23 15.5 -36.5
t43.5 -13.5q53 0 81 46q18 28 18 67zM199 721q54 0 79 -33t51 -33q33 0 33 57h77q0 -67 -28 -105t-83 -38q-54 0 -79 33q-24 34 -51 34q-34 0 -34 -58h-76q0 68 28 105.5t83 37.5z" />
    <glyph glyph-name="adieresis" unicode="&#xe4;" horiz-adv-x="516" 
d="M257 518q94 0 147.5 -47.5t53.5 -137.5v-333h-111l-8 62q-48 -73 -145 -73q-69 0 -111.5 40t-42.5 106q0 67 40 103t117 49l131 24v19q0 77 -71 77q-33 0 -54.5 -18.5t-21.5 -48.5h-126q5 80 60 129t142 49zM328 209v15l-101 -21q-57 -13 -57 -57q0 -23 15.5 -36.5
t43.5 -13.5q53 0 81 46q18 28 18 67zM159 712q30 0 50.5 -20t20.5 -50t-20.5 -50t-50.5 -20q-31 0 -51.5 20t-20.5 50t20.5 50t51.5 20zM313 692q21 20 51 20t51 -20t21 -50t-21 -50t-51 -20t-51 20q-20 20 -20 50t20 50z" />
    <glyph glyph-name="aring" unicode="&#xe5;" horiz-adv-x="516" 
d="M257 518q94 0 147.5 -47.5t53.5 -137.5v-333h-111l-8 62q-48 -73 -145 -73q-69 0 -111.5 40t-42.5 106q0 67 40 103t117 49l131 24v19q0 77 -71 77q-33 0 -54.5 -18.5t-21.5 -48.5h-126q5 80 60 129t142 49zM328 209v15l-101 -21q-57 -13 -57 -57q0 -23 15.5 -36.5
t43.5 -13.5q53 0 81 46q18 28 18 67zM262 772q50 0 81 -31.5t31 -79.5q0 -46 -32 -77t-80 -31t-80 31t-32 77q0 48 31.5 79.5t80.5 31.5zM262 709q-19 0 -32 -13.5t-13 -33.5q0 -18 13 -31.5t32 -13.5q20 0 32.5 13t12.5 32q0 20 -12.5 33.5t-32.5 13.5z" />
    <glyph glyph-name="ae" unicode="&#xe6;" horiz-adv-x="854" 
d="M580 518q108 0 171.5 -68.5t63.5 -195.5v-40h-353q3 -51 36 -82.5t86 -31.5q79 0 102 59h126q-50 -170 -232 -170q-128 0 -199 92q-68 -92 -180 -92q-74 0 -117.5 39t-43.5 106q0 126 157 153l131 24v16q0 80 -72 80q-33 0 -54 -18.5t-21 -48.5h-126q4 79 59 129
q53 49 142 49q104 0 158 -59q70 59 166 59zM463 304h221q-1 48 -30 77t-77 29q-47 0 -78 -29t-36 -77zM328 202v22l-97 -20q-61 -13 -61 -58q0 -23 15.5 -36.5t43.5 -13.5q52 0 81 44q18 29 18 62z" />
    <glyph glyph-name="ccedilla" unicode="&#xe7;" horiz-adv-x="557" 
d="M287 518q95 0 157.5 -49.5t76.5 -140.5h-126q-11 34 -39 53t-66 19q-54 0 -88 -42q-35 -41 -35 -105q0 -63 35.5 -104t90.5 -41q38 0 66 20t37 51h127q-15 -83 -71 -132t-138 -57l-9 -41q40 -2 63.5 -24t23.5 -60q0 -44 -30.5 -69.5t-80.5 -25.5q-57 0 -92 32l39 56
q20 -23 51 -23q35 0 35 29q0 30 -36 30q-9 0 -27 -5l-18 6l21 96q-98 11 -160 82q-61 71 -61 180q0 114 71 190q72 75 183 75z" />
    <glyph glyph-name="egrave" unicode="&#xe8;" horiz-adv-x="559" 
d="M285 518q108 0 171.5 -68.5t63.5 -195.5v-40h-353q3 -51 36 -82.5t86 -31.5q79 0 102 59h126q-50 -170 -232 -170q-113 0 -183 72q-69 73 -69 192q0 117 70 190q71 75 182 75zM74 732h159l106 -158h-111zM168 304h221q-1 48 -30 77t-77 29q-47 0 -78 -29t-36 -77z" />
    <glyph glyph-name="eacute" unicode="&#xe9;" horiz-adv-x="559" 
d="M285 518q108 0 171.5 -68.5t63.5 -195.5v-40h-353q3 -51 36 -82.5t86 -31.5q79 0 102 59h126q-50 -170 -232 -170q-113 0 -183 72q-69 73 -69 192q0 117 70 190q71 75 182 75zM321 732h159l-154 -158h-111zM168 304h221q-1 48 -30 77t-77 29q-47 0 -78 -29t-36 -77z" />
    <glyph glyph-name="ecircumflex" unicode="&#xea;" horiz-adv-x="559" 
d="M285 518q108 0 171.5 -68.5t63.5 -195.5v-40h-353q3 -51 36 -82.5t86 -31.5q79 0 102 59h126q-50 -170 -232 -170q-113 0 -183 72q-69 73 -69 192q0 117 70 190q71 75 182 75zM232 732h96l140 -158h-132l-56 78l-56 -78h-131zM168 304h221q-1 48 -30 77t-77 29
q-47 0 -78 -29t-36 -77z" />
    <glyph glyph-name="edieresis" unicode="&#xeb;" horiz-adv-x="559" 
d="M285 518q108 0 171.5 -68.5t63.5 -195.5v-40h-353q3 -51 36 -82.5t86 -31.5q79 0 102 59h126q-50 -170 -232 -170q-113 0 -183 72q-69 73 -69 192q0 117 70 190q71 75 182 75zM168 304h221q-1 48 -30 77t-77 29q-47 0 -78 -29t-36 -77zM180 712q30 0 50.5 -20t20.5 -50
t-20.5 -50t-50.5 -20q-31 0 -51.5 20t-20.5 50t20.5 50t51.5 20zM334 692q21 20 51 20t51 -20t21 -50t-21 -50t-51 -20t-51 20q-20 20 -20 50t20 50z" />
    <glyph glyph-name="igrave" unicode="&#xec;" 
d="M70 507h130v-507h-130v507zM-71 732h159l106 -158h-111z" />
    <glyph glyph-name="iacute" unicode="&#xed;" 
d="M70 507h130v-507h-130v507zM175 732h159l-154 -158h-111z" />
    <glyph glyph-name="icircumflex" unicode="&#xee;" 
d="M70 507h130v-507h-130v507zM87 732h96l140 -158h-132l-56 78l-56 -78h-131z" />
    <glyph glyph-name="idieresis" unicode="&#xef;" 
d="M33 712q30 0 50.5 -20t20.5 -50t-20.5 -50t-50.5 -20q-31 0 -51.5 20t-20.5 50t20.5 50t51.5 20zM187 692q21 20 51 20t51 -20t21 -50t-21 -50t-51 -20t-51 20q-20 20 -20 50t20 50zM70 507h130v-507h-130v507z" />
    <glyph glyph-name="eth" unicode="&#xf0;" horiz-adv-x="572" 
d="M304 631h145v-94h-76l105 -143q58 -80 58 -161q0 -108 -71 -176t-179 -68t-179 68q-70 67 -70 176q0 100 62 167q63 68 162 75l-45 62h-151v94h81l-73 99h158zM375 322l-3 4q-33 35 -86 35t-86 -36q-32 -35 -32 -92t32.5 -93t85.5 -36q52 0 85.5 36.5t33.5 92.5
q0 49 -30 89z" />
    <glyph glyph-name="ntilde" unicode="&#xf1;" horiz-adv-x="562" 
d="M222 721q54 0 79 -33t51 -33q33 0 33 57h77q0 -67 -28 -105t-83 -38q-54 0 -79 33q-24 34 -51 34q-34 0 -34 -58h-76q0 68 28 105.5t83 37.5zM327 518q79 0 121.5 -50t42.5 -139v-329h-131v301q0 91 -72 91q-41 0 -65.5 -32.5t-24.5 -91.5v-268h-129v507h111l10 -66
q41 77 137 77z" />
    <glyph glyph-name="ograve" unicode="&#xf2;" horiz-adv-x="598" 
d="M298 518q115 0 191 -74q76 -73 76 -190q0 -118 -76 -191q-76 -74 -191 -74q-114 0 -190 74q-75 73 -75 191q0 116 75 190q76 74 190 74zM299 400q-57 0 -95 -42q-37 -40 -37 -104t37 -105q38 -41 95 -41t94 41.5t37 104.5q0 64 -36 105t-95 41zM92 732h159l106 -158h-111
z" />
    <glyph glyph-name="oacute" unicode="&#xf3;" horiz-adv-x="598" 
d="M298 518q115 0 191 -74q76 -73 76 -190q0 -118 -76 -191q-76 -74 -191 -74q-114 0 -190 74q-75 73 -75 191q0 116 75 190q76 74 190 74zM299 400q-57 0 -95 -42q-37 -40 -37 -104t37 -105q38 -41 95 -41t94 41.5t37 104.5q0 64 -36 105t-95 41zM339 732h159l-154 -158
h-111z" />
    <glyph glyph-name="ocircumflex" unicode="&#xf4;" horiz-adv-x="598" 
d="M298 518q115 0 191 -74q76 -73 76 -190q0 -118 -76 -191q-76 -74 -191 -74q-114 0 -190 74q-75 73 -75 191q0 116 75 190q76 74 190 74zM299 400q-57 0 -95 -42q-37 -40 -37 -104t37 -105q38 -41 95 -41t94 41.5t37 104.5q0 64 -36 105t-95 41zM250 732h96l140 -158h-132
l-56 78l-56 -78h-131z" />
    <glyph glyph-name="otilde" unicode="&#xf5;" horiz-adv-x="598" 
d="M235 721q54 0 79 -33t51 -33q33 0 33 57h77q0 -67 -28 -105t-83 -38q-54 0 -79 33q-24 34 -51 34q-34 0 -34 -58h-76q0 68 28 105.5t83 37.5zM298 518q115 0 191 -74q76 -73 76 -190q0 -118 -76 -191q-76 -74 -191 -74q-114 0 -190 74q-75 73 -75 191q0 116 75 190
q76 74 190 74zM299 400q-57 0 -95 -42q-37 -40 -37 -104t37 -105q38 -41 95 -41t94 41.5t37 104.5q0 64 -36 105t-95 41z" />
    <glyph glyph-name="odieresis" unicode="&#xf6;" horiz-adv-x="598" 
d="M298 518q115 0 191 -74q76 -73 76 -190q0 -118 -76 -191q-76 -74 -191 -74q-114 0 -190 74q-75 73 -75 191q0 116 75 190q76 74 190 74zM299 400q-57 0 -95 -42q-37 -40 -37 -104t37 -105q38 -41 95 -41t94 41.5t37 104.5q0 64 -36 105t-95 41zM196 712q30 0 50.5 -20
t20.5 -50t-20.5 -50t-50.5 -20q-31 0 -51.5 20t-20.5 50t20.5 50t51.5 20zM350 692q21 20 51 20t51 -20t21 -50t-21 -50t-51 -20t-51 20q-20 20 -20 50t20 50z" />
    <glyph glyph-name="divide" unicode="&#xf7;" horiz-adv-x="472" 
d="M173 596q23 22 56 22t56 -22t23 -55t-23 -55t-56 -22t-56 22q-22 22 -22 55t22 55zM173 213q23 22 56 22t56 -22t23 -55t-23 -55t-56 -22t-56 22q-22 22 -22 55t22 55zM30 407h412v-115h-412v115z" />
    <glyph glyph-name="oslash" unicode="&#xf8;" horiz-adv-x="598" 
d="M298 518q49 0 96 -16l45 84l62 -30l-45 -84q109 -75 109 -218q0 -118 -76 -191q-76 -74 -191 -74q-46 0 -93 14l-44 -83l-63 29l45 85q-110 74 -110 220q0 116 75 190q76 74 190 74zM299 400q-58 0 -95 -41.5t-37 -104.5q0 -64 38 -105l131 246q-20 5 -37 5zM430 254
q0 62 -35 103l-131 -245q13 -4 35 -4q57 0 94 41.5t37 104.5z" />
    <glyph glyph-name="ugrave" unicode="&#xf9;" horiz-adv-x="549" 
d="M351 507h129v-507h-111l-10 66q-41 -77 -134 -77q-79 0 -121 50t-42 139v329h130v-300q0 -92 72 -92q39 0 63 31t24 89v272zM68 732h159l106 -158h-111z" />
    <glyph glyph-name="uacute" unicode="&#xfa;" horiz-adv-x="549" 
d="M351 507h129v-507h-111l-10 66q-41 -77 -134 -77q-79 0 -121 50t-42 139v329h130v-300q0 -92 72 -92q39 0 63 31t24 89v272zM315 732h159l-154 -158h-111z" />
    <glyph glyph-name="ucircumflex" unicode="&#xfb;" horiz-adv-x="549" 
d="M351 507h129v-507h-111l-10 66q-41 -77 -134 -77q-79 0 -121 50t-42 139v329h130v-300q0 -92 72 -92q39 0 63 31t24 89v272zM222 732h96l140 -158h-132l-56 78l-56 -78h-131z" />
    <glyph glyph-name="udieresis" unicode="&#xfc;" horiz-adv-x="549" 
d="M351 507h129v-507h-111l-10 66q-41 -77 -134 -77q-79 0 -121 50t-42 139v329h130v-300q0 -92 72 -92q39 0 63 31t24 89v272zM169 712q30 0 50.5 -20t20.5 -50t-20.5 -50t-50.5 -20q-31 0 -51.5 20t-20.5 50t20.5 50t51.5 20zM323 692q21 20 51 20t51 -20t21 -50t-21 -50
t-51 -20t-51 20q-20 20 -20 50t20 50z" />
    <glyph glyph-name="yacute" unicode="&#xfd;" horiz-adv-x="521" 
d="M367 507h141l-261 -722h-135l77 221l-180 501h140l99 -311l10 -44l10 44zM298 732h159l-154 -158h-111z" />
    <glyph glyph-name="thorn" unicode="&#xfe;" horiz-adv-x="624" 
d="M72 730h130v-278q48 66 152 66q102 0 169 -76t67 -188t-68 -189q-67 -76 -168 -76q-104 0 -152 67v-271h-130v945zM328 396q-54 0 -91 -36t-38 -96v-18q0 -61 37.5 -98t90.5 -37q55 0 91.5 40t36.5 103q0 62 -36 102t-91 40z" />
    <glyph glyph-name="ydieresis" unicode="&#xff;" horiz-adv-x="521" 
d="M367 507h141l-261 -722h-135l77 221l-180 501h140l99 -311l10 -44l10 44zM155 712q30 0 50.5 -20t20.5 -50t-20.5 -50t-50.5 -20q-31 0 -51.5 20t-20.5 50t20.5 50t51.5 20zM309 692q21 20 51 20t51 -20t21 -50t-21 -50t-51 -20t-51 20q-20 20 -20 50t20 50z" />
    <glyph glyph-name="Amacron" unicode="&#x100;" horiz-adv-x="723" 
d="M286 700h151l271 -700h-149l-58 155h-279l-58 -155h-149zM374 494l-13 39l-13 -39l-83 -219h192zM221 835h279v-97h-279v97z" />
    <glyph glyph-name="amacron" unicode="&#x101;" horiz-adv-x="516" 
d="M257 518q94 0 147.5 -47.5t53.5 -137.5v-333h-111l-8 62q-48 -73 -145 -73q-69 0 -111.5 40t-42.5 106q0 67 40 103t117 49l131 24v19q0 77 -71 77q-33 0 -54.5 -18.5t-21.5 -48.5h-126q5 80 60 129t142 49zM328 209v15l-101 -21q-57 -13 -57 -57q0 -23 15.5 -36.5
t43.5 -13.5q53 0 81 46q18 28 18 67zM124 685h279v-97h-279v97z" />
    <glyph glyph-name="Abreve" unicode="&#x102;" horiz-adv-x="723" 
d="M286 700h151l271 -700h-149l-58 155h-279l-58 -155h-149zM374 494l-13 39l-13 -39l-83 -219h192zM417 868h104q0 -63 -44.5 -101.5t-116.5 -38.5q-70 0 -114.5 39t-44.5 101h103q0 -25 15 -40t42 -15q26 0 41 15t15 40z" />
    <glyph glyph-name="abreve" unicode="&#x103;" horiz-adv-x="516" 
d="M257 518q94 0 147.5 -47.5t53.5 -137.5v-333h-111l-8 62q-48 -73 -145 -73q-69 0 -111.5 40t-42.5 106q0 67 40 103t117 49l131 24v19q0 77 -71 77q-33 0 -54.5 -18.5t-21.5 -48.5h-126q5 80 60 129t142 49zM328 209v15l-101 -21q-57 -13 -57 -57q0 -23 15.5 -36.5
t43.5 -13.5q53 0 81 46q18 28 18 67zM319 714h103q0 -66 -45 -110q-45 -42 -116 -42q-69 0 -114 42q-45 44 -45 110h103q0 -31 15 -49.5t42 -18.5q26 0 41.5 19t15.5 49z" />
    <glyph glyph-name="Aogonek" unicode="&#x104;" horiz-adv-x="723" 
d="M286 700h151l271 -700h-43q-71 -29 -71 -87q0 -51 50 -51q22 0 40 9l15 -63q-21 -12 -60 -12q-57 0 -91.5 30.5t-34.5 83.5q0 58 44 94l-56 151h-279l-58 -155h-149zM374 494l-13 39l-13 -39l-83 -219h192z" />
    <glyph glyph-name="aogonek" unicode="&#x105;" horiz-adv-x="516" 
d="M257 518q94 0 147.5 -47.5t53.5 -137.5v-333h-11q-71 -29 -71 -87q0 -51 50 -51q22 0 40 9l15 -63q-21 -12 -60 -12q-57 0 -91.5 30.5t-34.5 83.5q0 61 51 98l-7 54q-48 -73 -145 -73q-69 0 -111.5 40t-42.5 106q0 67 40 103t117 49l131 24v19q0 77 -71 77
q-33 0 -54.5 -18.5t-21.5 -48.5h-126q5 80 60 129t142 49zM328 209v15l-101 -21q-57 -13 -57 -57q0 -23 15.5 -36.5t43.5 -13.5q53 0 81 46q18 28 18 67z" />
    <glyph glyph-name="Cacute" unicode="&#x106;" horiz-adv-x="737" 
d="M387 713q127 0 209 -63t112 -176h-151q-41 111 -170 111q-91 0 -150 -66q-57 -66 -57 -168q0 -103 57 -170q59 -66 151 -66q138 0 178 117h145q-30 -118 -111.5 -181.5t-211.5 -63.5q-154 0 -253 103q-98 104 -98 261q0 156 98 259q99 103 252 103zM400 864h179
l-143 -120h-129z" />
    <glyph glyph-name="cacute" unicode="&#x107;" horiz-adv-x="557" 
d="M287 518q95 0 157.5 -49.5t76.5 -140.5h-126q-11 34 -39 53t-66 19q-54 0 -88 -42q-35 -41 -35 -105q0 -63 35.5 -104t90.5 -41q38 0 66 20t37 51h127q-18 -91 -81 -140.5t-155 -49.5q-113 0 -183 73q-71 74 -71 191q0 114 71 190q72 75 183 75zM327 732h159l-154 -158
h-111z" />
    <glyph glyph-name="Ccircumflex" unicode="&#x108;" horiz-adv-x="737" 
d="M387 713q127 0 209 -63t112 -176h-151q-41 111 -170 111q-91 0 -150 -66q-57 -66 -57 -168q0 -103 57 -170q59 -66 151 -66q138 0 178 117h145q-30 -118 -111.5 -181.5t-211.5 -63.5q-154 0 -253 103q-98 104 -98 261q0 156 98 259q99 103 252 103zM350 870h73l154 -127
h-140l-51 51l-51 -51h-139z" />
    <glyph glyph-name="ccircumflex" unicode="&#x109;" horiz-adv-x="557" 
d="M287 518q95 0 157.5 -49.5t76.5 -140.5h-126q-11 34 -39 53t-66 19q-54 0 -88 -42q-35 -41 -35 -105q0 -63 35.5 -104t90.5 -41q38 0 66 20t37 51h127q-18 -91 -81 -140.5t-155 -49.5q-113 0 -183 73q-71 74 -71 191q0 114 71 190q72 75 183 75zM238 732h96l140 -158
h-132l-56 78l-56 -78h-131z" />
    <glyph glyph-name="Cdotaccent" unicode="&#x10a;" horiz-adv-x="737" 
d="M387 713q127 0 209 -63t112 -176h-151q-41 111 -170 111q-91 0 -150 -66q-57 -66 -57 -168q0 -103 57 -170q59 -66 151 -66q138 0 178 117h145q-30 -118 -111.5 -181.5t-211.5 -63.5q-154 0 -253 103q-98 104 -98 261q0 156 98 259q99 103 252 103zM387 883
q30 0 51.5 -20.5t21.5 -50.5t-21.5 -51t-51.5 -21q-32 0 -53 20.5t-21 51.5q0 30 21.5 50.5t52.5 20.5z" />
    <glyph glyph-name="cdotaccent" unicode="&#x10b;" horiz-adv-x="557" 
d="M287 518q95 0 157.5 -49.5t76.5 -140.5h-126q-11 34 -39 53t-66 19q-54 0 -88 -42q-35 -41 -35 -105q0 -63 35.5 -104t90.5 -41q38 0 66 20t37 51h127q-18 -91 -81 -140.5t-155 -49.5q-113 0 -183 73q-71 74 -71 191q0 114 71 190q72 75 183 75zM230 704q23 22 56 22
t56 -22q24 -22 24 -55t-24 -55q-23 -22 -56 -22t-56 22q-22 22 -22 55t22 55z" />
    <glyph glyph-name="Ccaron" unicode="&#x10c;" horiz-adv-x="737" 
d="M387 713q127 0 209 -63t112 -176h-151q-41 111 -170 111q-91 0 -150 -66q-57 -66 -57 -168q0 -103 57 -170q59 -66 151 -66q138 0 178 117h145q-30 -118 -111.5 -181.5t-211.5 -63.5q-154 0 -253 103q-98 104 -98 261q0 156 98 259q99 103 252 103zM437 867h140
l-154 -127h-73l-154 127h139l51 -51z" />
    <glyph glyph-name="ccaron" unicode="&#x10d;" horiz-adv-x="557" 
d="M287 518q95 0 157.5 -49.5t76.5 -140.5h-126q-11 34 -39 53t-66 19q-54 0 -88 -42q-35 -41 -35 -105q0 -63 35.5 -104t90.5 -41q38 0 66 20t37 51h127q-18 -91 -81 -140.5t-155 -49.5q-113 0 -183 73q-71 74 -71 191q0 114 71 190q72 75 183 75zM342 722h132l-140 -158
h-96l-139 158h131l56 -79z" />
    <glyph glyph-name="Dcaron" unicode="&#x10e;" horiz-adv-x="733" 
d="M71 700h262q166 0 263 -97q99 -97 99 -253t-99 -253q-97 -97 -263 -97h-262v700zM333 572h-125v-444h125q104 0 161.5 58t57.5 164q0 105 -57 163.5t-162 58.5zM383 857h140l-154 -127h-73l-154 127h139l51 -51z" />
    <glyph glyph-name="dcaron" unicode="&#x10f;" horiz-adv-x="775" 
d="M421 730h130v-730h-112l-10 68q-54 -79 -161 -79q-101 0 -168 76t-67 189q0 112 67 188t169 76t152 -66v278zM295 396q-55 0 -91.5 -40t-36.5 -102q0 -63 36.5 -103t91.5 -40q53 0 90 37q38 38 38 103v6q-1 63 -39 101t-89 38zM688 737q34 0 56 -23.5t22 -61.5
q0 -47 -23 -99t-60 -93l-37 13q24 51 31 114q-30 4 -48.5 24t-18.5 49q0 32 23 54.5t55 22.5z" />
    <glyph glyph-name="Dcroat" unicode="&#x110;" horiz-adv-x="743" 
d="M80 700h262q166 0 263 -97q99 -97 99 -253t-99 -253q-97 -97 -263 -97h-262v313h-74v97h74v290zM342 572h-125v-162h99v-97h-99v-185h125q104 0 161.5 58t57.5 164q0 105 -57 163.5t-162 58.5z" />
    <glyph glyph-name="dslash" unicode="&#x111;" horiz-adv-x="624" 
d="M421 730h130v-46h68v-96h-68v-588h-112l-10 68q-54 -79 -161 -79q-101 0 -168 76t-67 189q0 112 67 188t169 76t152 -66v136h-88v96h88v46zM295 396q-55 0 -91.5 -40t-36.5 -102q0 -63 36.5 -103t91.5 -40q53 0 90 37q38 38 38 103v6q-1 63 -39 101t-89 38z" />
    <glyph glyph-name="Emacron" unicode="&#x112;" horiz-adv-x="519" 
d="M71 700h403v-128h-266v-148h230v-129h-230v-167h266v-128h-403v700zM140 835h279v-97h-279v97z" />
    <glyph glyph-name="emacron" unicode="&#x113;" horiz-adv-x="559" 
d="M285 518q108 0 171.5 -68.5t63.5 -195.5v-40h-353q3 -51 36 -82.5t86 -31.5q79 0 102 59h126q-50 -170 -232 -170q-113 0 -183 72q-69 73 -69 192q0 117 70 190q71 75 182 75zM141 685h279v-97h-279v97zM168 304h221q-1 48 -30 77t-77 29q-47 0 -78 -29t-36 -77z" />
    <glyph glyph-name="Ebreve" unicode="&#x114;" horiz-adv-x="519" 
d="M71 700h403v-128h-266v-148h230v-129h-230v-167h266v-128h-403v700zM336 868h104q0 -63 -44.5 -101.5t-116.5 -38.5q-70 0 -114.5 39t-44.5 101h103q0 -25 15 -40t42 -15q26 0 41 15t15 40z" />
    <glyph glyph-name="ebreve" unicode="&#x115;" horiz-adv-x="559" 
d="M285 518q108 0 171.5 -68.5t63.5 -195.5v-40h-353q3 -51 36 -82.5t86 -31.5q79 0 102 59h126q-50 -170 -232 -170q-113 0 -183 72q-69 73 -69 192q0 117 70 190q71 75 182 75zM338 714h103q0 -66 -45 -110q-45 -42 -116 -42q-69 0 -114 42q-45 44 -45 110h103
q0 -31 15 -49.5t42 -18.5q26 0 41.5 19t15.5 49zM168 304h221q-1 48 -30 77t-77 29q-47 0 -78 -29t-36 -77z" />
    <glyph glyph-name="Edotaccent" unicode="&#x116;" horiz-adv-x="519" 
d="M71 700h403v-128h-266v-148h230v-129h-230v-167h266v-128h-403v700zM282 873q30 0 51.5 -20.5t21.5 -50.5t-21.5 -51t-51.5 -21q-32 0 -53 20.5t-21 51.5q0 30 21.5 50.5t52.5 20.5z" />
    <glyph glyph-name="edotaccent" unicode="&#x117;" horiz-adv-x="559" 
d="M285 518q108 0 171.5 -68.5t63.5 -195.5v-40h-353q3 -51 36 -82.5t86 -31.5q79 0 102 59h126q-50 -170 -232 -170q-113 0 -183 72q-69 73 -69 192q0 117 70 190q71 75 182 75zM224 704q23 22 56 22t56 -22q24 -22 24 -55t-24 -55q-23 -22 -56 -22t-56 22q-22 22 -22 55
t22 55zM168 304h221q-1 48 -30 77t-77 29q-47 0 -78 -29t-36 -77z" />
    <glyph glyph-name="Eogonek" unicode="&#x118;" horiz-adv-x="519" 
d="M71 700h403v-128h-266v-148h230v-129h-230v-167h266v-128h-13q-71 -29 -71 -87q0 -51 50 -51q22 0 40 9l15 -63q-21 -12 -60 -12q-57 0 -91.5 30.5t-34.5 83.5q0 56 40 90h-278v700z" />
    <glyph glyph-name="eogonek" unicode="&#x119;" horiz-adv-x="559" 
d="M285 518q108 0 171.5 -68.5t63.5 -195.5v-40h-353q3 -51 36 -82.5t86 -31.5q79 0 102 59h126q-31 -109 -125 -150q-33 -25 -33 -66q0 -51 50 -51q22 0 40 9l15 -63q-21 -12 -60 -12q-57 0 -91.5 30.5t-34.5 83.5q0 30 10 49h-3q-113 0 -183 72q-69 73 -69 192
q0 117 70 190q71 75 182 75zM168 304h221q-1 48 -30 77t-77 29q-47 0 -78 -29t-36 -77z" />
    <glyph glyph-name="Ecaron" unicode="&#x11a;" horiz-adv-x="519" 
d="M71 700h403v-128h-266v-148h230v-129h-230v-167h266v-128h-403v700zM328 857h140l-154 -127h-73l-154 127h139l51 -51z" />
    <glyph glyph-name="ecaron" unicode="&#x11b;" horiz-adv-x="559" 
d="M285 518q108 0 171.5 -68.5t63.5 -195.5v-40h-353q3 -51 36 -82.5t86 -31.5q79 0 102 59h126q-50 -170 -232 -170q-113 0 -183 72q-69 73 -69 192q0 117 70 190q71 75 182 75zM336 722h132l-140 -158h-96l-139 158h131l56 -79zM168 304h221q-1 48 -30 77t-77 29
q-47 0 -78 -29t-36 -77z" />
    <glyph glyph-name="Gcircumflex" unicode="&#x11c;" horiz-adv-x="764" 
d="M387 713q127 0 209 -63t112 -176h-151q-41 111 -173 111q-90 0 -147 -66t-57 -168q0 -103 58 -170q58 -66 152 -66q77 0 124 35.5t52 99.5h-167v128h314v-61q0 -154 -89 -243q-88 -87 -234 -87q-155 0 -254 103q-99 104 -99 261q0 156 98 259q99 103 252 103zM350 870h73
l154 -127h-140l-51 51l-51 -51h-139z" />
    <glyph glyph-name="gcircumflex" unicode="&#x11d;" horiz-adv-x="524" 
d="M330 507h192v-110h-75q10 -29 10 -59q0 -77 -56 -127q-55 -49 -144 -49q-49 0 -84 13q-12 -15 -12 -37q0 -42 51 -42h119q79 0 122.5 -37.5t43.5 -108.5q0 -83 -60 -129.5t-164 -46.5q-113 0 -171.5 40.5t-58.5 115.5q0 56 51 89q-59 41 -59 109q0 64 52 107
q-35 46 -35 103q0 80 58 129q58 51 147 51q37 0 73 -11zM213 732h96l140 -158h-132l-56 78l-56 -78h-131zM298 -2h-76q-24 -3 -38 -18.5t-14 -39.5q0 -33 27.5 -51t76.5 -18q96 0 96 71q0 56 -72 56zM180 338q0 -35 21 -57.5t55 -22.5t54.5 22.5t20.5 57.5q0 37 -20.5 59.5
t-54.5 22.5t-55 -22.5t-21 -59.5z" />
    <glyph glyph-name="Gbreve" unicode="&#x11e;" horiz-adv-x="764" 
d="M387 713q127 0 209 -63t112 -176h-151q-41 111 -173 111q-90 0 -147 -66t-57 -168q0 -103 58 -170q58 -66 152 -66q77 0 124 35.5t52 99.5h-167v128h314v-61q0 -154 -89 -243q-88 -87 -234 -87q-155 0 -254 103q-99 104 -99 261q0 156 98 259q99 103 252 103zM443 878
h104q0 -63 -44.5 -101.5t-116.5 -38.5q-70 0 -114.5 39t-44.5 101h103q0 -25 15 -40t42 -15q26 0 41 15t15 40z" />
    <glyph glyph-name="gbreve" unicode="&#x11f;" horiz-adv-x="524" 
d="M330 507h192v-110h-75q10 -29 10 -59q0 -77 -56 -127q-55 -49 -144 -49q-49 0 -84 13q-12 -15 -12 -37q0 -42 51 -42h119q79 0 122.5 -37.5t43.5 -108.5q0 -83 -60 -129.5t-164 -46.5q-113 0 -171.5 40.5t-58.5 115.5q0 56 51 89q-59 41 -59 109q0 64 52 107
q-35 46 -35 103q0 80 58 129q58 51 147 51q37 0 73 -11zM319 714h103q0 -66 -45 -110q-45 -42 -116 -42q-69 0 -114 42q-45 44 -45 110h103q0 -31 15 -49.5t42 -18.5q26 0 41.5 19t15.5 49zM298 -2h-76q-24 -3 -38 -18.5t-14 -39.5q0 -33 27.5 -51t76.5 -18q96 0 96 71
q0 56 -72 56zM180 338q0 -35 21 -57.5t55 -22.5t54.5 22.5t20.5 57.5q0 37 -20.5 59.5t-54.5 22.5t-55 -22.5t-21 -59.5z" />
    <glyph glyph-name="Gdotaccent" unicode="&#x120;" horiz-adv-x="764" 
d="M387 713q127 0 209 -63t112 -176h-151q-41 111 -173 111q-90 0 -147 -66t-57 -168q0 -103 58 -170q58 -66 152 -66q77 0 124 35.5t52 99.5h-167v128h314v-61q0 -154 -89 -243q-88 -87 -234 -87q-155 0 -254 103q-99 104 -99 261q0 156 98 259q99 103 252 103zM387 883
q30 0 51.5 -20.5t21.5 -50.5t-21.5 -51t-51.5 -21q-32 0 -53 20.5t-21 51.5q0 30 21.5 50.5t52.5 20.5z" />
    <glyph glyph-name="gdotaccent" unicode="&#x121;" horiz-adv-x="524" 
d="M330 507h192v-110h-75q10 -29 10 -59q0 -77 -56 -127q-55 -49 -144 -49q-49 0 -84 13q-12 -15 -12 -37q0 -42 51 -42h119q79 0 122.5 -37.5t43.5 -108.5q0 -83 -60 -129.5t-164 -46.5q-113 0 -171.5 40.5t-58.5 115.5q0 56 51 89q-59 41 -59 109q0 64 52 107
q-35 46 -35 103q0 80 58 129q58 51 147 51q37 0 73 -11zM298 -2h-76q-24 -3 -38 -18.5t-14 -39.5q0 -33 27.5 -51t76.5 -18q96 0 96 71q0 56 -72 56zM180 338q0 -35 21 -57.5t55 -22.5t54.5 22.5t20.5 57.5q0 37 -20.5 59.5t-54.5 22.5t-55 -22.5t-21 -59.5zM207 704
q23 22 56 22t56 -22q24 -22 24 -55t-24 -55q-23 -22 -56 -22t-56 22q-22 22 -22 55t22 55z" />
    <glyph glyph-name="Gcommaaccent" unicode="&#x122;" horiz-adv-x="764" 
d="M387 713q127 0 209 -63t112 -176h-151q-41 111 -173 111q-90 0 -147 -66t-57 -168q0 -103 58 -170q58 -66 152 -66q77 0 124 35.5t52 99.5h-167v128h314v-61q0 -154 -89 -243q-88 -87 -234 -87q-155 0 -254 103q-99 104 -99 261q0 156 98 259q99 103 252 103zM388 -44
q34 0 56 -23.5t22 -61.5q0 -43 -23 -90t-60 -85l-36 15q24 43 29 95q-29 4 -47.5 24t-18.5 49q0 32 22.5 54.5t55.5 22.5z" />
    <glyph glyph-name="gcommaaccent" unicode="&#x123;" horiz-adv-x="524" 
d="M330 507h192v-110h-75q10 -29 10 -59q0 -77 -56 -127q-55 -49 -144 -49q-49 0 -84 13q-12 -15 -12 -37q0 -42 51 -42h119q79 0 122.5 -37.5t43.5 -108.5q0 -83 -60 -129.5t-164 -46.5q-113 0 -171.5 40.5t-58.5 115.5q0 56 51 89q-59 41 -59 109q0 64 52 107
q-35 46 -35 103q0 80 58 129q58 51 147 51q37 0 73 -11zM267 843l38 -13q-24 -50 -30 -114q28 -4 46.5 -24t18.5 -49q0 -32 -22.5 -54.5t-54.5 -22.5q-34 0 -56.5 23.5t-22.5 61.5q1 47 23.5 99.5t59.5 92.5zM298 -2h-76q-24 -3 -38 -18.5t-14 -39.5q0 -33 27.5 -51
t76.5 -18q96 0 96 71q0 56 -72 56zM180 338q0 -35 21 -57.5t55 -22.5t54.5 22.5t20.5 57.5q0 37 -20.5 59.5t-54.5 22.5t-55 -22.5t-21 -59.5z" />
    <glyph glyph-name="Hcircumflex" unicode="&#x124;" horiz-adv-x="717" 
d="M508 700h138v-700h-138v298h-300v-298h-137v700h137v-273h300v273zM321 860h73l154 -127h-140l-51 51l-51 -51h-139z" />
    <glyph glyph-name="hcircumflex" unicode="&#x125;" horiz-adv-x="552" 
d="M69 730h129v-276q43 64 129 64q79 0 121.5 -50t42.5 -139v-329h-131v301q0 91 -72 91q-41 0 -65.5 -32.5t-24.5 -91.5v-268h-129v730zM101 886h73l154 -127h-140l-51 51l-51 -51h-139z" />
    <glyph glyph-name="Hbar" unicode="&#x126;" horiz-adv-x="734" 
d="M516 700h138v-80h72v-96h-72v-524h-138v298h-300v-298h-137v524h-70v96h70v80h137v-80h300v80zM216 524v-97h300v97h-300z" />
    <glyph glyph-name="hbar" unicode="&#x127;" horiz-adv-x="557" 
d="M74 730h129v-46h89v-96h-89v-134q43 64 129 64q79 0 121.5 -50t42.5 -139v-329h-131v301q0 91 -72 91q-41 0 -65.5 -32.5t-24.5 -91.5v-268h-129v588h-69v96h69v46z" />
    <glyph glyph-name="Itilde" unicode="&#x128;" horiz-adv-x="279" 
d="M76 874q55 0 79 -32t51 -32q33 0 33 55h77q0 -67 -28 -104t-83 -37q-54 0 -80 32q-24 32 -50 32q-34 0 -34 -55h-76q0 67 28 104t83 37zM71 700h137v-700h-137v700z" />
    <glyph glyph-name="itilde" unicode="&#x129;" 
d="M71 721q54 0 79 -33t51 -33q33 0 33 57h77q0 -67 -28 -105t-83 -38q-54 0 -79 33q-24 34 -51 34q-34 0 -34 -58h-76q0 68 28 105.5t83 37.5zM70 507h130v-507h-130v507z" />
    <glyph glyph-name="Imacron" unicode="&#x12a;" horiz-adv-x="279" 
d="M71 700h137v-700h-137v700zM0 835h279v-97h-279v97z" />
    <glyph glyph-name="imacron" unicode="&#x12b;" 
d="M70 507h130v-507h-130v507zM-5 685h279v-97h-279v97z" />
    <glyph glyph-name="Ibreve" unicode="&#x12c;" horiz-adv-x="279" 
d="M195 868h104q0 -63 -44.5 -101.5t-116.5 -38.5q-70 0 -114.5 39t-44.5 101h103q0 -25 15 -40t42 -15q26 0 41 15t15 40zM71 700h137v-700h-137v700z" />
    <glyph glyph-name="ibreve" unicode="&#x12d;" 
d="M192 714h103q0 -66 -45 -110q-45 -42 -116 -42q-69 0 -114 42q-45 44 -45 110h103q0 -31 15 -49.5t42 -18.5q26 0 41.5 19t15.5 49zM70 507h130v-507h-130v507z" />
    <glyph glyph-name="Iogonek" unicode="&#x12e;" horiz-adv-x="279" 
d="M71 700h137v-700h-37q-71 -29 -71 -87q0 -51 50 -51q22 0 40 9l15 -63q-21 -12 -60 -12q-57 0 -91.5 30.5t-34.5 83.5q0 62 52 99v691z" />
    <glyph glyph-name="iogonek" unicode="&#x12f;" 
d="M70 507h130v-507h-24q-71 -29 -71 -87q0 -51 50 -51q22 0 40 9l15 -63q-21 -12 -60 -12q-57 0 -91.5 30.5t-34.5 83.5q0 59 46 95v502zM135 733q32 0 55.5 -22.5t23.5 -54.5q0 -33 -23 -55t-56 -22t-56 22t-23 55q0 32 23 54.5t56 22.5z" />
    <glyph glyph-name="Idot" unicode="&#x130;" horiz-adv-x="279" 
d="M139 873q30 0 51.5 -20.5t21.5 -50.5t-21.5 -51t-51.5 -21q-32 0 -53 20.5t-21 51.5q0 30 21.5 50.5t52.5 20.5zM71 700h137v-700h-137v700z" />
    <glyph glyph-name="dotlessi" unicode="&#x131;" 
d="M70 507h130v-507h-130v507z" />
    <glyph glyph-name="Jcircumflex" unicode="&#x134;" horiz-adv-x="531" 
d="M331 700h138v-486q0 -109 -55.5 -165t-160.5 -56q-110 0 -167.5 62.5t-60.5 175.5h137q4 -109 91 -109q78 0 78 101v477zM364 860h73l154 -127h-140l-51 51l-51 -51h-139z" />
    <glyph glyph-name="jcircumflex" unicode="&#x135;" 
d="M70 507h130v-530q0 -203 -171 -203q-52 0 -83 10v116q27 -8 58 -8q35 0 50.5 21.5t15.5 67.5v526zM88 732h96l140 -158h-132l-56 78l-56 -78h-131z" />
    <glyph glyph-name="Kcommaaccent" unicode="&#x136;" horiz-adv-x="683" 
d="M457 700h167l-219 -314l264 -386h-165l-193 276l-100 -130v-146h-138v700h138v-355zM348 -34q34 0 56 -23.5t22 -61.5q0 -43 -23 -90t-60 -85l-36 15q24 43 29 95q-29 4 -47.5 24t-18.5 49q0 32 22.5 54.5t55.5 22.5z" />
    <glyph glyph-name="kcommaaccent" unicode="&#x137;" horiz-adv-x="540" 
d="M71 730h130v-428l148 205h155l-149 -213l175 -294h-148l-118 194l-63 -80v-114h-130v730zM286 -34q34 0 56 -23.5t22 -61.5q0 -43 -23 -90t-60 -85l-36 15q24 43 29 95q-29 4 -47.5 24t-18.5 49q0 32 22.5 54.5t55.5 22.5z" />
    <glyph glyph-name="Lacute" unicode="&#x139;" horiz-adv-x="522" 
d="M70 700h138v-572h291v-128h-429v700zM153 854h179l-143 -120h-129z" />
    <glyph glyph-name="lacute" unicode="&#x13a;" 
d="M70 730h130v-730h-130v730zM165 892h179l-143 -120h-129z" />
    <glyph glyph-name="Lcommaaccent" unicode="&#x13b;" horiz-adv-x="522" 
d="M291 -34q34 0 56 -23.5t22 -61.5q0 -43 -23 -90t-60 -85l-36 15q24 43 29 95q-29 4 -47.5 24t-18.5 49q0 32 22.5 54.5t55.5 22.5zM70 700h138v-572h291v-128h-429v700z" />
    <glyph glyph-name="lcommaaccent" unicode="&#x13c;" 
d="M134 -34q34 0 56 -23.5t22 -61.5q0 -43 -23 -90t-60 -85l-36 15q24 43 29 95q-29 4 -47.5 24t-18.5 49q0 32 22.5 54.5t55.5 22.5zM70 730h130v-730h-130v730z" />
    <glyph glyph-name="Lcaron" unicode="&#x13d;" horiz-adv-x="522" 
d="M446 706q34 0 56 -23.5t22 -61.5q0 -47 -23 -99t-60 -93l-37 13q24 51 31 114q-30 4 -48.5 24t-18.5 49q0 32 23 54.5t55 22.5zM70 700h138v-572h291v-128h-429v700z" />
    <glyph glyph-name="lcaron" unicode="&#x13e;" horiz-adv-x="424" 
d="M337 737q34 0 56 -23.5t22 -61.5q0 -47 -23 -99t-60 -93l-37 13q24 51 31 114q-30 4 -48.5 24t-18.5 49q0 32 23 54.5t55 22.5zM70 730h130v-730h-130v730z" />
    <glyph glyph-name="Ldot" unicode="&#x13f;" horiz-adv-x="522" 
d="M70 700h138v-572h291v-128h-429v700zM405 426q33 0 56.5 -23t23.5 -56t-23.5 -56t-56.5 -23q-34 0 -57 22.5t-23 56.5t23 56.5t57 22.5z" />
    <glyph glyph-name="ldot" unicode="&#x140;" horiz-adv-x="456" 
d="M345 338q33 0 56.5 -23t23.5 -56t-23.5 -56t-56.5 -23q-34 0 -57 22.5t-23 56.5t23 56.5t57 22.5zM70 730h130v-730h-130v730z" />
    <glyph glyph-name="Lslash" unicode="&#x141;" horiz-adv-x="541" 
d="M88 700h138v-289l80 29l30 -90l-110 -40v-182h291v-128h-429v260l-71 -25l-30 90l101 36v339z" />
    <glyph glyph-name="lslash" unicode="&#x142;" horiz-adv-x="312" 
d="M90 730h130v-322l71 26l31 -90l-102 -38v-306h-130v258l-70 -25l-30 90l100 37v370z" />
    <glyph glyph-name="Nacute" unicode="&#x143;" horiz-adv-x="731" 
d="M523 700h138v-700h-138l-288 423l-27 46v-469h-137v700h136l287 -424l29 -48v472zM379 854h179l-143 -120h-129z" />
    <glyph glyph-name="nacute" unicode="&#x144;" horiz-adv-x="562" 
d="M327 518q79 0 121.5 -50t42.5 -139v-329h-131v301q0 91 -72 91q-41 0 -65.5 -32.5t-24.5 -91.5v-268h-129v507h111l10 -66q41 77 137 77zM333 732h159l-154 -158h-111z" />
    <glyph glyph-name="Ncommaaccent" unicode="&#x145;" horiz-adv-x="731" 
d="M523 700h138v-700h-138l-288 423l-27 46v-469h-137v700h136l287 -424l29 -48v472zM364 -34q34 0 56 -23.5t22 -61.5q0 -43 -23 -90t-60 -85l-36 15q24 43 29 95q-29 4 -47.5 24t-18.5 49q0 32 22.5 54.5t55.5 22.5z" />
    <glyph glyph-name="ncommaaccent" unicode="&#x146;" horiz-adv-x="562" 
d="M327 518q79 0 121.5 -50t42.5 -139v-329h-131v301q0 91 -72 91q-41 0 -65.5 -32.5t-24.5 -91.5v-268h-129v507h111l10 -66q41 77 137 77zM279 -34q34 0 56 -23.5t22 -61.5q0 -43 -23 -90t-60 -85l-36 15q24 43 29 95q-29 4 -47.5 24t-18.5 49q0 32 22.5 54.5t55.5 22.5z
" />
    <glyph glyph-name="Ncaron" unicode="&#x147;" horiz-adv-x="731" 
d="M523 700h138v-700h-138l-288 423l-27 46v-469h-137v700h136l287 -424l29 -48v472zM416 857h140l-154 -127h-73l-154 127h139l51 -51z" />
    <glyph glyph-name="ncaron" unicode="&#x148;" horiz-adv-x="562" 
d="M327 518q79 0 121.5 -50t42.5 -139v-329h-131v301q0 91 -72 91q-41 0 -65.5 -32.5t-24.5 -91.5v-268h-129v507h111l10 -66q41 77 137 77zM341 722h132l-140 -158h-96l-139 158h131l56 -79z" />
    <glyph glyph-name="Eng" unicode="&#x14a;" horiz-adv-x="731" 
d="M523 700h138v-700q-1 -106 -58.5 -160.5t-165.5 -54.5v122q42 0 64 24t22 68v1l-288 423l-27 46v-469h-137v700h136l287 -424l29 -48v472z" />
    <glyph glyph-name="eng" unicode="&#x14b;" horiz-adv-x="552" 
d="M327 518q79 0 121.5 -50t42.5 -139v-352q0 -102 -55 -152.5t-156 -50.5v118q42 0 61 21.5t19 67.5v320q0 91 -72 91q-41 0 -65.5 -32.5t-24.5 -91.5v-268h-129v507h111l10 -66q41 77 137 77z" />
    <glyph glyph-name="Omacron" unicode="&#x14c;" horiz-adv-x="799" 
d="M400 713q158 0 260 -103q102 -102 102 -259t-102 -261q-102 -103 -260 -103q-159 0 -261 103q-102 104 -102 261t102 259q102 103 261 103zM400 585q-98 0 -160 -66q-60 -66 -60 -168q0 -103 60 -170q62 -66 160 -66t158 66q61 67 61 170t-61 168q-60 66 -158 66z
M260 845h279v-97h-279v97z" />
    <glyph glyph-name="omacron" unicode="&#x14d;" horiz-adv-x="598" 
d="M298 518q115 0 191 -74q76 -73 76 -190q0 -118 -76 -191q-76 -74 -191 -74q-114 0 -190 74q-75 73 -75 191q0 116 75 190q76 74 190 74zM299 400q-57 0 -95 -42q-37 -40 -37 -104t37 -105q38 -41 95 -41t94 41.5t37 104.5q0 64 -36 105t-95 41zM159 685h279v-97h-279v97z
" />
    <glyph glyph-name="Obreve" unicode="&#x14e;" horiz-adv-x="799" 
d="M400 713q158 0 260 -103q102 -102 102 -259t-102 -261q-102 -103 -260 -103q-159 0 -261 103q-102 104 -102 261t102 259q102 103 261 103zM400 585q-98 0 -160 -66q-60 -66 -60 -168q0 -103 60 -170q62 -66 160 -66t158 66q61 67 61 170t-61 168q-60 66 -158 66z
M455 878h104q0 -63 -44.5 -101.5t-116.5 -38.5q-70 0 -114.5 39t-44.5 101h103q0 -25 15 -40t42 -15q26 0 41 15t15 40z" />
    <glyph glyph-name="obreve" unicode="&#x14f;" horiz-adv-x="598" 
d="M298 518q115 0 191 -74q76 -73 76 -190q0 -118 -76 -191q-76 -74 -191 -74q-114 0 -190 74q-75 73 -75 191q0 116 75 190q76 74 190 74zM299 400q-57 0 -95 -42q-37 -40 -37 -104t37 -105q38 -41 95 -41t94 41.5t37 104.5q0 64 -36 105t-95 41zM356 714h103
q0 -66 -45 -110q-45 -42 -116 -42q-69 0 -114 42q-45 44 -45 110h103q0 -31 15 -49.5t42 -18.5q26 0 41.5 19t15.5 49z" />
    <glyph glyph-name="Ohungarumlaut" unicode="&#x150;" horiz-adv-x="799" 
d="M400 713q158 0 260 -103q102 -102 102 -259t-102 -261q-102 -103 -260 -103q-159 0 -261 103q-102 104 -102 261t102 259q102 103 261 103zM400 585q-98 0 -160 -66q-60 -66 -60 -168q0 -103 60 -170q62 -66 160 -66t158 66q61 67 61 170t-61 168q-60 66 -158 66z
M319 869h133l-101 -129h-108zM509 869h133l-101 -129h-108z" />
    <glyph glyph-name="ohungarumlaut" unicode="&#x151;" horiz-adv-x="598" 
d="M298 518q115 0 191 -74q76 -73 76 -190q0 -118 -76 -191q-76 -74 -191 -74q-114 0 -190 74q-75 73 -75 191q0 116 75 190q76 74 190 74zM299 400q-57 0 -95 -42q-37 -40 -37 -104t37 -105q38 -41 95 -41t94 41.5t37 104.5q0 64 -36 105t-95 41zM221 732h133l-106 -158
h-107zM416 732h133l-106 -158h-107z" />
    <glyph glyph-name="OE" unicode="&#x152;" horiz-adv-x="1080" 
d="M625 700h403v-128h-266v-148h230v-129h-230v-167h266v-128h-403v62q-91 -75 -219 -75q-159 0 -262 103q-102 104 -102 261t102 259q103 103 262 103q126 0 219 -75v62zM406 585q-98 0 -160 -66q-60 -65 -60 -168t60 -170q62 -66 160 -66q95 0 155 63q61 64 64 163v10
q0 103 -61 168q-60 66 -158 66z" />
    <glyph glyph-name="oe" unicode="&#x153;" horiz-adv-x="956" 
d="M298 518q122 0 197 -80q72 80 187 80q108 0 171.5 -68.5t63.5 -195.5v-40h-353q3 -51 36 -82.5t86 -31.5q79 0 102 59h126q-50 -170 -232 -170q-119 0 -188 78q-76 -78 -196 -78q-114 0 -190 74q-75 73 -75 191q0 116 75 190q76 74 190 74zM299 400q-58 0 -95 -41.5
t-37 -104.5t37 -104.5t95 -41.5q56 0 92.5 39.5t38.5 100.5v6q0 64 -36 105t-95 41zM565 304h221q-1 48 -30 77t-77 29q-47 0 -78 -29t-36 -77z" />
    <glyph glyph-name="Racute" unicode="&#x154;" horiz-adv-x="580" 
d="M71 700h216q111 0 179 -62q67 -61 67 -161q0 -65 -32 -114.5t-90 -75.5l152 -287h-157l-136 262h-62v-262h-137v700zM287 572h-79v-188h79q49 0 77 24t28 69t-28 70t-77 25zM302 854h179l-143 -120h-129z" />
    <glyph glyph-name="racute" unicode="&#x155;" horiz-adv-x="369" 
d="M343 512v-130q-62 0 -101 -30q-38 -30 -41 -94v-258h-130v507h112l12 -81q32 86 148 86zM249 732h159l-154 -158h-111z" />
    <glyph glyph-name="Rcommaaccent" unicode="&#x156;" horiz-adv-x="580" 
d="M71 700h216q111 0 179 -62q67 -61 67 -161q0 -65 -32 -114.5t-90 -75.5l152 -287h-157l-136 262h-62v-262h-137v700zM287 572h-79v-188h79q49 0 77 24t28 69t-28 70t-77 25zM299 -34q34 0 56 -23.5t22 -61.5q0 -43 -23 -90t-60 -85l-36 15q24 43 29 95q-29 4 -47.5 24
t-18.5 49q0 32 22.5 54.5t55.5 22.5z" />
    <glyph glyph-name="rcommaaccent" unicode="&#x157;" horiz-adv-x="369" 
d="M343 512v-130q-62 0 -101 -30q-38 -30 -41 -94v-258h-130v507h112l12 -81q32 86 148 86zM134 -34q34 0 56 -23.5t22 -61.5q0 -43 -23 -90t-60 -85l-36 15q24 43 29 95q-29 4 -47.5 24t-18.5 49q0 32 22.5 54.5t55.5 22.5z" />
    <glyph glyph-name="Rcaron" unicode="&#x158;" horiz-adv-x="580" 
d="M71 700h216q111 0 179 -62q67 -61 67 -161q0 -65 -32 -114.5t-90 -75.5l152 -287h-157l-136 262h-62v-262h-137v700zM287 572h-79v-188h79q49 0 77 24t28 69t-28 70t-77 25zM331 857h140l-154 -127h-73l-154 127h139l51 -51z" />
    <glyph glyph-name="rcaron" unicode="&#x159;" horiz-adv-x="369" 
d="M343 512v-130q-62 0 -101 -30q-38 -30 -41 -94v-258h-130v507h112l12 -81q32 86 148 86zM264 722h132l-140 -158h-96l-139 158h131l56 -79z" />
    <glyph glyph-name="Sacute" unicode="&#x15a;" horiz-adv-x="549" 
d="M273 713q101 0 159 -54t62 -155h-139q-1 41 -24.5 64t-60.5 23t-58 -19.5t-21 -55.5t26 -56q22 -17 97 -44q110 -37 156 -86.5t46 -130.5q0 -99 -66 -156q-65 -56 -167 -56q-115 0 -179.5 61t-67.5 166h139q4 -106 110 -106q42 0 67 21.5t25 57.5q0 35 -28 58t-96 45
q-105 34 -153 83t-48 131q0 92 59 151q59 58 162 58zM287 864h179l-143 -120h-129z" />
    <glyph glyph-name="sacute" unicode="&#x15b;" horiz-adv-x="460" 
d="M230 518q80 0 131.5 -44t54.5 -116h-129q-1 58 -58 58q-27 0 -41.5 -13.5t-14.5 -36.5q0 -24 19 -36.5t70 -21.5q88 -15 126.5 -52t38.5 -102q0 -79 -54 -122t-142 -43q-91 0 -143.5 44t-54.5 121h128q2 -62 73 -62q63 0 63 48q0 25 -19.5 39t-72.5 24q-83 14 -122.5 51
t-39.5 99q0 71 49 117q50 48 138 48zM270 732h159l-154 -158h-111z" />
    <glyph glyph-name="Scircumflex" unicode="&#x15c;" horiz-adv-x="549" 
d="M273 713q101 0 159 -54t62 -155h-139q-1 41 -24.5 64t-60.5 23t-58 -19.5t-21 -55.5t26 -56q22 -17 97 -44q110 -37 156 -86.5t46 -130.5q0 -99 -66 -156q-65 -56 -167 -56q-115 0 -179.5 61t-67.5 166h139q4 -106 110 -106q42 0 67 21.5t25 57.5q0 35 -28 58t-96 45
q-105 34 -153 83t-48 131q0 92 59 151q59 58 162 58zM237 870h73l154 -127h-140l-51 51l-51 -51h-139z" />
    <glyph glyph-name="scircumflex" unicode="&#x15d;" horiz-adv-x="460" 
d="M230 518q80 0 131.5 -44t54.5 -116h-129q-1 58 -58 58q-27 0 -41.5 -13.5t-14.5 -36.5q0 -24 19 -36.5t70 -21.5q88 -15 126.5 -52t38.5 -102q0 -79 -54 -122t-142 -43q-91 0 -143.5 44t-54.5 121h128q2 -62 73 -62q63 0 63 48q0 25 -19.5 39t-72.5 24q-83 14 -122.5 51
t-39.5 99q0 71 49 117q50 48 138 48zM181 732h96l140 -158h-132l-56 78l-56 -78h-131z" />
    <glyph glyph-name="Scedilla" unicode="&#x15e;" horiz-adv-x="549" 
d="M273 713q101 0 159 -54t62 -155h-139q-1 41 -24.5 64t-60.5 23t-58 -19.5t-21 -55.5t26 -56q22 -17 97 -44q110 -37 156 -86.5t46 -130.5q0 -89 -56.5 -145.5t-148.5 -64.5l-9 -40q40 -2 63.5 -24t23.5 -60q0 -44 -30.5 -69.5t-80.5 -25.5q-57 0 -92 32l39 56
q20 -23 51 -23q35 0 35 29q0 30 -36 30q-7 0 -27 -5l-18 6l21 94q-101 8 -157 68t-58 157h139q4 -106 110 -106q42 0 67 21.5t25 57.5q0 35 -28 58t-96 45q-105 34 -153 83t-48 131q0 92 59 151q59 58 162 58z" />
    <glyph glyph-name="scedilla" unicode="&#x15f;" horiz-adv-x="460" 
d="M230 518q80 0 131.5 -44t54.5 -116h-129q-1 58 -58 58q-27 0 -41.5 -13.5t-14.5 -36.5q0 -24 19 -36.5t70 -21.5q88 -15 126.5 -52t38.5 -102q0 -72 -45 -114t-120 -49l-9 -42q40 -2 63.5 -24t23.5 -60q0 -44 -30.5 -69.5t-80.5 -25.5q-57 0 -92 32l39 56q20 -23 51 -23
q35 0 35 29q0 30 -36 30q-9 0 -27 -5l-18 6l21 95q-78 7 -122.5 50.5t-46.5 113.5h128q2 -62 73 -62q63 0 63 48q0 25 -19.5 39t-72.5 24q-83 14 -122.5 51t-39.5 99q0 71 49 117q50 48 138 48z" />
    <glyph glyph-name="Scaron" unicode="&#x160;" horiz-adv-x="549" 
d="M273 713q101 0 159 -54t62 -155h-139q-1 41 -24.5 64t-60.5 23t-58 -19.5t-21 -55.5t26 -56q22 -17 97 -44q110 -37 156 -86.5t46 -130.5q0 -99 -66 -156q-65 -56 -167 -56q-115 0 -179.5 61t-67.5 166h139q4 -106 110 -106q42 0 67 21.5t25 57.5q0 35 -28 58t-96 45
q-105 34 -153 83t-48 131q0 92 59 151q59 58 162 58zM324 867h140l-154 -127h-73l-154 127h139l51 -51z" />
    <glyph glyph-name="scaron" unicode="&#x161;" horiz-adv-x="460" 
d="M230 518q80 0 131.5 -44t54.5 -116h-129q-1 58 -58 58q-27 0 -41.5 -13.5t-14.5 -36.5q0 -24 19 -36.5t70 -21.5q88 -15 126.5 -52t38.5 -102q0 -79 -54 -122t-142 -43q-91 0 -143.5 44t-54.5 121h128q2 -62 73 -62q63 0 63 48q0 25 -19.5 39t-72.5 24q-83 14 -122.5 51
t-39.5 99q0 71 49 117q50 48 138 48zM285 722h132l-140 -158h-96l-139 158h131l56 -79z" />
    <glyph glyph-name="Tcommaaccent" unicode="&#x162;" horiz-adv-x="615" 
d="M11 700h593v-128h-228v-572h-137v572h-228v128zM307 -34q34 0 56 -23.5t22 -61.5q0 -43 -23 -90t-60 -85l-36 15q24 43 29 95q-29 4 -47.5 24t-18.5 49q0 32 22.5 54.5t55.5 22.5z" />
    <glyph glyph-name="tcommaaccent" unicode="&#x163;" horiz-adv-x="379" 
d="M99 630h131l-1 -123h116v-118h-117l-2 -205q0 -40 14.5 -56.5t51.5 -16.5q29 0 53 7v-114q-30 -11 -82 -11q-86 0 -127 38.5t-40 121.5l2 236h-83v118h83zM213 -41q34 0 56 -23.5t22 -61.5q0 -43 -23 -90t-60 -85l-36 15q24 43 29 95q-29 4 -47.5 24t-18.5 49
q0 32 22.5 54.5t55.5 22.5z" />
    <glyph glyph-name="Tcaron" unicode="&#x164;" horiz-adv-x="615" 
d="M11 700h593v-128h-228v-572h-137v572h-228v128zM357 857h140l-154 -127h-73l-154 127h139l51 -51z" />
    <glyph glyph-name="tcaron" unicode="&#x165;" horiz-adv-x="531" 
d="M99 630h131l-1 -123h116v-118h-117l-2 -205q0 -40 14.5 -56.5t51.5 -16.5q29 0 53 7v-114q-30 -11 -82 -11q-86 0 -127 38.5t-40 121.5l2 236h-83v118h83zM444 737q34 0 56 -23.5t22 -61.5q0 -47 -23 -99t-60 -93l-37 13q24 51 31 114q-30 4 -48.5 24t-18.5 49
q0 32 23 54.5t55 22.5z" />
    <glyph glyph-name="Tbar" unicode="&#x166;" horiz-adv-x="615" 
d="M11 700h593v-128h-228v-191h144v-95h-144v-286h-137v286h-144v95h144v191h-228v128z" />
    <glyph glyph-name="tbar" unicode="&#x167;" horiz-adv-x="379" 
d="M99 630h131l-1 -123h116v-102h-117l-1 -84h118v-102h-119v-35q0 -40 14.5 -56.5t51.5 -16.5q29 0 53 7v-114q-30 -11 -82 -11q-86 0 -127 38.5t-40 121.5v66h-81v102h82l1 84h-83v102h83z" />
    <glyph glyph-name="Utilde" unicode="&#x168;" horiz-adv-x="693" 
d="M282 874q55 0 79 -32t51 -32q33 0 33 55h77q0 -67 -28 -104t-83 -37q-54 0 -80 32q-24 32 -50 32q-34 0 -34 -55h-76q0 67 28 104t83 37zM493 700h138v-418q0 -140 -74 -217.5t-210 -77.5t-210.5 77t-74.5 218v418h138v-418q0 -167 147 -167q146 0 146 167v418z" />
    <glyph glyph-name="utilde" unicode="&#x169;" horiz-adv-x="549" 
d="M209 721q54 0 79 -33t51 -33q33 0 33 57h77q0 -67 -28 -105t-83 -38q-54 0 -79 33q-24 34 -51 34q-34 0 -34 -58h-76q0 68 28 105.5t83 37.5zM351 507h129v-507h-111l-10 66q-41 -77 -134 -77q-79 0 -121 50t-42 139v329h130v-300q0 -92 72 -92q39 0 63 31t24 89v272z
" />
    <glyph glyph-name="Umacron" unicode="&#x16a;" horiz-adv-x="693" 
d="M493 700h138v-418q0 -140 -74 -217.5t-210 -77.5t-210.5 77t-74.5 218v418h138v-418q0 -167 147 -167q146 0 146 167v418zM206 835h279v-97h-279v97z" />
    <glyph glyph-name="umacron" unicode="&#x16b;" horiz-adv-x="549" 
d="M351 507h129v-507h-111l-10 66q-41 -77 -134 -77q-79 0 -121 50t-42 139v329h130v-300q0 -92 72 -92q39 0 63 31t24 89v272zM133 685h279v-97h-279v97z" />
    <glyph glyph-name="Ubreve" unicode="&#x16c;" horiz-adv-x="693" 
d="M493 700h138v-418q0 -140 -74 -217.5t-210 -77.5t-210.5 77t-74.5 218v418h138v-418q0 -167 147 -167q146 0 146 167v418zM401 868h104q0 -63 -44.5 -101.5t-116.5 -38.5q-70 0 -114.5 39t-44.5 101h103q0 -25 15 -40t42 -15q26 0 41 15t15 40z" />
    <glyph glyph-name="ubreve" unicode="&#x16d;" horiz-adv-x="549" 
d="M351 507h129v-507h-111l-10 66q-41 -77 -134 -77q-79 0 -121 50t-42 139v329h130v-300q0 -92 72 -92q39 0 63 31t24 89v272zM329 714h103q0 -66 -45 -110q-45 -42 -116 -42q-69 0 -114 42q-45 44 -45 110h103q0 -31 15 -49.5t42 -18.5q26 0 41.5 19t15.5 49z" />
    <glyph glyph-name="Uring" unicode="&#x16e;" horiz-adv-x="693" 
d="M450 826q0 -43 -30 -72.5t-75 -29.5t-74.5 29.5t-29.5 72.5q0 45 29 74t75 29t75.5 -29t29.5 -74zM309 826q0 -15 10.5 -25.5t25.5 -10.5q16 0 26.5 10.5t10.5 25.5q2 23 -17.5 32.5t-38.5 0t-17 -32.5zM493 700h138v-418q0 -140 -74 -217.5t-210 -77.5t-210.5 77
t-74.5 218v418h138v-418q0 -167 147 -167q146 0 146 167v418z" />
    <glyph glyph-name="uring" unicode="&#x16f;" horiz-adv-x="549" 
d="M272 772q50 0 81 -31.5t31 -79.5q0 -46 -32 -77t-80 -31t-80 31t-32 77q0 48 31.5 79.5t80.5 31.5zM272 709q-19 0 -32 -13.5t-13 -33.5q0 -18 13 -31.5t32 -13.5q20 0 32.5 13t12.5 32q0 20 -12.5 33.5t-32.5 13.5zM351 507h129v-507h-111l-10 66q-41 -77 -134 -77
q-79 0 -121 50t-42 139v329h130v-300q0 -92 72 -92q39 0 63 31t24 89v272z" />
    <glyph glyph-name="Uhungarumlaut" unicode="&#x170;" horiz-adv-x="693" 
d="M493 700h138v-418q0 -140 -74 -217.5t-210 -77.5t-210.5 77t-74.5 218v418h138v-418q0 -167 147 -167q146 0 146 167v418zM265 859h133l-101 -129h-108zM455 859h133l-101 -129h-108z" />
    <glyph glyph-name="uhungarumlaut" unicode="&#x171;" horiz-adv-x="549" 
d="M351 507h129v-507h-111l-10 66q-41 -77 -134 -77q-79 0 -121 50t-42 139v329h130v-300q0 -92 72 -92q39 0 63 31t24 89v272zM193 732h133l-106 -158h-107zM388 732h133l-106 -158h-107z" />
    <glyph glyph-name="Uogonek" unicode="&#x172;" horiz-adv-x="693" 
d="M493 700h138v-418q0 -111 -46.5 -183t-133.5 -98q-48 -26 -48 -76q0 -51 50 -51q22 0 40 9l15 -63q-21 -12 -60 -12q-57 0 -91.5 30.5t-34.5 83.5q0 38 18 65q-133 2 -205.5 79t-72.5 216v418h138v-418q0 -167 147 -167q146 0 146 167v418z" />
    <glyph glyph-name="uogonek" unicode="&#x173;" horiz-adv-x="549" 
d="M351 507h129v-507h-4q-71 -29 -71 -87q0 -51 50 -51q22 0 40 9l15 -63q-21 -12 -60 -12q-57 0 -91.5 30.5t-34.5 83.5q0 57 44 93l-9 63q-41 -77 -134 -77q-79 0 -121 50t-42 139v329h130v-300q0 -92 72 -92q39 0 63 31t24 89v272z" />
    <glyph glyph-name="Wcircumflex" unicode="&#x174;" horiz-adv-x="1002" 
d="M842 700h145l-213 -700h-145l-118 402l-10 48l-9 -48l-119 -402h-145l-213 700h145l132 -446l11 -51l9 51l126 446h126l127 -446l8 -51l11 51zM464 860h73l154 -127h-140l-51 51l-51 -51h-139z" />
    <glyph glyph-name="wcircumflex" unicode="&#x175;" horiz-adv-x="781" 
d="M632 507h139l-153 -507h-136l-92 298l-98 -298h-129l-153 507h140l77 -305l9 -54l11 54l86 305h115l86 -305l11 -54l9 54zM341 732h96l140 -158h-132l-56 78l-56 -78h-131z" />
    <glyph glyph-name="Ycircumflex" unicode="&#x176;" horiz-adv-x="687" 
d="M518 700h160l-265 -440v-260h-139v260l-265 440h160l150 -244l24 -47l25 47zM306 860h73l154 -127h-140l-51 51l-51 -51h-139z" />
    <glyph glyph-name="ycircumflex" unicode="&#x177;" horiz-adv-x="521" 
d="M367 507h141l-261 -722h-135l77 221l-180 501h140l99 -311l10 -44l10 44zM209 732h96l140 -158h-132l-56 78l-56 -78h-131z" />
    <glyph glyph-name="Ydieresis" unicode="&#x178;" horiz-adv-x="687" 
d="M518 700h160l-265 -440v-260h-139v260l-265 440h160l150 -244l24 -47l25 47zM240 870q30 0 50.5 -20t20.5 -50t-20.5 -50t-50.5 -20q-31 0 -51.5 20t-20.5 50t20.5 50t51.5 20zM394 850q21 20 51 20t51 -20t21 -50t-21 -50t-51 -20t-51 20q-20 20 -20 50t20 50z" />
    <glyph glyph-name="Zacute" unicode="&#x179;" horiz-adv-x="601" 
d="M43 700h506v-112l-331 -460h345v-128h-522v112l334 460h-332v128zM314 854h179l-143 -120h-129z" />
    <glyph glyph-name="zacute" unicode="&#x17a;" horiz-adv-x="478" 
d="M36 507h401v-97l-229 -297h242v-113h-415v97l229 297h-228v113zM282 732h159l-154 -158h-111z" />
    <glyph glyph-name="Zdotaccent" unicode="&#x17b;" horiz-adv-x="601" 
d="M43 700h506v-112l-331 -460h345v-128h-522v112l334 460h-332v128zM301 873q30 0 51.5 -20.5t21.5 -50.5t-21.5 -51t-51.5 -21q-32 0 -53 20.5t-21 51.5q0 30 21.5 50.5t52.5 20.5z" />
    <glyph glyph-name="zdotaccent" unicode="&#x17c;" horiz-adv-x="478" 
d="M36 507h401v-97l-229 -297h242v-113h-415v97l229 297h-228v113zM185 704q23 22 56 22t56 -22q24 -22 24 -55t-24 -55q-23 -22 -56 -22t-56 22q-22 22 -22 55t22 55z" />
    <glyph glyph-name="Zcaron" unicode="&#x17d;" horiz-adv-x="601" 
d="M43 700h506v-112l-331 -460h345v-128h-522v112l334 460h-332v128zM351 857h140l-154 -127h-73l-154 127h139l51 -51z" />
    <glyph glyph-name="zcaron" unicode="&#x17e;" horiz-adv-x="478" 
d="M36 507h401v-97l-229 -297h242v-113h-415v97l229 297h-228v113zM297 722h132l-140 -158h-96l-139 158h131l56 -79z" />
    <glyph glyph-name="florin" unicode="&#x192;" horiz-adv-x="357" 
d="M329 741q33 0 67 -9l-13 -116q-27 11 -50 11q-68 0 -75 -70l-5 -50h119l-12 -118h-119l-48 -441q-9 -84 -61 -129t-139 -45q-42 0 -66 10l12 115q27 -11 51 -11q68 0 75 70l45 431h-82l12 118h82l7 61q9 84 61 128.5t139 44.5z" />
    <glyph glyph-name="Aringacute" unicode="&#x1fa;" horiz-adv-x="723" 
d="M286 700h151l271 -700h-149l-58 155h-279l-58 -155h-149zM370 994h179l-113 -95q29 -29 29 -73q0 -43 -30 -72.5t-75 -29.5t-74.5 29.5t-29.5 72.5q0 67 56 93zM374 494l-13 39l-13 -39l-83 -219h192zM324 826q0 -15 10.5 -25.5t25.5 -10.5q16 0 26.5 10.5t10.5 25.5
q2 23 -17.5 32.5t-38.5 0t-17 -32.5z" />
    <glyph glyph-name="aringacute" unicode="&#x1fb;" horiz-adv-x="516" 
d="M257 518q94 0 147.5 -47.5t53.5 -137.5v-333h-111l-8 62q-48 -73 -145 -73q-69 0 -111.5 40t-42.5 106q0 67 40 103t117 49l131 24v19q0 77 -71 77q-33 0 -54.5 -18.5t-21.5 -48.5h-126q5 80 60 129t142 49zM268 854h179l-120 -101q46 -30 46 -92q0 -46 -32 -77t-80 -31
q-50 0 -81 31t-31 77q0 45 29 77zM328 209v15l-101 -21q-57 -13 -57 -57q0 -23 15.5 -36.5t43.5 -13.5q53 0 81 46q18 28 18 67zM261 709q-19 0 -32 -13.5t-13 -33.5q0 -18 13 -31.5t32 -13.5q20 0 32.5 13t12.5 32q0 20 -12.5 33.5t-32.5 13.5z" />
    <glyph glyph-name="AEacute" unicode="&#x1fc;" horiz-adv-x="958" 
d="M454 700h459v-128h-266v-148h229v-129h-229v-167h266v-128h-404v156h-237l-102 -156h-162zM509 274v264l-22 -42l-142 -222h164zM605 854h179l-143 -120h-129z" />
    <glyph glyph-name="aeacute" unicode="&#x1fd;" horiz-adv-x="851" 
d="M577 518q108 0 171.5 -68.5t63.5 -195.5v-40h-353q3 -51 36 -82.5t86 -31.5q79 0 102 59h126q-50 -170 -232 -170q-128 0 -199 92q-68 -92 -179 -92q-73 0 -116 39t-43 106t39 103.5t116 49.5l130 24v16q0 80 -71 80q-33 0 -53 -18.5t-20 -48.5h-126q5 81 58.5 129.5
t140.5 48.5q104 0 158 -58q65 58 165 58zM472 732h159l-154 -158h-111zM460 304h221q-1 48 -30 77t-77 29q-47 0 -78 -29t-36 -77zM325 202v22l-96 -20q-31 -7 -45 -20.5t-14 -37.5q0 -23 15 -36.5t43 -13.5q50 0 79 44q18 29 18 62z" />
    <glyph glyph-name="Oslashacute" unicode="&#x1fe;" horiz-adv-x="799" 
d="M400 713q71 0 135 -23l51 86l98 -50l-53 -90q62 -49 96.5 -123.5t34.5 -161.5q0 -157 -102 -261q-102 -103 -260 -103q-70 0 -137 24l-52 -89l-98 50l54 92q-62 49 -96 123.5t-34 163.5q0 157 102 259q102 103 261 103zM619 351q0 101 -58 165l-231 -391q30 -10 70 -10
q98 0 158 66q61 67 61 170zM400 585q-98 0 -160 -66q-60 -66 -60 -168t58 -167l230 391q-33 10 -68 10zM400 856h179l-143 -120h-129z" />
    <glyph glyph-name="oslashacute" unicode="&#x1ff;" horiz-adv-x="598" 
d="M298 518q49 0 96 -16l45 84l62 -30l-45 -84q109 -75 109 -218q0 -118 -76 -191q-76 -74 -191 -74q-46 0 -93 14l-44 -83l-63 29l45 85q-110 74 -110 220q0 116 75 190q76 74 190 74zM337 732h159l-154 -158h-111zM299 400q-58 0 -95 -41.5t-37 -104.5q0 -64 38 -105
l131 246q-20 5 -37 5zM430 254q0 62 -35 103l-131 -245q13 -4 35 -4q57 0 94 41.5t37 104.5z" />
    <glyph glyph-name="Scommaaccent" unicode="&#x218;" horiz-adv-x="549" 
d="M273 713q101 0 159 -54t62 -155h-139q-1 41 -24.5 64t-60.5 23t-58 -19.5t-21 -55.5t26 -56q22 -17 97 -44q110 -37 156 -86.5t46 -130.5q0 -99 -66 -156q-65 -56 -167 -56q-115 0 -179.5 61t-67.5 166h139q4 -106 110 -106q42 0 67 21.5t25 57.5q0 35 -28 58t-96 45
q-105 34 -153 83t-48 131q0 92 59 151q59 58 162 58zM278 -44q34 0 56 -23.5t22 -61.5q0 -43 -23 -90t-60 -85l-36 15q24 43 29 95q-29 4 -47.5 24t-18.5 49q0 32 22.5 54.5t55.5 22.5z" />
    <glyph glyph-name="scommaaccent" unicode="&#x219;" horiz-adv-x="460" 
d="M230 518q80 0 131.5 -44t54.5 -116h-129q-1 58 -58 58q-27 0 -41.5 -13.5t-14.5 -36.5q0 -24 19 -36.5t70 -21.5q88 -15 126.5 -52t38.5 -102q0 -79 -54 -122t-142 -43q-91 0 -143.5 44t-54.5 121h128q2 -62 73 -62q63 0 63 48q0 25 -19.5 39t-72.5 24q-83 14 -122.5 51
t-39.5 99q0 71 49 117q50 48 138 48zM231 -40q34 0 56 -23.5t22 -61.5q0 -43 -23 -90t-60 -85l-36 15q24 43 29 95q-29 4 -47.5 24t-18.5 49q0 32 22.5 54.5t55.5 22.5z" />
    <glyph glyph-name="circumflex" unicode="&#x2c6;" horiz-adv-x="395" 
d="M149 732h96l140 -158h-132l-56 78l-56 -78h-131z" />
    <glyph glyph-name="caron" unicode="&#x2c7;" horiz-adv-x="395" 
d="M253 722h132l-140 -158h-96l-139 158h131l56 -79z" />
    <glyph glyph-name="breve" unicode="&#x2d8;" horiz-adv-x="340" 
d="M227 714h103q0 -66 -45 -110q-45 -42 -116 -42q-69 0 -114 42q-45 44 -45 110h103q0 -31 15 -49.5t42 -18.5q26 0 41.5 19t15.5 49z" />
    <glyph glyph-name="dotaccent" unicode="&#x2d9;" horiz-adv-x="178" 
d="M32 704q23 22 56 22t56 -22q24 -22 24 -55t-24 -55q-23 -22 -56 -22t-56 22q-22 22 -22 55t22 55z" />
    <glyph glyph-name="ring" unicode="&#x2da;" horiz-adv-x="244" 
d="M122 772q50 0 81 -31.5t31 -79.5q0 -46 -32 -77t-80 -31t-80 31t-32 77q0 48 31.5 79.5t80.5 31.5zM122 709q-19 0 -32 -13.5t-13 -33.5q0 -18 13 -31.5t32 -13.5q20 0 32.5 13t12.5 32q0 20 -12.5 33.5t-32.5 13.5z" />
    <glyph glyph-name="ogonek" unicode="&#x2db;" horiz-adv-x="199" 
d="M105 36l50 -36q-71 -29 -71 -87q0 -51 50 -51q22 0 40 9l15 -63q-21 -12 -60 -12q-57 0 -91.5 30.5t-34.5 83.5q0 87 102 126z" />
    <glyph glyph-name="tilde" unicode="&#x2dc;" horiz-adv-x="371" 
d="M121 721q54 0 79 -33t51 -33q33 0 33 57h77q0 -67 -28 -105t-83 -38q-54 0 -79 33q-24 34 -51 34q-34 0 -34 -58h-76q0 68 28 105.5t83 37.5z" />
    <glyph glyph-name="hungarumlaut" unicode="&#x2dd;" horiz-adv-x="428" 
d="M90 732h133l-106 -158h-107zM285 732h133l-106 -158h-107z" />
    <glyph glyph-name="uni03A9" unicode="&#x3a9;" horiz-adv-x="860" 
d="M767 390q0 -123 -98 -239h154v-151h-337v131q127 112 127 252q0 91 -48.5 145.5t-132.5 54.5t-133 -54.5t-49 -145.5q0 -140 127 -252v-131h-336v151h154q-98 113 -98 239q0 152 91 247q92 96 244 96t244 -96q91 -95 91 -247z" />
    <glyph glyph-name="pi" unicode="&#x3c0;" horiz-adv-x="752" 
d="M642 574l107 -62q-42 -137 -180 -137h-7l-27 -194q-7 -57 34 -57q26 0 47 18l48 -97q-71 -53 -155 -53q-123 0 -103 150l31 233h-97l-30 -227q-12 -86 -41 -148h-138q45 76 59 170l26 205h-18q-70 0 -114 -53l-63 92q48 48 89 67q45 20 119 20h267q65 0 96 17
q30 17 50 56z" />
    <glyph glyph-name="Wgrave" unicode="&#x1e80;" horiz-adv-x="1002" 
d="M842 700h145l-213 -700h-145l-118 402l-10 48l-9 -48l-119 -402h-145l-213 700h145l132 -446l11 -51l9 51l126 446h126l127 -446l8 -51l11 51zM298 854h179l93 -120h-129z" />
    <glyph glyph-name="wgrave" unicode="&#x1e81;" horiz-adv-x="781" 
d="M632 507h139l-153 -507h-136l-92 298l-98 -298h-129l-153 507h140l77 -305l9 -54l11 54l86 305h115l86 -305l11 -54l9 54zM183 732h159l106 -158h-111z" />
    <glyph glyph-name="Wacute" unicode="&#x1e82;" horiz-adv-x="1002" 
d="M842 700h145l-213 -700h-145l-118 402l-10 48l-9 -48l-119 -402h-145l-213 700h145l132 -446l11 -51l9 51l126 446h126l127 -446l8 -51l11 51zM524 854h179l-143 -120h-129z" />
    <glyph glyph-name="wacute" unicode="&#x1e83;" horiz-adv-x="781" 
d="M632 507h139l-153 -507h-136l-92 298l-98 -298h-129l-153 507h140l77 -305l9 -54l11 54l86 305h115l86 -305l11 -54l9 54zM430 732h159l-154 -158h-111z" />
    <glyph glyph-name="Wdieresis" unicode="&#x1e84;" horiz-adv-x="1002" 
d="M842 700h145l-213 -700h-145l-118 402l-10 48l-9 -48l-119 -402h-145l-213 700h145l132 -446l11 -51l9 51l126 446h126l127 -446l8 -51l11 51zM398 870q30 0 50.5 -20t20.5 -50t-20.5 -50t-50.5 -20q-31 0 -51.5 20t-20.5 50t20.5 50t51.5 20zM552 850q21 20 51 20
t51 -20t21 -50t-21 -50t-51 -20t-51 20q-20 20 -20 50t20 50z" />
    <glyph glyph-name="wdieresis" unicode="&#x1e85;" horiz-adv-x="781" 
d="M632 507h139l-153 -507h-136l-92 298l-98 -298h-129l-153 507h140l77 -305l9 -54l11 54l86 305h115l86 -305l11 -54l9 54zM287 712q30 0 50.5 -20t20.5 -50t-20.5 -50t-50.5 -20q-31 0 -51.5 20t-20.5 50t20.5 50t51.5 20zM441 692q21 20 51 20t51 -20t21 -50t-21 -50
t-51 -20t-51 20q-20 20 -20 50t20 50z" />
    <glyph glyph-name="Ygrave" unicode="&#x1ef2;" horiz-adv-x="687" 
d="M518 700h160l-265 -440v-260h-139v260l-265 440h160l150 -244l24 -47l25 47zM140 854h179l93 -120h-129z" />
    <glyph glyph-name="ygrave" unicode="&#x1ef3;" horiz-adv-x="521" 
d="M367 507h141l-261 -722h-135l77 221l-180 501h140l99 -311l10 -44l10 44zM51 732h159l106 -158h-111z" />
    <glyph glyph-name="endash" unicode="&#x2013;" horiz-adv-x="515" 
d="M25 317h465v-115h-465v115z" />
    <glyph glyph-name="emdash" unicode="&#x2014;" horiz-adv-x="705" 
d="M25 317h655v-115h-655v115z" />
    <glyph glyph-name="quoteleft" unicode="&#x2018;" horiz-adv-x="215" 
d="M112 745l38 -13q-24 -50 -30 -114q28 -4 46.5 -24t18.5 -49q0 -32 -22.5 -54.5t-54.5 -22.5q-34 0 -56.5 23.5t-22.5 61.5q1 47 23.5 99.5t59.5 92.5z" />
    <glyph glyph-name="quoteright" unicode="&#x2019;" horiz-adv-x="215" 
d="M107 737q34 0 56 -23.5t22 -61.5q0 -47 -23 -99t-60 -93l-37 13q24 51 31 114q-30 4 -48.5 24t-18.5 49q0 32 23 54.5t55 22.5z" />
    <glyph glyph-name="quotesinglbase" unicode="&#x201a;" horiz-adv-x="215" 
d="M107 144q34 0 56 -23.5t22 -61.5q0 -47 -23 -99t-60 -93l-37 14q23 47 31 114q-30 3 -48.5 23t-18.5 50q0 31 23 53.5t55 22.5z" />
    <glyph glyph-name="quotedblleft" unicode="&#x201c;" horiz-adv-x="427" 
d="M112 745l38 -13q-24 -50 -30 -114q28 -4 46.5 -24t18.5 -49q0 -32 -22.5 -54.5t-54.5 -22.5q-34 0 -56.5 23.5t-22.5 61.5q1 47 23.5 99.5t59.5 92.5zM323 745l38 -13q-24 -50 -30 -114q28 -4 46.5 -24t18.5 -49q0 -32 -22.5 -54.5t-54.5 -22.5q-34 0 -56.5 23.5
t-22.5 61.5q1 47 23.5 99.5t59.5 92.5z" />
    <glyph glyph-name="quotedblright" unicode="&#x201d;" horiz-adv-x="427" 
d="M107 737q34 0 56 -23.5t22 -61.5q0 -47 -23 -99t-60 -93l-37 13q24 51 31 114q-30 4 -48.5 24t-18.5 49q0 32 23 54.5t55 22.5zM318 737q34 0 56 -23.5t22 -61.5q0 -47 -23 -99t-60 -93l-37 13q24 51 31 114q-30 4 -48.5 24t-18.5 49q0 32 23 54.5t55 22.5z" />
    <glyph glyph-name="quotedblbase" unicode="&#x201e;" horiz-adv-x="429" 
d="M107 144q34 0 56 -23.5t22 -61.5q0 -47 -23 -99t-60 -93l-37 14q23 47 31 114q-30 3 -48.5 23t-18.5 50q0 31 23 53.5t55 22.5zM321 144q34 0 56 -23.5t22 -61.5q0 -47 -23 -99t-60 -93l-37 14q23 47 31 114q-30 3 -48.5 23t-18.5 50q0 31 23 53.5t55 22.5z" />
    <glyph glyph-name="dagger" unicode="&#x2020;" horiz-adv-x="469" 
d="M169 726h131v-182h151v-128h-151v-483h-131v483h-150v128h150v182z" />
    <glyph glyph-name="daggerdbl" unicode="&#x2021;" horiz-adv-x="469" 
d="M169 726h131v-182h151v-128h-151v-173h151v-128h-151v-182h-131v182h-150v128h150v173h-150v128h150v182z" />
    <glyph glyph-name="bullet" unicode="&#x2022;" horiz-adv-x="355" 
d="M76 360q41 41 101 41t101 -41t41 -101t-41 -101q-40 -40 -101 -40t-101 40t-40 101t40 101z" />
    <glyph glyph-name="ellipsis" unicode="&#x2026;" horiz-adv-x="697" 
d="M111 146q33 0 56.5 -22.5t23.5 -55.5t-23.5 -56t-56.5 -23q-34 0 -57 22.5t-23 56.5t23 56t57 22zM348 146q34 0 57.5 -22.5t23.5 -55.5q0 -34 -23.5 -56.5t-57.5 -22.5q-33 0 -56.5 23t-23.5 56t23.5 55.5t56.5 22.5zM667 68q0 -34 -23.5 -56.5t-57.5 -22.5t-57 22.5
t-23 56.5t23 56t57 22t57.5 -22.5t23.5 -55.5z" />
    <glyph glyph-name="perthousand" unicode="&#x2030;" horiz-adv-x="1282" 
d="M563 700h136l-376 -700h-137zM201 713q75 0 126 -51t51 -128q0 -76 -51 -127q-52 -50 -126 -50q-75 0 -127 50q-50 52 -50 127q0 76 50 128q51 51 127 51zM201 613q-31 0 -51 -22.5t-20 -55.5t20 -55t51 -22q30 0 50 22t20 55t-20 55.5t-50 22.5zM685 343q75 0 126 -52
q51 -51 51 -127q0 -78 -51 -127q-50 -50 -126 -50q-75 0 -127 50q-50 50 -50 127q0 76 50 128q51 51 127 51zM685 242q-31 0 -51 -22t-20 -55t20 -55.5t51 -22.5q30 0 50 22.5t20 55.5t-20 55t-50 22zM1082 343q74 0 125 -52q51 -51 51 -127q0 -78 -51 -127
q-50 -50 -125 -50q-76 0 -128 50q-50 50 -50 127t51 128t127 51zM1081 242q-31 0 -51 -22t-20 -55t20 -55.5t51 -22.5q30 0 50 22.5t20 55.5t-20 55t-50 22z" />
    <glyph glyph-name="guilsinglleft" unicode="&#x2039;" horiz-adv-x="284" 
d="M149 446h123l-143 -196l143 -195h-123l-138 187v17z" />
    <glyph glyph-name="guilsinglright" unicode="&#x203a;" horiz-adv-x="284" 
d="M11 446h124l137 -187v-17l-137 -187h-124l144 195z" />
    <glyph glyph-name="fraction" unicode="&#x2044;" horiz-adv-x="146" 
d="M194 700h136l-377 -700h-136z" />
    <glyph glyph-name="zero.sups" unicode="&#x2070;" horiz-adv-x="373" 
d="M340 605q0 -97 -40 -150.5t-114 -53.5t-113.5 53.5t-39.5 150.5q0 96 39.5 149t113.5 53t114 -53t40 -149zM132 605q0 -113 54 -113t54 113q0 111 -54 111t-54 -111z" />
    <glyph glyph-name="four.sups" unicode="&#x2074;" horiz-adv-x="380" 
d="M174 800h124v-243h51v-87h-51v-62h-98v62h-177v78zM201 556v130l-9 -21l-68 -109h77z" />
    <glyph glyph-name="five.sups" unicode="&#x2075;" horiz-adv-x="351" 
d="M45 800h254v-92h-155v-57q21 10 51 10q56 0 90.5 -31t34.5 -88q0 -64 -38.5 -102.5t-104.5 -38.5q-67 0 -105.5 33.5t-38.5 93.5h98q1 -36 46 -36t45 46q0 45 -45 45q-25 0 -44 -12h-88v229z" />
    <glyph glyph-name="six.sups" unicode="&#x2076;" horiz-adv-x="363" 
d="M189 807q60 0 97 -34t38 -91h-99q-4 34 -40 34q-54 0 -54 -83q27 21 72 21q57 0 92 -33t35 -85q0 -63 -39.5 -99t-104.5 -36q-70 0 -108 42q-47 50 -47 155q0 209 158 209zM134 535q0 -19 13.5 -31.5t35.5 -12.5q21 0 34.5 12t13.5 31q3 26 -22.5 37t-51 0.5t-23.5 -36.5
z" />
    <glyph glyph-name="seven.sups" unicode="&#x2077;" horiz-adv-x="316" 
d="M28 800h267v-79l-145 -313h-107l139 299h-154v93z" />
    <glyph glyph-name="eight.sups" unicode="&#x2078;" horiz-adv-x="359" 
d="M179 807q60 0 98 -34t38 -86q0 -47 -42 -79q52 -28 52 -84q0 -54 -42 -88q-43 -35 -104 -35t-104 35q-42 34 -42 88q0 57 52 84q-41 32 -41 79q0 52 38 86t97 34zM179 487q20 0 33.5 11.5t13.5 29.5t-14 30t-33 12t-32.5 -12t-13.5 -30t13.5 -29.5t32.5 -11.5zM179 648
q24 -2 34 17t0 38.5t-34 17.5q-23 2 -33 -17.5t0 -38.5t33 -17z" />
    <glyph glyph-name="nine.sups" unicode="&#x2079;" horiz-adv-x="363" 
d="M176 807q75 0 110 -41q46 -49 46 -156q0 -209 -159 -209q-58 0 -95.5 34.5t-38.5 90.5h99q4 -34 40 -34q54 0 54 83v1q-28 -20 -72 -20q-57 0 -92.5 32t-35.5 84q0 62 40 98.5t104 36.5zM180 629q21 0 35 13t14 31q0 19 -13.5 31.5t-35.5 12.5q-20 0 -34 -12.5t-14 -31.5
q0 -18 14 -31t34 -13z" />
    <glyph glyph-name="n.sups" unicode="&#x207f;" horiz-adv-x="421" 
d="M251 712q56 0 86.5 -34t30.5 -94v-225h-99v197q0 60 -50 60q-28 0 -45.5 -19t-17.5 -55v-183h-99v346h85l7 -44q33 51 102 51z" />
    <glyph glyph-name="Euro" unicode="&#x20ac;" horiz-adv-x="620" 
d="M219 311h140v-96h-122q33 -100 114 -100q92 0 106 100h148q-45 -228 -253 -228q-98 0 -165 59.5t-93 168.5h-79v96h65q-1 9 -1 40q0 33 1 42h-65v96h80q27 106 94 165t163 59q215 0 253 -227h-148q-11 99 -106 99q-80 0 -113 -96h121v-96h-140q-1 -9 -1 -42q0 -31 1 -40z
" />
    <glyph glyph-name="afii61289" unicode="&#x2113;" horiz-adv-x="570" 
d="M333 753q74 0 122 -45q49 -43 49 -122q0 -100 -74 -194q-61 -78 -146 -153v-71q0 -63 57 -63q34 0 57.5 20t56.5 70l77 -62q-92 -146 -224 -146q-102 0 -132 85q-14 23 -14 67q-11 -7 -77 -61l-67 95q45 36 139 123v268q0 189 176 189zM332 649q-27 0 -43 -19.5
t-16 -54.5v-205q44 41 83 102q37 58 37 108q0 33 -16.5 51t-44.5 18z" />
    <glyph glyph-name="trademark" unicode="&#x2122;" horiz-adv-x="626" 
d="M23 700h215v-78h-66v-202h-84v202h-65v78zM491 700h100v-280h-84v137l-9 -31l-37 -106h-58l-37 106l-9 31v-137h-84v280h100l55 -153l4 -17l4 17z" />
    <glyph glyph-name="Omega" unicode="&#x2126;" horiz-adv-x="860" 
d="M767 390q0 -123 -98 -239h154v-151h-337v131q127 112 127 252q0 91 -48.5 145.5t-132.5 54.5t-133 -54.5t-49 -145.5q0 -140 127 -252v-131h-336v151h154q-98 113 -98 239q0 152 91 247q92 96 244 96t244 -96q91 -95 91 -247z" />
    <glyph glyph-name="estimated" unicode="&#x212e;" horiz-adv-x="587" 
d="M306 495q-64 0 -105 -27q-39 -20 -39 -65v-94h274v93q0 32 -7.5 47.5t-29.5 24.5q-39 21 -93 21zM306 532q108 0 176 -68q69 -68 69 -192h-389v-156q0 -46 40 -67q41 -26 104 -26q130 0 208 119l30 -20q-87 -135 -238 -135q-117 0 -194 75q-76 76 -76 197q0 120 77 197
q76 76 193 76z" />
    <glyph glyph-name="partialdiff" unicode="&#x2202;" horiz-adv-x="547" 
d="M258 747q62 0 110.5 -25.5t76.5 -68.5q29 -41 45 -98q29 -92 29 -222q0 -129 -35 -205q-30 -66 -84 -101.5t-123 -35.5q-105 0 -174 66t-69 171q0 106 66 170q66 66 167 66q34 0 65.5 -14.5t50.5 -35.5q-1 97 -36.5 151t-99.5 54q-71 0 -118 -65l-90 84q81 109 219 109z
M170 228q0 -53 30 -85t78 -32t77.5 32t29.5 85q0 52 -30 84t-77 32t-77.5 -32t-30.5 -84z" />
    <glyph glyph-name="uni2206" unicode="&#x2206;" horiz-adv-x="722" 
d="M40 0l322 636l320 -636h-642zM505 108l-143 286l-145 -286h288z" />
    <glyph glyph-name="product" unicode="&#x220f;" horiz-adv-x="694" 
d="M35 700h624v-128h-105v-680h-124v680h-165v-680h-126v680h-104v128z" />
    <glyph glyph-name="summation" unicode="&#x2211;" horiz-adv-x="610" 
d="M46 700h512v-138h-322l153 -197l-162 -227h343v-138h-527v92l189 270l-186 245v93z" />
    <glyph glyph-name="minus" unicode="&#x2212;" horiz-adv-x="472" 
d="M30 407h412v-115h-412v115z" />
    <glyph glyph-name="radical" unicode="&#x221a;" horiz-adv-x="697" 
d="M369 221l192 474l114 -48l-302 -714l-169 318l-118 -67l-58 104l243 142z" />
    <glyph glyph-name="infinity" unicode="&#x221e;" horiz-adv-x="768" 
d="M550 490q83 0 134 -56t51 -139q0 -82 -51 -139q-51 -56 -134 -56q-81 0 -161 79l-18 17l-17 -16q-68 -66 -143 -66q-77 0 -124 51q-46 52 -46 129t46 129q47 53 124 53q39 0 71 -16.5t71 -52.5l18 -17l13 15q41 44 79 64.5t87 20.5zM552 374q-49 0 -98 -63l-14 -18
l16 -18l29 -30q37 -30 68 -30q32 0 51.5 23t19.5 57t-20 56.5t-52 22.5zM208 365q-27 0 -45 -20.5t-18 -50.5t17 -49.5t46 -19.5q43 0 83 52l14 17l-14 16q-46 55 -83 55z" />
    <glyph glyph-name="integral" unicode="&#x222b;" horiz-adv-x="434" 
d="M286 751q64 0 122 -21l-26 -107q-32 12 -63 12q-46 0 -46 -57v-598q0 -93 -32 -133.5t-104 -40.5q-67 0 -125 21l27 107q31 -12 65 -12q48 0 48 58v598q0 93 32 133t102 40z" />
    <glyph glyph-name="approxequal" unicode="&#x2248;" horiz-adv-x="572" 
d="M212 342q32 0 61.5 -14t46.5 -33q42 -46 87 -46q57 0 77 80l88 -38q-42 -154 -167 -154q-66 0 -111 47t-86 47q-54 0 -77 -81l-87 38q40 154 168 154zM211 581q32 0 61.5 -14t46.5 -33q42 -46 87 -46q57 0 77 80l88 -38q-42 -154 -167 -154q-65 0 -111 46q-45 47 -86 47
q-55 0 -76 -80l-88 38q40 154 168 154z" />
    <glyph glyph-name="notequal" unicode="&#x2260;" horiz-adv-x="459" 
d="M274 302h168v-113h-203l-23 -76h-120l23 76h-89v113h124l30 95h-154v112h188l28 88h120l-28 -88h104v-112h-138z" />
    <glyph glyph-name="lessequal" unicode="&#x2264;" horiz-adv-x="368" 
d="M196 590h152l-176 -171l176 -172h-152l-175 170v4zM21 199h327v-96h-327v96z" />
    <glyph glyph-name="greaterequal" unicode="&#x2265;" horiz-adv-x="368" 
d="M21 590h152l175 -169v-4l-175 -170h-152l176 172zM21 199h327v-96h-327v96z" />
    <glyph glyph-name="lozenge" unicode="&#x25ca;" horiz-adv-x="564" 
d="M241 739h82l212 -403l-212 -402h-82l-212 402zM395 336l-113 206l-115 -206l115 -207z" />
    <glyph glyph-name="commaaccent" unicode="&#xf6c3;" horiz-adv-x="220" 
d="M110 -34q34 0 56 -23.5t22 -61.5q0 -43 -23 -90t-60 -85l-36 15q24 43 29 95q-29 4 -47.5 24t-18.5 49q0 32 22.5 54.5t55.5 22.5z" />
    <glyph glyph-name="g.alt" horiz-adv-x="615" 
d="M288 396q-54 0 -87.5 -37.5t-33.5 -97.5t34.5 -97.5t86.5 -37.5q51 0 89 35q37 36 39 96v6q0 61 -39 97q-38 36 -89 36zM261 518q107 0 161 -79l9 68h113v-495q0 -106 -71 -172t-184 -66q-105 0 -172 50t-76 146h127q16 -78 121 -78q59 0 91.5 31.5t32.5 85.5v61
q-21 -30 -61.5 -48.5t-90.5 -18.5q-99 0 -164 72q-64 73 -64 186q0 114 64 185q65 72 164 72z" />
    <glyph glyph-name="a.alt" horiz-adv-x="619" 
d="M268 518q107 0 161 -79l10 68h112v-507h-112l-10 68q-54 -79 -161 -79q-101 0 -168 76t-67 189q0 112 67 188t168 76zM295 396q-55 0 -91.5 -39.5t-36.5 -102.5t36.5 -103t91.5 -40q53 0 90 37q38 38 38 103v5q0 64 -38 102t-90 38z" />
    <glyph glyph-name="parenleft.cap" horiz-adv-x="296" 
d="M197 762l92 -62q-66 -87 -96 -169q-29 -82 -29 -190q0 -107 29 -191q30 -81 96 -168l-92 -62q-79 97 -117.5 196.5t-38.5 224.5t38.5 224.5t117.5 196.5z" />
    <glyph glyph-name="parenright.cap" horiz-adv-x="296" 
d="M8 700l91 62q79 -98 118 -197.5t39 -223.5t-39 -223.5t-118 -197.5l-91 62q66 90 94 168q30 82 30 191t-30 190q-27 79 -94 169z" />
    <glyph glyph-name="bracketleft.cap" horiz-adv-x="329" 
d="M70 736h234v-118h-111v-557h111v-118h-234v793z" />
    <glyph glyph-name="bracketright.cap" horiz-adv-x="329" 
d="M25 736h234v-793h-234v118h110v557h-110v118z" />
    <glyph glyph-name="braceleft.cap" horiz-adv-x="325" 
d="M277 736h23v-118h-18q-65 0 -65 -72v-100q0 -41 -17.5 -69t-48.5 -38q66 -21 66 -106v-100q0 -72 65 -72h18v-118h-23q-88 0 -134.5 49t-46.5 136v83q0 72 -65 72h-12v113h12q65 0 65 72v83q0 87 46.5 136t134.5 49z" />
    <glyph glyph-name="braceright.cap" horiz-adv-x="325" 
d="M25 736h23q89 0 135 -48.5t46 -136.5v-83q0 -72 65 -72h12v-113h-12q-65 0 -65 -72v-83q0 -88 -46 -136.5t-135 -48.5h-23v118h19q31 0 48 19t17 53v100q0 86 65 106q-65 20 -65 107v100q0 34 -17 53t-48 19h-19v118z" />
    <glyph glyph-name="hyphen.cap" horiz-adv-x="365" 
d="M25 393h315v-115h-315v115z" />
    <glyph glyph-name="endash.cap" horiz-adv-x="515" 
d="M25 387h465v-115h-465v115z" />
    <glyph glyph-name="emdash.cap" horiz-adv-x="705" 
d="M25 393h655v-115h-655v115z" />
    <glyph glyph-name="at.cap" horiz-adv-x="827" 
d="M403 457q-42 0 -68.5 -29t-26.5 -77q0 -47 26.5 -76.5t67.5 -29.5q40 0 68 27t28 73v9q0 46 -28 74.5t-67 28.5zM416 727q171 0 274 -106t103 -270q0 -105 -48 -156q-47 -50 -114 -50q-75 0 -113 60q-46 -60 -134 -60q-81 0 -134 59q-52 58 -52 146t51 147q53 60 131 60
q84 0 124 -64l7 55h92v-271q0 -31 9.5 -45t32.5 -14q69 0 69 133q0 131 -81 217q-81 85 -217 85q-140 0 -222 -85q-82 -83 -82 -217q0 -132 83 -218q82 -85 221 -85q73 0 136 30l26 -70q-66 -33 -162 -33q-173 0 -278 105q-104 107 -104 271q0 169 105 272q106 104 277 104z
" />
    <glyph glyph-name="periodcentered.cap" horiz-adv-x="222" 
d="M111 427q33 0 56.5 -23t23.5 -56t-23.5 -56t-56.5 -23q-34 0 -57 22.5t-23 56.5t23 56.5t57 22.5z" />
    <glyph glyph-name="exclamdown.cap" 
d="M199 0h-130v487h130v-487zM53 632q0 34 23.5 56.5t57.5 22.5t57.5 -22.5t23.5 -56.5q0 -33 -23.5 -55.5t-57.5 -22.5t-57.5 22.5t-23.5 55.5z" />
    <glyph glyph-name="questiondown.cap" horiz-adv-x="443" 
d="M13 178q0 93 54 153q10 11 41.5 40t44.5 48.5t13 43.5v24h131v-30q0 -39 -16.5 -70t-40 -52t-47 -41.5t-40 -48.5t-16.5 -62q0 -44 23 -68.5t63 -24.5q42 0 67 26t25 73h123q-1 -93 -63 -149q-60 -54 -150 -54q-89 0 -151 51q-61 52 -61 141zM231 554q-33 0 -56.5 22.5
t-23.5 55.5t23.5 56t56.5 23q35 0 58 -22.5t23 -56.5t-23 -56t-58 -22z" />
    <glyph glyph-name="endash_guilsinglright" horiz-adv-x="659" 
d="M267 472l62 76l299 -270l-299 -270l-62 76l158 138h-394v111h395z" />
    <glyph glyph-name="emdash_guilsinglright" horiz-adv-x="986" 
d="M593 472l62 76l300 -270l-300 -270l-62 76l158 138h-720v111h721z" />
    <glyph glyph-name="guilsinglleft_endash" horiz-adv-x="659" 
d="M31 278l300 270l62 -76l-159 -139h394v-111h-393l158 -138l-62 -76z" />
    <glyph glyph-name="guilsinglleft_emdash" horiz-adv-x="986" 
d="M31 278l300 270l62 -76l-159 -139h721v-111h-720l158 -138l-62 -76z" />
    <glyph glyph-name="guilsinglleft.cap" horiz-adv-x="284" 
d="M149 536h123l-143 -196l143 -195h-123l-138 187v17z" />
    <glyph glyph-name="guilsinglright.cap" horiz-adv-x="284" 
d="M11 536h124l137 -187v-17l-137 -187h-124l144 195z" />
    <glyph glyph-name="guillemotleft.cap" horiz-adv-x="487" 
d="M127 536h124l-122 -196l122 -195h-124l-116 187v17zM352 536h124l-122 -196l122 -195h-124l-115 187v17z" />
    <glyph glyph-name="guillemotright.cap" horiz-adv-x="487" 
d="M11 536h124l116 -187v-17l-116 -187h-124l122 195zM237 536h123l116 -187v-17l-116 -187h-123l121 195z" />
    <glyph glyph-name="germandbls.cap" horiz-adv-x="645" 
d="M327 713q82 0 142 -26.5t113 -82.5l-135 -184q72 -11 117 -64q46 -52 46 -133q0 -107 -66 -168.5t-186 -61.5q-34 0 -87 8l2 131q41 -11 77 -11q55 0 86 25.5t31 72.5q0 53 -44 80t-124 27l-16 63l122 170q-29 26 -82 26q-55 0 -87 -34t-32 -93v-458h-138v455
q0 113 68 186q68 72 193 72z" />
    <glyph glyph-name="grave.cap" horiz-adv-x="292" 
d="M10 854h179l93 -120h-129z" />
    <glyph glyph-name="acute.cap" horiz-adv-x="292" 
d="M103 854h179l-143 -120h-129z" />
    <glyph glyph-name="circumflex.cap" horiz-adv-x="401" 
d="M164 860h73l154 -127h-140l-51 51l-51 -51h-139z" />
    <glyph glyph-name="caron.cap" horiz-adv-x="401" 
d="M251 857h140l-154 -127h-73l-154 127h139l51 -51z" />
    <glyph glyph-name="tilde.cap" horiz-adv-x="371" 
d="M121 874q55 0 79 -32t51 -32q33 0 33 55h77q0 -67 -28 -104t-83 -37q-54 0 -80 32q-24 32 -50 32q-34 0 -34 -55h-76q0 67 28 104t83 37z" />
    <glyph glyph-name="dieresis.cap" horiz-adv-x="369" 
d="M82 870q30 0 50.5 -20t20.5 -50t-20.5 -50t-50.5 -20q-31 0 -51.5 20t-20.5 50t20.5 50t51.5 20zM236 850q21 20 51 20t51 -20t21 -50t-21 -50t-51 -20t-51 20q-20 20 -20 50t20 50z" />
    <glyph glyph-name="macron.cap" horiz-adv-x="299" 
d="M10 835h279v-97h-279v97z" />
    <glyph glyph-name="breve.cap" horiz-adv-x="340" 
d="M226 868h104q0 -63 -44.5 -101.5t-116.5 -38.5q-70 0 -114.5 39t-44.5 101h103q0 -25 15 -40t42 -15q26 0 41 15t15 40z" />
    <glyph glyph-name="ring.cap" horiz-adv-x="215" 
d="M212 826q0 -43 -30 -72.5t-75 -29.5t-74.5 29.5t-29.5 72.5q0 45 29 74t75 29t75.5 -29t29.5 -74zM71 826q0 -15 10.5 -25.5t25.5 -10.5q16 0 26.5 10.5t10.5 25.5q2 23 -17.5 32.5t-38.5 0t-17 -32.5z" />
    <glyph glyph-name="hungarumlaut.cap" horiz-adv-x="419" 
d="M86 859h133l-101 -129h-108zM276 859h133l-101 -129h-108z" />
    <glyph glyph-name="dotaccent.cap" horiz-adv-x="167" 
d="M84 873q30 0 51.5 -20.5t21.5 -50.5t-21.5 -51t-51.5 -21q-32 0 -53 20.5t-21 51.5q0 30 21.5 50.5t52.5 20.5z" />
    <glyph glyph-name="aogonek.alt" horiz-adv-x="619" 
d="M268 518q107 0 161 -79l10 68h112v-507h-7q-71 -29 -71 -87q0 -51 50 -51q22 0 40 9l15 -63q-21 -12 -60 -12q-57 0 -91.5 30.5t-34.5 83.5q0 61 46 95l-9 63q-54 -79 -161 -79q-101 0 -168 76t-67 189q0 112 67 188t168 76zM295 396q-55 0 -91.5 -39.5t-36.5 -102.5
t36.5 -103t91.5 -40q53 0 90 37q38 38 38 103v5q0 64 -38 102t-90 38z" />
    <glyph glyph-name="aringacute.alt" horiz-adv-x="619" 
d="M268 518q107 0 161 -79l10 68h112v-507h-112l-10 68q-54 -79 -161 -79q-101 0 -168 76t-67 189q0 112 67 188t168 76zM295 396q-55 0 -91.5 -39.5t-36.5 -102.5t36.5 -103t91.5 -40q53 0 90 37q38 38 38 103v5q0 64 -38 102t-90 38zM300 854h179l-120 -101q46 -30 46 -92
q0 -46 -32 -77t-80 -31q-50 0 -81 31t-31 77q0 45 29 77zM293 709q-19 0 -32 -13.5t-13 -33.5q0 -18 13 -31.5t32 -13.5q20 0 32.5 13t12.5 32q0 20 -12.5 33.5t-32.5 13.5z" />
    <glyph glyph-name="aacute.alt" horiz-adv-x="619" 
d="M268 518q107 0 161 -79l10 68h112v-507h-112l-10 68q-54 -79 -161 -79q-101 0 -168 76t-67 189q0 112 67 188t168 76zM295 396q-55 0 -91.5 -39.5t-36.5 -102.5t36.5 -103t91.5 -40q53 0 90 37q38 38 38 103v5q0 64 -38 102t-90 38zM336 732h159l-154 -158h-111z" />
    <glyph glyph-name="abreve.alt" horiz-adv-x="619" 
d="M268 518q107 0 161 -79l10 68h112v-507h-112l-10 68q-54 -79 -161 -79q-101 0 -168 76t-67 189q0 112 67 188t168 76zM295 396q-55 0 -91.5 -39.5t-36.5 -102.5t36.5 -103t91.5 -40q53 0 90 37q38 38 38 103v5q0 64 -38 102t-90 38zM350 714h103q0 -66 -45 -110
q-45 -42 -116 -42q-69 0 -114 42q-45 44 -45 110h103q0 -31 15 -49.5t42 -18.5q26 0 41.5 19t15.5 49z" />
    <glyph glyph-name="adieresis.alt" horiz-adv-x="619" 
d="M268 518q107 0 161 -79l10 68h112v-507h-112l-10 68q-54 -79 -161 -79q-101 0 -168 76t-67 189q0 112 67 188t168 76zM295 396q-55 0 -91.5 -39.5t-36.5 -102.5t36.5 -103t91.5 -40q53 0 90 37q38 38 38 103v5q0 64 -38 102t-90 38zM196 712q30 0 50.5 -20t20.5 -50
t-20.5 -50t-50.5 -20q-31 0 -51.5 20t-20.5 50t20.5 50t51.5 20zM350 692q21 20 51 20t51 -20t21 -50t-21 -50t-51 -20t-51 20q-20 20 -20 50t20 50z" />
    <glyph glyph-name="agrave.alt" horiz-adv-x="619" 
d="M268 518q107 0 161 -79l10 68h112v-507h-112l-10 68q-54 -79 -161 -79q-101 0 -168 76t-67 189q0 112 67 188t168 76zM295 396q-55 0 -91.5 -39.5t-36.5 -102.5t36.5 -103t91.5 -40q53 0 90 37q38 38 38 103v5q0 64 -38 102t-90 38zM88 732h159l106 -158h-111z" />
    <glyph glyph-name="amacron.alt" horiz-adv-x="619" 
d="M268 518q107 0 161 -79l10 68h112v-507h-112l-10 68q-54 -79 -161 -79q-101 0 -168 76t-67 189q0 112 67 188t168 76zM295 396q-55 0 -91.5 -39.5t-36.5 -102.5t36.5 -103t91.5 -40q53 0 90 37q38 38 38 103v5q0 64 -38 102t-90 38zM156 685h279v-97h-279v97z" />
    <glyph glyph-name="aring.alt" horiz-adv-x="619" 
d="M268 518q107 0 161 -79l10 68h112v-507h-112l-10 68q-54 -79 -161 -79q-101 0 -168 76t-67 189q0 112 67 188t168 76zM295 396q-55 0 -91.5 -39.5t-36.5 -102.5t36.5 -103t91.5 -40q53 0 90 37q38 38 38 103v5q0 64 -38 102t-90 38zM291 772q50 0 81 -31.5t31 -79.5
q0 -46 -32 -77t-80 -31t-80 31t-32 77q0 48 31.5 79.5t80.5 31.5zM291 709q-19 0 -32 -13.5t-13 -33.5q0 -18 13 -31.5t32 -13.5q20 0 32.5 13t12.5 32q0 20 -12.5 33.5t-32.5 13.5z" />
    <glyph glyph-name="atilde.alt" horiz-adv-x="619" 
d="M268 518q107 0 161 -79l10 68h112v-507h-112l-10 68q-54 -79 -161 -79q-101 0 -168 76t-67 189q0 112 67 188t168 76zM295 396q-55 0 -91.5 -39.5t-36.5 -102.5t36.5 -103t91.5 -40q53 0 90 37q38 38 38 103v5q0 64 -38 102t-90 38zM232 721q54 0 79 -33t51 -33
q33 0 33 57h77q0 -67 -28 -105t-83 -38q-54 0 -79 33q-24 34 -51 34q-34 0 -34 -58h-76q0 68 28 105.5t83 37.5z" />
    <glyph glyph-name="gbreve.alt" horiz-adv-x="615" 
d="M288 396q-54 0 -87.5 -37.5t-33.5 -97.5t34.5 -97.5t86.5 -37.5q51 0 89 35q37 36 39 96v6q0 61 -39 97q-38 36 -89 36zM261 518q107 0 161 -79l9 68h113v-495q0 -106 -71 -172t-184 -66q-105 0 -172 50t-76 146h127q16 -78 121 -78q59 0 91.5 31.5t32.5 85.5v61
q-21 -30 -61.5 -48.5t-90.5 -18.5q-99 0 -164 72q-64 73 -64 186q0 114 64 185q65 72 164 72zM344 714h103q0 -66 -45 -110q-45 -42 -116 -42q-69 0 -114 42q-45 44 -45 110h103q0 -31 15 -49.5t42 -18.5q26 0 41.5 19t15.5 49z" />
    <glyph glyph-name="gcircumflex.alt" horiz-adv-x="615" 
d="M288 396q-54 0 -87.5 -37.5t-33.5 -97.5t34.5 -97.5t86.5 -37.5q51 0 89 35q37 36 39 96v6q0 61 -39 97q-38 36 -89 36zM261 518q107 0 161 -79l9 68h113v-495q0 -106 -71 -172t-184 -66q-105 0 -172 50t-76 146h127q16 -78 121 -78q59 0 91.5 31.5t32.5 85.5v61
q-21 -30 -61.5 -48.5t-90.5 -18.5q-99 0 -164 72q-64 73 -64 186q0 114 64 185q65 72 164 72zM239 732h96l140 -158h-132l-56 78l-56 -78h-131z" />
    <glyph glyph-name="gcommaaccent.alt" horiz-adv-x="615" 
d="M288 396q-54 0 -87.5 -37.5t-33.5 -97.5t34.5 -97.5t86.5 -37.5q51 0 89 35q37 36 39 96v6q0 61 -39 97q-38 36 -89 36zM261 518q107 0 161 -79l9 68h113v-495q0 -106 -71 -172t-184 -66q-105 0 -172 50t-76 146h127q16 -78 121 -78q59 0 91.5 31.5t32.5 85.5v61
q-21 -30 -61.5 -48.5t-90.5 -18.5q-99 0 -164 72q-64 73 -64 186q0 114 64 185q65 72 164 72zM292 842l38 -13q-24 -49 -30 -114q28 -4 46.5 -24t18.5 -49q0 -32 -22.5 -54.5t-54.5 -22.5q-34 0 -56.5 23.5t-22.5 61.5q1 47 23.5 99.5t59.5 92.5z" />
    <glyph glyph-name="gdotaccent.alt" horiz-adv-x="615" 
d="M288 396q-54 0 -87.5 -37.5t-33.5 -97.5t34.5 -97.5t86.5 -37.5q51 0 89 35q37 36 39 96v6q0 61 -39 97q-38 36 -89 36zM261 518q107 0 161 -79l9 68h113v-495q0 -106 -71 -172t-184 -66q-105 0 -172 50t-76 146h127q16 -78 121 -78q59 0 91.5 31.5t32.5 85.5v61
q-21 -30 -61.5 -48.5t-90.5 -18.5q-99 0 -164 72q-64 73 -64 186q0 114 64 185q65 72 164 72zM231 704q23 22 56 22t56 -22q24 -22 24 -55t-24 -55q-23 -22 -56 -22t-56 22q-22 22 -22 55t22 55z" />
    <glyph glyph-name="acircumflex.alt" horiz-adv-x="619" 
d="M268 518q107 0 161 -79l10 68h112v-507h-112l-10 68q-54 -79 -161 -79q-101 0 -168 76t-67 189q0 112 67 188t168 76zM295 396q-55 0 -91.5 -39.5t-36.5 -102.5t36.5 -103t91.5 -40q53 0 90 37q38 38 38 103v5q0 64 -38 102t-90 38zM256 732h96l140 -158h-132l-56 78
l-56 -78h-131z" />
    <glyph glyph-name="zero.tnum" horiz-adv-x="572" 
d="M285 553q117 0 183 -77q67 -76 67 -205q0 -131 -67 -207q-66 -77 -183 -77q-114 0 -182 77q-66 78 -66 207t66 205q68 77 182 77zM285 427q-50 0 -80 -43t-30 -113q0 -71 30 -114.5t80 -43.5q51 0 81 43t30 115q0 70 -30 113t-81 43z" />
    <glyph glyph-name="one.tnum" horiz-adv-x="385" 
d="M215 540h101v-540h-138v336h-147v105q82 0 127 23t57 76z" />
    <glyph glyph-name="two.tnum" horiz-adv-x="497" 
d="M256 553q98 0 153.5 -52t55.5 -140q0 -49 -20.5 -86.5t-65.5 -74.5l-87 -72h176v-128h-426v74l223 180q34 28 48 50t14 50q0 34 -19 52.5t-55 18.5t-56 -23.5t-19 -68.5h-138q-2 101 58 160q60 60 158 60z" />
    <glyph glyph-name="three.tnum" horiz-adv-x="546" 
d="M266 553q100 0 157 -57q58 -55 58 -142q0 -52 -24 -88t-63 -52q50 -15 80.5 -55.5t30.5 -102.5q0 -96 -63 -152.5t-168 -56.5q-111 0 -173.5 60t-62.5 167h137q1 -48 28 -73.5t75 -25.5q40 0 64.5 23.5t24.5 63.5q0 91 -120 91h-42v118h40q98 0 98 77q0 36 -19.5 56.5
t-55.5 20.5t-58 -24.5t-22 -69.5h-138q0 103 58.5 162.5t157.5 59.5z" />
    <glyph glyph-name="four.tnum" horiz-adv-x="575" 
d="M284 540h170v-442h89v-123h-89v-115h-138v115h-294v111zM318 97v271l-18 -39l-135 -232h153z" />
    <glyph glyph-name="five.tnum" horiz-adv-x="543" 
d="M65 540h407v-128h-268v-130q37 19 93 19q95 0 153 -56t58 -159q0 -108 -63 -173q-62 -66 -170 -66t-169 56.5t-61 160.5h138q1 -43 25.5 -66t67.5 -23q45 0 69.5 27.5t24.5 76.5t-25 75q-25 27 -72 27q-48 0 -85 -25h-123v384z" />
    <glyph glyph-name="six.tnum" horiz-adv-x="560" 
d="M294 693q92 0 153 -56q61 -55 64 -148h-140q-6 76 -83 76q-104 0 -109 -183q19 27 54 43t76 16q96 0 155 -62t59 -158q0 -105 -65 -170q-64 -64 -167 -64q-113 0 -177 72q-74 86 -74 267q0 185 62.5 276t191.5 91zM286 324q-42 0 -71 -29t-30 -71v-4q0 -45 28.5 -76
t72.5 -31q42 0 69.5 30.5t27.5 76.5q0 44 -27.5 74t-69.5 30z" />
    <glyph glyph-name="seven.tnum" horiz-adv-x="508" 
d="M36 540h434v-111l-256 -569h-149l248 551h-277v129z" />
    <glyph glyph-name="eight.tnum" horiz-adv-x="557" 
d="M495 492q0 -92 -75 -142q94 -49 94 -156q0 -89 -68 -148q-67 -58 -167 -58q-102 0 -169 58t-67 148q0 110 93 156q-74 50 -74 142q0 84 60 143q62 59 157 59t156 -59q60 -59 60 -143zM279 290q-43 0 -70 -24t-27 -65q0 -39 27 -62.5t70 -23.5t70 23.5t27 62.5
q0 40 -27.5 64.5t-69.5 24.5zM279 567q-37 0 -59.5 -22.5t-22.5 -57.5t22.5 -56.5t59.5 -21.5t59 21.5t22 56.5t-23 57.5t-58 22.5z" />
    <glyph glyph-name="nine.tnum" horiz-adv-x="560" 
d="M265 -153q-92 0 -154 56q-60 55 -63 148h140q6 -76 83 -76q105 0 109 182q-19 -25 -54.5 -41.5t-75.5 -16.5q-97 0 -155 61q-59 62 -59 159q0 105 65 170q64 64 167 64q112 0 177 -72q74 -86 74 -267q0 -185 -62.5 -276t-191.5 -91zM273 216q41 0 70.5 28.5t30.5 70.5v5
q0 45 -28.5 76t-72.5 31q-42 0 -69.5 -30.5t-27.5 -76.5q0 -44 27.5 -74t69.5 -30z" />
    <glyph glyph-name="zero.dnom" horiz-adv-x="373" 
d="M340 197q0 -97 -40 -150.5t-114 -53.5t-113.5 53.5t-39.5 150.5q0 96 39.5 149t113.5 53t114 -53t40 -149zM132 197q0 -113 54 -113t54 113q0 111 -54 111t-54 -111z" />
    <glyph glyph-name="one.dnom" horiz-adv-x="268" 
d="M147 392h71v-392h-98v256h-89v76q101 0 116 60z" />
    <glyph glyph-name="two.dnom" horiz-adv-x="324" 
d="M165 399q63 0 98 -31.5t35 -86.5q0 -57 -53 -113l-76 -76h127v-92h-264v72l125 129q25 25 33.5 39.5t8.5 32.5q0 35 -35 35q-39 0 -39 -43h-99q-1 59 38 96.5t101 37.5z" />
    <glyph glyph-name="three.dnom" horiz-adv-x="355" 
d="M174 399q62 0 98.5 -33t36.5 -85q0 -54 -49 -76q63 -19 63 -88q0 -59 -39 -91.5t-106 -32.5q-69 0 -107 34t-38 97h98q0 -20 14 -30.5t36 -10.5q20 0 31.5 10.5t11.5 28.5q0 42 -57 42h-30v77h29q44 0 44 36q3 23 -23 30q-29 7 -44 -13q-7 -10 -6 -23h-98q0 60 36 94
t99 34z" />
    <glyph glyph-name="four.dnom" horiz-adv-x="380" 
d="M174 392h124v-243h51v-87h-51v-62h-98v62h-177v78zM201 148v130l-9 -21l-68 -109h77z" />
    <glyph glyph-name="five.dnom" horiz-adv-x="351" 
d="M45 392h254v-92h-155v-57q21 10 51 10q56 0 90.5 -31t34.5 -88q0 -64 -38.5 -102.5t-104.5 -38.5q-67 0 -105.5 33.5t-38.5 93.5h98q1 -36 46 -36t45 46q0 45 -45 45q-25 0 -44 -12h-88v229z" />
    <glyph glyph-name="six.dnom" horiz-adv-x="363" 
d="M189 399q60 0 97 -34t38 -91h-99q-4 34 -40 34q-54 0 -54 -83q27 21 72 21q57 0 92 -33t35 -85q0 -63 -39.5 -99t-104.5 -36q-70 0 -108 42q-47 50 -47 155q0 209 158 209zM134 127q0 -19 13.5 -31.5t35.5 -12.5q21 0 34.5 12t13.5 31q3 26 -22.5 37t-51 0.5t-23.5 -36.5
z" />
    <glyph glyph-name="seven.dnom" horiz-adv-x="316" 
d="M28 392h267v-79l-145 -313h-107l139 299h-154v93z" />
    <glyph glyph-name="eight.dnom" horiz-adv-x="359" 
d="M179 399q60 0 98 -34t38 -86q0 -48 -42 -79q52 -28 52 -84q0 -54 -42 -88q-43 -35 -104 -35t-104 35q-42 34 -42 88q0 57 52 84q-41 32 -41 79q0 52 38 86t97 34zM179 79q20 0 33.5 11.5t13.5 29.5t-14 30t-33 12t-32.5 -12t-13.5 -30t13.5 -29.5t32.5 -11.5zM179 240
q24 -2 34 17t0 38.5t-34 17.5q-23 2 -33 -17.5t0 -38.5t33 -17z" />
    <glyph glyph-name="nine.dnom" horiz-adv-x="363" 
d="M176 399q75 0 110 -41q46 -49 46 -156q0 -209 -159 -209q-58 0 -95.5 34.5t-38.5 90.5h99q4 -34 40 -34q54 0 54 83v1q-28 -20 -72 -20q-57 0 -92.5 32t-35.5 84q0 62 40 98.5t104 36.5zM180 221q21 0 35 13t14 31q0 19 -13.5 31.5t-35.5 12.5q-20 0 -34 -12.5t-14 -31.5
q0 -18 14 -31t34 -13z" />
    <glyph glyph-name="zero.subs" horiz-adv-x="373" 
d="M340 97q0 -97 -40 -150.5t-114 -53.5t-113.5 53.5t-39.5 150.5q0 96 39.5 149t113.5 53t114 -53t40 -149zM132 97q0 -113 54 -113t54 113q0 111 -54 111t-54 -111z" />
    <glyph glyph-name="one.subs" horiz-adv-x="268" 
d="M147 292h71v-392h-98v256h-89v76q101 0 116 60z" />
    <glyph glyph-name="two.subs" horiz-adv-x="324" 
d="M165 299q63 0 98 -31.5t35 -86.5q0 -57 -53 -113l-76 -76h127v-92h-264v72l125 129q25 25 33.5 39.5t8.5 32.5q0 35 -35 35q-39 0 -39 -43h-99q-1 59 38 96.5t101 37.5z" />
    <glyph glyph-name="three.subs" horiz-adv-x="355" 
d="M174 299q62 0 98.5 -33t36.5 -85q0 -54 -49 -76q63 -19 63 -88q0 -59 -39 -91.5t-106 -32.5q-69 0 -107 34t-38 97h98q0 -20 14 -30.5t36 -10.5q20 0 31.5 10.5t11.5 28.5q0 42 -57 42h-30v77h29q44 0 44 36q3 23 -23 30q-29 7 -44 -13q-7 -10 -6 -23h-98q0 60 36 94
t99 34z" />
    <glyph glyph-name="four.subs" horiz-adv-x="380" 
d="M174 292h124v-243h51v-87h-51v-62h-98v62h-177v78zM201 48v130l-9 -21l-68 -109h77z" />
    <glyph glyph-name="five.subs" horiz-adv-x="351" 
d="M45 292h254v-92h-155v-57q21 10 51 10q56 0 90.5 -31t34.5 -88q0 -64 -38.5 -102.5t-104.5 -38.5q-67 0 -105.5 33.5t-38.5 93.5h98q1 -36 46 -36t45 46q0 45 -45 45q-25 0 -44 -12h-88v229z" />
    <glyph glyph-name="six.subs" horiz-adv-x="363" 
d="M189 299q60 0 97 -34t38 -91h-99q-4 34 -40 34q-54 0 -54 -83q27 21 72 21q57 0 92 -33t35 -85q0 -63 -39.5 -99t-104.5 -36q-70 0 -108 42q-47 50 -47 155q0 209 158 209zM134 27q0 -19 13.5 -31.5t35.5 -12.5q21 0 34.5 12t13.5 31q3 26 -22.5 37t-51 0.5t-23.5 -36.5z
" />
    <glyph glyph-name="seven.subs" horiz-adv-x="316" 
d="M28 292h267v-79l-145 -313h-107l139 299h-154v93z" />
    <glyph glyph-name="eight.subs" horiz-adv-x="359" 
d="M179 299q60 0 98 -34t38 -86q0 -47 -42 -79q52 -28 52 -84q0 -54 -42 -88q-43 -35 -104 -35t-104 35q-42 34 -42 88q0 57 52 84q-41 32 -41 79q0 52 38 86t97 34zM179 -21q20 0 33.5 11.5t13.5 29.5t-14 30t-33 12t-32.5 -12t-13.5 -30t13.5 -29.5t32.5 -11.5zM179 140
q24 -2 34 17t0 38.5t-34 17.5q-23 2 -33 -17.5t0 -38.5t33 -17z" />
    <glyph glyph-name="nine.subs" horiz-adv-x="363" 
d="M176 299q75 0 110 -41q46 -49 46 -156q0 -209 -159 -209q-58 0 -95.5 34.5t-38.5 90.5h99q4 -34 40 -34q54 0 54 83v1q-28 -20 -72 -20q-57 0 -92.5 32t-35.5 84q0 62 40 98.5t104 36.5zM180 121q21 0 35 13t14 31q0 19 -13.5 31.5t-35.5 12.5q-20 0 -34 -12.5t-14 -31.5
q0 -18 14 -31t34 -13z" />
    <glyph glyph-name="zero.numr" horiz-adv-x="373" 
d="M340 505q0 -97 -40 -150.5t-114 -53.5t-113.5 53.5t-39.5 150.5q0 96 39.5 149t113.5 53t114 -53t40 -149zM132 505q0 -113 54 -113t54 113q0 111 -54 111t-54 -111z" />
    <glyph glyph-name="one.numr" horiz-adv-x="268" 
d="M147 700h71v-392h-98v256h-89v76q101 0 116 60z" />
    <glyph glyph-name="two.numr" horiz-adv-x="324" 
d="M165 707q63 0 98 -31.5t35 -86.5q0 -57 -53 -113l-76 -76h127v-92h-264v72l125 129q25 25 33.5 39.5t8.5 32.5q0 35 -35 35q-39 0 -39 -43h-99q-1 59 38 96.5t101 37.5z" />
    <glyph glyph-name="three.numr" horiz-adv-x="355" 
d="M174 707q62 0 98.5 -33t36.5 -85q0 -54 -49 -76q63 -19 63 -88q0 -59 -39 -91.5t-106 -32.5q-69 0 -107 34t-38 97h98q0 -20 14 -30.5t36 -10.5q20 0 31.5 10.5t11.5 28.5q0 42 -57 42h-30v77h29q44 0 44 36q3 23 -23 30q-29 7 -44 -13q-7 -10 -6 -23h-98q0 60 36 94
t99 34z" />
    <glyph glyph-name="four.numr" horiz-adv-x="380" 
d="M174 700h124v-243h51v-87h-51v-62h-98v62h-177v78zM201 456v130l-9 -21l-68 -109h77z" />
    <glyph glyph-name="five.numr" horiz-adv-x="351" 
d="M45 700h254v-92h-155v-57q21 10 51 10q56 0 90.5 -31t34.5 -88q0 -64 -38.5 -102.5t-104.5 -38.5q-67 0 -105.5 33.5t-38.5 93.5h98q1 -36 46 -36t45 46q0 45 -45 45q-25 0 -44 -12h-88v229z" />
    <glyph glyph-name="six.numr" horiz-adv-x="363" 
d="M189 707q60 0 97 -34t38 -91h-99q-4 34 -40 34q-54 0 -54 -83q27 21 72 21q57 0 92 -33t35 -85q0 -63 -39.5 -99t-104.5 -36q-70 0 -108 42q-47 50 -47 155q0 209 158 209zM134 435q0 -19 13.5 -31.5t35.5 -12.5q21 0 34.5 12t13.5 31q3 26 -22.5 37t-51 0.5t-23.5 -36.5
z" />
    <glyph glyph-name="seven.numr" horiz-adv-x="316" 
d="M28 700h267v-79l-145 -313h-107l139 299h-154v93z" />
    <glyph glyph-name="eight.numr" horiz-adv-x="359" 
d="M179 707q60 0 98 -34t38 -86q0 -47 -42 -79q52 -28 52 -84q0 -54 -42 -88q-43 -35 -104 -35t-104 35q-42 34 -42 88q0 57 52 84q-41 32 -41 79q0 52 38 86t97 34zM179 387q20 0 33.5 11.5t13.5 29.5t-14 30t-33 12t-32.5 -12t-13.5 -30t13.5 -29.5t32.5 -11.5zM179 548
q24 -2 34 17t0 38.5t-34 17.5q-23 2 -33 -17.5t0 -38.5t33 -17z" />
    <glyph glyph-name="nine.numr" horiz-adv-x="363" 
d="M176 707q75 0 110 -41q46 -49 46 -156q0 -209 -159 -209q-58 0 -95.5 34.5t-38.5 90.5h99q4 -34 40 -34q54 0 54 83v1q-28 -20 -72 -20q-57 0 -92.5 32t-35.5 84q0 62 40 98.5t104 36.5zM180 529q21 0 35 13t14 31q0 19 -13.5 31.5t-35.5 12.5q-20 0 -34 -12.5t-14 -31.5
q0 -18 14 -31t34 -13z" />
    <glyph glyph-name="zero.lnum" horiz-adv-x="575" 
d="M536 351q0 -169 -65 -267q-64 -97 -183 -97q-120 0 -184 97q-65 98 -65 267q0 168 65 265q64 97 184 97q119 0 183 -97q65 -97 65 -265zM178 351q0 -114 28 -175t82 -61t81.5 61t27.5 175q0 113 -27.5 173.5t-81.5 60.5t-82 -60.5t-28 -173.5z" />
    <glyph glyph-name="one.lnum" horiz-adv-x="575" 
d="M293 700h101v-577h130v-123h-397v123h129v362h-147v116q85 0 128 22.5t56 76.5z" />
    <glyph glyph-name="two.lnum" horiz-adv-x="575" 
d="M297 713q100 0 154.5 -54.5t54.5 -148.5q0 -55 -21 -102t-66 -101l-146 -179h242v-128h-433v100l214 256q40 47 55.5 78t15.5 69q0 82 -72 82q-39 0 -59.5 -25t-19.5 -73h-138q-1 103 58 164q62 62 161 62z" />
    <glyph glyph-name="three.lnum" horiz-adv-x="575" 
d="M285 713q101 0 158 -58q58 -57 58 -146q0 -54 -24.5 -91.5t-62.5 -53.5q50 -15 80.5 -56.5t30.5 -106.5q0 -99 -63.5 -156.5t-169.5 -57.5q-109 0 -171.5 60t-62.5 167h137q0 -48 27 -73.5t74 -25.5q41 0 65.5 25t24.5 67q0 96 -120 96h-41v118h39q99 0 99 82
q0 38 -20 60t-55 22q-36 0 -58.5 -24.5t-22.5 -69.5h-137q0 103 58 162.5t157 59.5z" />
    <glyph glyph-name="four.lnum" horiz-adv-x="575" 
d="M285 700h171v-452h89v-123h-89v-125h-138v125h-287v111zM320 247v282l-18 -39l-129 -243h147z" />
    <glyph glyph-name="five.lnum" horiz-adv-x="575" 
d="M86 700h406v-128h-268v-141q42 20 95 20q96 0 152.5 -56.5t56.5 -163.5q0 -112 -63 -178q-61 -66 -169 -66t-169 56.5t-61 160.5h137q1 -43 25.5 -66t68.5 -23t68.5 29t24.5 80t-25.5 79t-70.5 28q-48 0 -85 -25h-123v394z" />
    <glyph glyph-name="six.lnum" horiz-adv-x="575" 
d="M304 713q92 0 153 -59q61 -58 64 -153h-139q-6 84 -84 84q-106 0 -109 -195q44 51 129 51q98 0 156 -61q59 -62 59 -159q0 -106 -65 -171q-64 -63 -167 -63q-115 0 -176 72q-74 86 -74 277q0 190 62.5 283.5t190.5 93.5zM296 324q-41 0 -69.5 -28.5t-30.5 -71.5v-4
q0 -45 28 -76t72 -31q43 0 70.5 30t27.5 77q0 45 -27.5 74.5t-70.5 29.5z" />
    <glyph glyph-name="seven.lnum" horiz-adv-x="575" 
d="M69 700h449v-111l-256 -589h-149l248 571h-292v129z" />
    <glyph glyph-name="eight.lnum" horiz-adv-x="575" 
d="M288 713q96 0 156 -60t60 -147q0 -48 -21.5 -86.5t-53.5 -60.5q95 -50 95 -159q0 -91 -68 -153q-68 -60 -168 -60q-102 0 -169 60q-68 62 -68 153q0 57 26 98t68 61q-32 22 -53 60.5t-21 86.5q0 87 60 147t157 60zM288 300q-42 0 -70 -26.5t-28 -68.5q0 -41 27.5 -66
t70.5 -25t70 25t27 66q0 42 -28 68.5t-69 26.5zM288 586q-37 0 -59.5 -23.5t-22.5 -61.5t22 -60q23 -23 60 -23t59 22t22 61q0 38 -22.5 61.5t-58.5 23.5z" />
    <glyph glyph-name="nine.lnum" horiz-adv-x="575" 
d="M271 -13q-93 0 -154 58q-60 58 -63 154h139q6 -84 84 -84q105 0 109 195q-46 -51 -129 -51q-99 0 -157 61t-58 159q0 107 64 170q64 64 168 64q114 0 176 -72q74 -86 74 -277q0 -190 -62.5 -283.5t-190.5 -93.5zM279 376q41 0 70 28.5t30 70.5v5q0 45 -28 76t-72 31
q-43 0 -70.5 -30t-27.5 -77q0 -45 27.5 -74.5t70.5 -29.5z" />
    <glyph glyph-name="b.sups" horiz-adv-x="459" 
d="M57 855h99v-184q36 41 103 41q72 0 118 -52q48 -52 48 -129q0 -75 -48 -128q-47 -51 -118 -51q-73 0 -110 51l-7 -44h-85v496zM239 620q-34 0 -57.5 -22.5t-27.5 -61.5l-1 -7q0 -38 25.5 -61.5t60.5 -23.5q36 0 59.5 24t23.5 63t-23.5 64t-59.5 25z" />
    <glyph glyph-name="c.sups" horiz-adv-x="415" 
d="M214 712q67 0 111 -35t53 -99h-94q-16 45 -69 45q-34 0 -56.5 -26t-22.5 -66q0 -39 23 -64.5t59 -25.5q25 0 43 12.5t23 32.5h96q-12 -64 -56.5 -99t-109.5 -35q-80 0 -130 49q-50 50 -50 130q0 78 50 130q51 51 130 51z" />
    <glyph glyph-name="d.sups" horiz-adv-x="459" 
d="M303 855h98v-496h-84l-7 44q-40 -51 -111 -51q-72 0 -118 51q-47 53 -47 128q0 76 47 129q48 52 118 52q68 0 104 -41v184zM220 620q-36 0 -60 -25t-24 -64t24 -63t60 -24q35 0 60 23.5t25 61.5v7q-1 38 -25.5 61t-59.5 23z" />
    <glyph glyph-name="e.sups" horiz-adv-x="414" 
d="M211 712q77 0 122 -47t45 -134v-28h-242q1 -30 22 -48.5t57 -18.5q51 0 65 35h96q-35 -119 -164 -119q-80 0 -129 49t-49 130q0 80 49 130q49 51 128 51zM209 631q-32 0 -51.5 -17.5t-21.5 -45.5h142q-1 29 -19.5 46t-49.5 17z" />
    <glyph glyph-name="f.sups" horiz-adv-x="276" 
d="M210 863q32 0 47 -6v-87q-15 7 -35 7q-46 0 -46 -44v-28h79v-90h-80v-256h-98v256h-55v90h55v31q0 127 133 127z" />
    <glyph glyph-name="g.sups" horiz-adv-x="397" 
d="M246 705h134v-84h-44q4 -17 4 -31q0 -51 -41 -86q-41 -33 -103 -33q-27 0 -56 8q-9 -9 -9 -24q0 -28 33 -28h84q55 0 87 -26.5t32 -74.5q0 -58 -43 -89.5t-119 -31.5q-80 0 -122.5 27.5t-42.5 77.5q0 40 36 62q-40 28 -40 74q0 47 36 74q-25 29 -25 70q0 52 42 87
q44 35 107 35q23 0 50 -7zM222 357h-53q-14 -2 -23 -12.5t-9 -25.5q0 -21 19 -33t50 -12q65 0 65 45q0 18 -13.5 28t-35.5 10zM144 590q0 -22 14 -36t37 -14t37 14t14 36q0 23 -14 37.5t-37 14.5t-37 -14.5t-14 -37.5z" />
    <glyph glyph-name="h.sups" horiz-adv-x="421" 
d="M57 855h99v-184q32 41 95 41q56 0 86.5 -34t30.5 -94v-225h-99v197q0 60 -50 60q-28 0 -45.5 -19t-17.5 -55v-183h-99v496z" />
    <glyph glyph-name="i.sups" horiz-adv-x="215" 
d="M58 705h99v-346h-99v346zM108 861q24 0 41 -16.5t17 -40.5t-17 -40.5t-41 -16.5q-25 0 -42 16.5t-17 40.5q0 25 17 41t42 16z" />
    <glyph glyph-name="j.sups" horiz-adv-x="215" 
d="M58 705h98v-354q0 -146 -123 -146q-39 0 -61 7v88q21 -6 42 -6q44 0 44 60v351zM66 844q17 17 41 17t41 -17q18 -16 18 -40t-18 -41q-17 -16 -41 -16t-41 16q-17 17 -17 41t17 40z" />
    <glyph glyph-name="k.sups" horiz-adv-x="407" 
d="M59 855h98v-283l97 133h116l-101 -146l120 -200h-112l-77 124l-43 -53v-71h-98v496z" />
    <glyph glyph-name="l.sups" horiz-adv-x="215" 
d="M58 855h99v-496h-99v496z" />
    <glyph glyph-name="m.sups" horiz-adv-x="627" 
d="M460 712q54 0 84 -34t30 -94v-225h-98v197q0 60 -49 60q-27 0 -44 -19t-17 -55v-183h-99v197q0 60 -49 60q-28 0 -45 -19t-17 -55v-183h-99v346h85l7 -44q29 51 101 51q74 0 102 -58q33 58 108 58z" />
    <glyph glyph-name="o.sups" horiz-adv-x="444" 
d="M221 712q83 0 135 -51q54 -49 54 -130q0 -79 -54 -129q-53 -50 -135 -50q-81 0 -134 50t-53 129q0 80 53 130q53 51 134 51zM284 597q-24 26 -62 26t-62 -26t-24 -65t24 -65t62 -26t62 26t24 65t-24 65z" />
    <glyph glyph-name="p.sups" horiz-adv-x="460" 
d="M427 532q0 -76 -48 -128q-46 -52 -118 -52q-67 0 -104 42v-181h-98v492h84l8 -45q39 52 110 52q72 0 118 -52q48 -51 48 -128zM241 620q-35 0 -60.5 -23.5t-25.5 -61.5v-7q1 -38 25.5 -61t59.5 -23q36 0 60 24.5t24 63.5t-23.5 63.5t-59.5 24.5z" />
    <glyph glyph-name="q.sups" horiz-adv-x="460" 
d="M199 712q71 0 111 -52l7 45h84v-492h-98v181q-37 -42 -104 -42q-70 0 -118 52q-47 53 -47 128q0 76 47 128q46 52 118 52zM220 620q-36 0 -60 -24.5t-24 -63.5t24 -63.5t60 -24.5q35 0 59.5 23t25.5 61v7q0 38 -25 61.5t-60 23.5z" />
    <glyph glyph-name="r.sups" horiz-adv-x="291" 
d="M262 708v-98q-47 0 -76 -20q-27 -19 -29 -57v-174h-98v346h84l9 -52q25 55 110 55z" />
    <glyph glyph-name="s.sups" horiz-adv-x="355" 
d="M178 712q59 0 97.5 -30.5t39.5 -79.5h-99q-2 33 -39 33q-38 0 -38 -28q0 -15 14 -23t50 -13q63 -10 91.5 -35t28.5 -70q0 -55 -40.5 -84.5t-104.5 -29.5q-66 0 -105 30t-41 82h99q2 -35 49 -35q42 0 42 28q0 15 -13.5 23t-51.5 14q-118 18 -118 104q0 50 37.5 82
t101.5 32z" />
    <glyph glyph-name="t.sups" horiz-adv-x="292" 
d="M80 787h99l-1 -82h78v-90h-79l-1 -124q0 -26 10 -37t35 -11q26 0 35 4v-85q-24 -8 -58 -8q-62 0 -92 27t-29 85l1 149h-56v90h57z" />
    <glyph glyph-name="u.sups" horiz-adv-x="416" 
d="M260 705h99v-346h-84l-7 44q-32 -51 -101 -51q-55 0 -85 33.5t-30 92.5v227h99v-200q0 -58 49 -58q26 0 43 18t17 51v189z" />
    <glyph glyph-name="v.sups" horiz-adv-x="386" 
d="M264 705h106l-127 -346h-101l-126 346h106l64 -200l7 -32l7 32z" />
    <glyph glyph-name="w.sups" horiz-adv-x="571" 
d="M448 705h106l-106 -346h-103l-60 189l-65 -189h-97l-106 346h105l49 -198l8 -38l7 38l56 198h87l55 -198l8 -38l6 38z" />
    <glyph glyph-name="x.sups" horiz-adv-x="399" 
d="M260 705h114l-106 -171l109 -175h-114l-63 101l-64 -101h-114l110 175l-106 171h114l60 -95z" />
    <glyph glyph-name="y.sups" horiz-adv-x="389" 
d="M264 705h106l-180 -492h-102l52 150l-124 342h106l64 -200l7 -32l7 32z" />
    <glyph glyph-name="z.sups" horiz-adv-x="360" 
d="M37 705h284v-74l-154 -186h163v-86h-294v73l154 187h-153v86z" />
    <glyph glyph-name="a.sups" horiz-adv-x="388" 
d="M193 712q68 0 106.5 -32.5t38.5 -94.5v-226h-83l-6 39q-36 -46 -101 -46q-49 0 -78.5 27t-29.5 72q0 47 27.5 71.5t84.5 33.5l88 16v11q0 45 -47 45q-22 0 -35.5 -10.5t-13.5 -28.5h-95q4 55 42.5 89t101.5 34zM240 497v9l-66 -13q-19 -3 -27.5 -10t-8.5 -22
q0 -29 36 -29q40 0 56 28q10 16 10 37z" />
    <glyph glyph-name="g.alt.sups" horiz-adv-x="455" 
d="M214 620q-34 0 -56 -22.5t-22 -60.5q0 -36 22.5 -59t55.5 -23q35 0 60 21.5t25 56.5v8q0 36 -25 57.5t-60 21.5zM193 712q71 0 111 -52l7 45h85v-337q0 -73 -50.5 -118t-131.5 -45q-75 0 -122.5 35.5t-53.5 102.5h96q9 -49 80 -49q39 0 61 19.5t22 52.5v38
q-36 -41 -104 -41q-69 0 -114 48q-45 49 -45 126q0 78 45 126q45 49 114 49z" />
    <glyph glyph-name="a.alt.sups" horiz-adv-x="459" 
d="M310 661l7 44h84v-346h-84l-7 44q-40 -51 -111 -51q-72 0 -118 52q-47 53 -47 128t47 128q46 52 118 52q71 0 111 -51zM220 444q35 0 60 23.5t25 61.5v7q2 38 -24.5 61.5t-62 23t-58.5 -24.5q-24 -24 -24 -64q0 -39 24 -63.5t60 -24.5z" />
    <glyph glyph-name="g_i.alt" horiz-adv-x="607" 
d="M305 754q122 0 197 -79q75 -78 75 -199q0 -120 -75 -200q-75 -78 -197 -78q-123 0 -199 78q-76 79 -76 200q0 122 76 199q76 79 199 79zM305 683q-89 0 -145 -59q-55 -58 -55 -148q0 -91 55 -149t145 -58q89 0 143 58q54 59 54 149t-54 148q-54 59 -143 59z" />
    <glyph glyph-name="zero.slash" horiz-adv-x="572" 
d="M535 351q0 -169 -65 -267q-64 -97 -184 -97t-184 97t-64 267t64 265q64 97 184 97t184 -97q65 -97 65 -265zM395 351q0 64 -9 112l-167 -312q25 -36 67 -36q54 0 81.5 61t27.5 175zM286 585q-54 0 -81.5 -60.5t-27.5 -173.5q0 -64 9 -112l166 311q-26 35 -66 35z" />
    <glyph glyph-name="L_a_r_s_s_e_i_t" horiz-adv-x="3192" 
d="M1695 740v-123q-42 0 -66 -25t-24 -72v-13h326v-102l-110 -181q73 -16 118 -76q46 -58 46 -135q0 -110 -61.5 -171.5t-175.5 -61.5q-48 0 -86 8l2 131q38 -11 72 -11q50 0 79.5 26.5t29.5 76.5q0 48 -32.5 75t-89.5 27h-47v94l108 182h-179v-389h-138v517q0 223 228 223z
M2269 518q108 0 171.5 -68.5t63.5 -195.5v-40h-353q3 -51 36 -82.5t86 -31.5q79 0 102 59h126q-50 -170 -232 -170q-113 0 -183 72q-69 73 -69 192q0 117 70 190q71 75 182 75zM779 518q94 0 147.5 -47.5t53.5 -137.5v-333h-111l-8 62q-48 -73 -145 -73q-69 0 -111.5 40
t-42.5 106q0 67 40 103t117 49l131 24v19q0 77 -71 77q-33 0 -54.5 -18.5t-21.5 -48.5h-126q5 80 60 129t142 49zM70 700h138v-572h291v-128h-429v700zM2911 630h131l-1 -123h116v-118h-117l-2 -205q0 -40 14.5 -56.5t51.5 -16.5q29 0 53 7v-114q-30 -11 -82 -11
q-86 0 -127 38.5t-40 121.5l2 236h-83v118h83zM1378 512v-130q-62 0 -101 -30q-38 -30 -41 -94v-258h-130v507h112l12 -81q32 86 148 86zM2613 507h130v-507h-130v507zM2678 733q32 0 55.5 -22.5t23.5 -54.5q0 -33 -23 -55t-56 -22t-56 22t-23 55q0 32 23 54.5t56 22.5z
M2152 304h221q-1 48 -30 77t-77 29q-47 0 -78 -29t-36 -77zM850 209v15l-101 -21q-57 -13 -57 -57q0 -23 15.5 -36.5t43.5 -13.5q53 0 81 46q18 29 18 67z" />
    <glyph glyph-name="A.smcp" horiz-adv-x="603" 
d="M227 539h149l212 -539h-143l-39 101h-208l-39 -101h-144zM312 355l-10 32l-11 -32l-58 -152h137z" />
    <glyph glyph-name="B.smcp" horiz-adv-x="510" 
d="M64 539h192q89 0 139.5 -42.5t50.5 -116.5q0 -64 -42 -102q72 -34 72 -115q0 -74 -52.5 -118.5t-140.5 -44.5h-219v539zM277 223h-79v-109h79q26 0 42.5 14.5t16.5 39.5t-16 40t-43 15zM253 424h-55v-104h57q25 0 39.5 14t14.5 37q0 24 -15.5 38.5t-40.5 14.5z" />
    <glyph glyph-name="C.smcp" horiz-adv-x="602" 
d="M314 549q103 0 167.5 -50.5t89.5 -143.5h-146q-24 70 -111 70q-62 0 -99.5 -42.5t-37.5 -111.5q0 -70 37.5 -113.5t100.5 -43.5q91 0 119 78h139q-46 -202 -258 -202q-122 0 -200 79q-77 80 -77 202q0 120 77 199q76 79 199 79z" />
    <glyph glyph-name="D.smcp" horiz-adv-x="610" 
d="M64 539h215q133 0 212 -75q80 -75 80 -194q0 -120 -80 -195q-79 -75 -212 -75h-215v539zM279 414h-81v-289h81q75 0 114.5 37t39.5 108q0 70 -39.5 107t-114.5 37z" />
    <glyph glyph-name="E.smcp" horiz-adv-x="442" 
d="M64 539h332v-121h-198v-89h168v-111h-168v-97h198v-121h-332v539z" />
    <glyph glyph-name="F.smcp" horiz-adv-x="421" 
d="M64 539h328v-121h-194v-98h164v-113h-164v-207h-134v539z" />
    <glyph glyph-name="G.smcp" horiz-adv-x="631" 
d="M317 549q104 0 169.5 -50.5t90.5 -141.5h-147q-28 70 -115 70q-60 0 -98.5 -43.5t-38.5 -110.5q0 -72 39 -117t104 -45q103 0 119 81h-113v106h251v-49q0 -121 -72 -190q-70 -69 -185 -69q-125 0 -204 79q-78 79 -78 202q0 121 78 199q78 79 200 79z" />
    <glyph glyph-name="H.smcp" horiz-adv-x="600" 
d="M402 539h134v-539h-134v216h-204v-216h-134v539h134v-198h204v198z" />
    <glyph glyph-name="I.smcp" horiz-adv-x="262" 
d="M64 539h134v-539h-134v539z" />
    <glyph glyph-name="J.smcp" horiz-adv-x="457" 
d="M266 539h134v-359q0 -87 -49.5 -135.5t-132.5 -48.5q-93 0 -142 51t-51 143h133q3 -68 57 -68q51 0 51 63v354z" />
    <glyph glyph-name="K.smcp" horiz-adv-x="575" 
d="M367 539h162l-169 -244l195 -295h-159l-129 193l-69 -85v-108h-134v539h134v-249z" />
    <glyph glyph-name="L.smcp" horiz-adv-x="444" 
d="M64 539h134v-414h223v-125h-357v539z" />
    <glyph glyph-name="M.smcp" horiz-adv-x="742" 
d="M521 539h157v-539h-134v307l-18 -60l-103 -247h-104l-103 247l-18 60v-307h-134v539h157l140 -315l10 -29l10 29z" />
    <glyph glyph-name="N.smcp" horiz-adv-x="617" 
d="M419 539h135v-539h-134l-200 284l-22 38v-322h-134v539h134l199 -287l22 -38v325z" />
    <glyph glyph-name="O.smcp" horiz-adv-x="647" 
d="M324 -10q-127 0 -206 79q-80 80 -80 201q0 122 80 200q79 79 206 79q126 0 205 -79q80 -78 80 -200q0 -121 -80 -201q-79 -79 -205 -79zM431 382q-39 43 -107 43t-108 -43q-39 -44 -39 -112q0 -70 39 -113q40 -43 108 -43t107 43t39 113q0 68 -39 112z" />
    <glyph glyph-name="P.smcp" horiz-adv-x="486" 
d="M64 539h190q94 0 150 -51q56 -50 56 -130q0 -79 -57 -130q-55 -51 -149 -51h-56v-177h-134v539zM253 420h-55v-124h55q32 0 51 16.5t19 45.5t-19 45.5t-51 16.5z" />
    <glyph glyph-name="Q.smcp" horiz-adv-x="650" 
d="M609 270q0 -110 -67 -187l128 -161h-179l-66 83q-53 -15 -101 -15q-127 0 -206 79q-80 80 -80 201q0 122 80 200q79 79 206 79q126 0 205 -79q80 -78 80 -200zM324 114q14 0 18 1v93h118q10 29 10 62q0 68 -39 112q-39 43 -107 43t-108 -43q-39 -44 -39 -112
q0 -70 40 -113t107 -43z" />
    <glyph glyph-name="R.smcp" horiz-adv-x="494" 
d="M64 539h184q95 0 150.5 -49t55.5 -130q0 -92 -80 -136l104 -224h-147l-87 195h-46v-195h-134v539zM248 420h-50v-121h50q32 0 50 16t18 44q0 61 -68 61z" />
    <glyph glyph-name="S.smcp" horiz-adv-x="468" 
d="M234 549q81 0 131 -43.5t54 -118.5h-130q0 28 -15 43t-41 15q-24 0 -37.5 -13t-13.5 -35q0 -26 18.5 -39.5t71.5 -29.5q90 -30 126.5 -68t36.5 -101q0 -79 -55 -124q-54 -45 -138 -45q-96 0 -149.5 48t-55.5 127h129q5 -71 73 -71q29 0 45.5 14t16.5 38q0 22 -20 37
t-68 30q-87 27 -126 65t-39 102q0 76 50 122.5t136 46.5z" />
    <glyph glyph-name="T.smcp" horiz-adv-x="499" 
d="M11 539h477v-125h-171v-414h-134v414h-172v125z" />
    <glyph glyph-name="U.smcp" horiz-adv-x="580" 
d="M388 539h134v-319q0 -109 -60.5 -169.5t-170.5 -60.5q-111 0 -172.5 61t-61.5 169v319h134v-319q0 -106 100 -106q97 0 97 106v319z" />
    <glyph glyph-name="V.smcp" horiz-adv-x="580" 
d="M426 539h142l-215 -539h-128l-214 539h142l124 -320l12 -38l13 38z" />
    <glyph glyph-name="W.smcp" horiz-adv-x="819" 
d="M663 539h141l-165 -539h-144l-79 282l-7 37l-6 -37l-79 -282h-143l-166 539h141l92 -318l7 -40l7 40l85 318h125l86 -318l5 -40l9 40z" />
    <glyph glyph-name="X.smcp" horiz-adv-x="587" 
d="M405 539h156l-175 -267l179 -272h-157l-115 174l-115 -174h-156l179 272l-176 267h157l111 -170z" />
    <glyph glyph-name="Y.smcp" horiz-adv-x="565" 
d="M401 539h154l-206 -342v-197h-134v197l-206 342h155l100 -173l18 -37l19 37z" />
    <glyph glyph-name="Z.smcp" horiz-adv-x="499" 
d="M42 539h408v-109l-237 -305h249v-125h-420v109l240 305h-240v125z" />
    <glyph glyph-name="Agrave.smcp" horiz-adv-x="603" 
d="M227 539h149l212 -539h-143l-39 101h-208l-39 -101h-144zM312 355l-10 32l-11 -32l-58 -152h137zM96 762h159l106 -158h-111z" />
    <glyph glyph-name="Aacute.smcp" horiz-adv-x="603" 
d="M227 539h149l212 -539h-143l-39 101h-208l-39 -101h-144zM312 355l-10 32l-11 -32l-58 -152h137zM343 762h159l-154 -158h-111z" />
    <glyph glyph-name="Acircumflex.smcp" horiz-adv-x="603" 
d="M227 539h149l212 -539h-143l-39 101h-208l-39 -101h-144zM312 355l-10 32l-11 -32l-58 -152h137zM254 762h96l140 -158h-132l-56 78l-56 -78h-131z" />
    <glyph glyph-name="Atilde.smcp" horiz-adv-x="603" 
d="M227 539h149l212 -539h-143l-39 101h-208l-39 -101h-144zM312 355l-10 32l-11 -32l-58 -152h137zM238 751q54 0 79 -33t51 -33q33 0 33 57h77q0 -67 -28 -105t-83 -38q-54 0 -79 33q-24 34 -51 34q-34 0 -34 -58h-76q0 68 28 105.5t83 37.5z" />
    <glyph glyph-name="Adieresis.smcp" horiz-adv-x="603" 
d="M227 539h149l212 -539h-143l-39 101h-208l-39 -101h-144zM312 355l-10 32l-11 -32l-58 -152h137zM200 742q30 0 50.5 -20t20.5 -50t-20.5 -50t-50.5 -20q-31 0 -51.5 20t-20.5 50t20.5 50t51.5 20zM354 722q21 20 51 20t51 -20t21 -50t-21 -50t-51 -20t-51 20
q-20 20 -20 50t20 50z" />
    <glyph glyph-name="Amacron.smcp" horiz-adv-x="603" 
d="M227 539h149l212 -539h-143l-39 101h-208l-39 -101h-144zM312 355l-10 32l-11 -32l-58 -152h137zM163 715h279v-97h-279v97z" />
    <glyph glyph-name="Abreve.smcp" horiz-adv-x="603" 
d="M227 539h149l212 -539h-143l-39 101h-208l-39 -101h-144zM312 355l-10 32l-11 -32l-58 -152h137zM359 744h103q0 -66 -45 -110q-45 -42 -116 -42q-69 0 -114 42q-45 44 -45 110h103q0 -31 15 -49.5t42 -18.5q26 0 41.5 19t15.5 49z" />
    <glyph glyph-name="Aring.smcp" horiz-adv-x="603" 
d="M227 539h149l212 -539h-143l-39 101h-208l-39 -101h-144zM312 355l-10 32l-11 -32l-58 -152h137zM302 802q50 0 81 -31.5t31 -79.5q0 -46 -32 -77t-80 -31t-80 31t-32 77q0 48 31.5 79.5t80.5 31.5zM302 739q-19 0 -32 -13.5t-13 -33.5q0 -18 13 -31.5t32 -13.5
q20 0 32.5 13t12.5 32q0 20 -12.5 33.5t-32.5 13.5z" />
    <glyph glyph-name="Aringacute.smcp" horiz-adv-x="603" 
d="M227 539h149l212 -539h-143l-39 101h-208l-39 -101h-144zM307 875h179l-120 -101q46 -30 46 -92q0 -46 -32 -77t-80 -31q-50 0 -81 31t-31 77q0 45 29 77zM312 355l-10 32l-11 -32l-58 -152h137zM300 730q-19 0 -32 -13.5t-13 -33.5q0 -18 13 -31.5t32 -13.5
q20 0 32.5 13t12.5 32q0 20 -12.5 33.5t-32.5 13.5z" />
    <glyph glyph-name="Aogonek.smcp" horiz-adv-x="603" 
d="M227 539h149l212 -539h-40q-71 -29 -71 -87q0 -51 50 -51q22 0 40 9l15 -63q-21 -12 -60 -12q-57 0 -91.5 30.5t-34.5 83.5q0 59 47 95l-37 96h-208l-39 -101h-144zM312 355l-10 32l-11 -32l-58 -152h137z" />
    <glyph glyph-name="AE.smcp" horiz-adv-x="790" 
d="M361 539h390v-121h-198v-87h169v-114h-169v-96h198v-121h-332v101h-184l-67 -101h-158zM419 203v200l-18 -35l-104 -165h122z" />
    <glyph glyph-name="AEacute.smcp" horiz-adv-x="793" 
d="M361 539h390v-121h-198v-87h169v-114h-169v-96h198v-121h-332v101h-184l-67 -101h-158zM419 203v200l-18 -35l-104 -165h122zM510 721h171l-148 -141h-122z" />
    <glyph glyph-name="Cacute.smcp" horiz-adv-x="602" 
d="M314 549q103 0 167.5 -50.5t89.5 -143.5h-146q-24 70 -111 70q-62 0 -99.5 -42.5t-37.5 -111.5q0 -70 37.5 -113.5t100.5 -43.5q91 0 119 78h139q-46 -202 -258 -202q-122 0 -200 79q-77 80 -77 202q0 120 77 199q76 79 199 79zM353 762h159l-154 -158h-111z" />
    <glyph glyph-name="Ccircumflex.smcp" horiz-adv-x="602" 
d="M314 549q103 0 167.5 -50.5t89.5 -143.5h-146q-24 70 -111 70q-62 0 -99.5 -42.5t-37.5 -111.5q0 -70 37.5 -113.5t100.5 -43.5q91 0 119 78h139q-46 -202 -258 -202q-122 0 -200 79q-77 80 -77 202q0 120 77 199q76 79 199 79zM265 762h96l140 -158h-132l-56 78l-56 -78
h-131z" />
    <glyph glyph-name="Ccaron.smcp" horiz-adv-x="602" 
d="M314 549q103 0 167.5 -50.5t89.5 -143.5h-146q-24 70 -111 70q-62 0 -99.5 -42.5t-37.5 -111.5q0 -70 37.5 -113.5t100.5 -43.5q91 0 119 78h139q-46 -202 -258 -202q-122 0 -200 79q-77 80 -77 202q0 120 77 199q76 79 199 79zM369 752h132l-140 -158h-96l-139 158h131
l56 -79z" />
    <glyph glyph-name="Cdotaccent.smcp" horiz-adv-x="602" 
d="M314 549q103 0 167.5 -50.5t89.5 -143.5h-146q-24 70 -111 70q-62 0 -99.5 -42.5t-37.5 -111.5q0 -70 37.5 -113.5t100.5 -43.5q91 0 119 78h139q-46 -202 -258 -202q-122 0 -200 79q-77 80 -77 202q0 120 77 199q76 79 199 79zM257 734q23 22 56 22t56 -22
q24 -22 24 -55t-24 -55q-23 -22 -56 -22t-56 22q-22 22 -22 55t22 55z" />
    <glyph glyph-name="Ccedilla.smcp" horiz-adv-x="602" 
d="M314 549q103 0 167.5 -50.5t89.5 -143.5h-146q-24 70 -111 70q-62 0 -99.5 -42.5t-37.5 -111.5q0 -70 37.5 -113.5t100.5 -43.5q91 0 119 78h139q-45 -189 -232 -201l-9 -38q40 -2 63.5 -24t23.5 -60q0 -44 -30.5 -69.5t-80.5 -25.5q-57 0 -92 32l39 56q20 -23 51 -23
q35 0 35 29q0 30 -36 30q-7 0 -27 -5l-18 6l21 93q-107 10 -176 88q-67 76 -67 191q0 120 77 199q76 79 199 79z" />
    <glyph glyph-name="Dcaron.smcp" horiz-adv-x="610" 
d="M64 539h215q133 0 212 -75q80 -75 80 -194q0 -120 -80 -195q-79 -75 -212 -75h-215v539zM279 414h-81v-289h81q75 0 114.5 37t39.5 108q0 70 -39.5 107t-114.5 37zM331 752h132l-140 -158h-96l-139 158h131l56 -79z" />
    <glyph glyph-name="Dcroat.smcp" horiz-adv-x="619" 
d="M72 539h215q133 0 212 -75q80 -75 80 -194q0 -120 -80 -195q-79 -75 -212 -75h-215v231h-52v90h52v218zM287 414h-81v-93h63v-90h-63v-106h81q75 0 114.5 37t39.5 108q0 70 -39.5 107t-114.5 37z" />
    <glyph glyph-name="Egrave.smcp" horiz-adv-x="442" 
d="M64 539h332v-121h-198v-89h168v-111h-168v-97h198v-121h-332v539zM34 762h159l106 -158h-111z" />
    <glyph glyph-name="Eacute.smcp" horiz-adv-x="442" 
d="M64 539h332v-121h-198v-89h168v-111h-168v-97h198v-121h-332v539zM280 762h159l-154 -158h-111z" />
    <glyph glyph-name="Ecircumflex.smcp" horiz-adv-x="442" 
d="M64 539h332v-121h-198v-89h168v-111h-168v-97h198v-121h-332v539zM190 762h96l140 -158h-132l-56 78l-56 -78h-131z" />
    <glyph glyph-name="Ecaron.smcp" horiz-adv-x="442" 
d="M64 539h332v-121h-198v-89h168v-111h-168v-97h198v-121h-332v539zM293 752h132l-140 -158h-96l-139 158h131l56 -79z" />
    <glyph glyph-name="Edieresis.smcp" horiz-adv-x="442" 
d="M136 742q30 0 50.5 -20t20.5 -50t-20.5 -50t-50.5 -20q-31 0 -51.5 20t-20.5 50t20.5 50t51.5 20zM290 722q21 20 51 20t51 -20t21 -50t-21 -50t-51 -20t-51 20q-20 20 -20 50t20 50zM64 539h332v-121h-198v-89h168v-111h-168v-97h198v-121h-332v539z" />
    <glyph glyph-name="Emacron.smcp" horiz-adv-x="442" 
d="M64 539h332v-121h-198v-89h168v-111h-168v-97h198v-121h-332v539zM90 715h279v-97h-279v97z" />
    <glyph glyph-name="Ebreve.smcp" horiz-adv-x="442" 
d="M64 539h332v-121h-198v-89h168v-111h-168v-97h198v-121h-332v539zM293 744h103q0 -66 -45 -110q-45 -42 -116 -42q-69 0 -114 42q-45 44 -45 110h103q0 -31 15 -49.5t42 -18.5q26 0 41.5 19t15.5 49z" />
    <glyph glyph-name="Edotaccent.smcp" horiz-adv-x="442" 
d="M64 539h332v-121h-198v-89h168v-111h-168v-97h198v-121h-332v539zM181 734q23 22 56 22t56 -22q24 -22 24 -55t-24 -55q-23 -22 -56 -22t-56 22q-22 22 -22 55t22 55z" />
    <glyph glyph-name="Eogonek.smcp" horiz-adv-x="442" 
d="M64 539h332v-121h-198v-89h168v-111h-168v-97h198v-121h-16q-71 -29 -71 -87q0 -51 50 -51q22 0 40 9l15 -63q-21 -12 -60 -12q-57 0 -91.5 30.5t-34.5 83.5q0 56 40 90h-204v539z" />
    <glyph glyph-name="Gcircumflex.smcp" horiz-adv-x="627" 
d="M317 549q104 0 169.5 -50.5t90.5 -141.5h-147q-28 70 -115 70q-60 0 -98.5 -43.5t-38.5 -110.5q0 -72 39 -117t104 -45q103 0 119 81h-113v106h251v-49q0 -121 -72 -190q-70 -69 -185 -69q-125 0 -204 79q-78 79 -78 202q0 121 78 199q78 79 200 79zM265 762h96l140 -158
h-132l-56 78l-56 -78h-131z" />
    <glyph glyph-name="Gbreve.smcp" horiz-adv-x="627" 
d="M317 549q104 0 169.5 -50.5t90.5 -141.5h-147q-28 70 -115 70q-60 0 -98.5 -43.5t-38.5 -110.5q0 -72 39 -117t104 -45q103 0 119 81h-113v106h251v-49q0 -121 -72 -190q-70 -69 -185 -69q-125 0 -204 79q-78 79 -78 202q0 121 78 199q78 79 200 79zM371 744h103
q0 -66 -45 -110q-45 -42 -116 -42q-69 0 -114 42q-45 44 -45 110h103q0 -31 15 -49.5t42 -18.5q26 0 41.5 19t15.5 49z" />
    <glyph glyph-name="Gdotaccent.smcp" horiz-adv-x="627" 
d="M317 549q104 0 169.5 -50.5t90.5 -141.5h-147q-28 70 -115 70q-60 0 -98.5 -43.5t-38.5 -110.5q0 -72 39 -117t104 -45q103 0 119 81h-113v106h251v-49q0 -121 -72 -190q-70 -69 -185 -69q-125 0 -204 79q-78 79 -78 202q0 121 78 199q78 79 200 79zM257 734q23 22 56 22
t56 -22q24 -22 24 -55t-24 -55q-23 -22 -56 -22t-56 22q-22 22 -22 55t22 55z" />
    <glyph glyph-name="Gcommaaccent.smcp" horiz-adv-x="627" 
d="M317 549q104 0 169.5 -50.5t90.5 -141.5h-147q-28 70 -115 70q-60 0 -98.5 -43.5t-38.5 -110.5q0 -72 39 -117t104 -45q103 0 119 81h-113v106h251v-49q0 -121 -72 -190q-70 -69 -185 -69q-125 0 -204 79q-78 79 -78 202q0 121 78 199q78 79 200 79zM312 -43
q34 0 56 -23.5t22 -61.5q0 -43 -23 -90t-60 -85l-36 15q24 43 29 95q-29 4 -47.5 24t-18.5 49q0 32 22.5 54.5t55.5 22.5z" />
    <glyph glyph-name="Hcircumflex.smcp" horiz-adv-x="600" 
d="M402 539h134v-539h-134v216h-204v-216h-134v539h134v-198h204v198zM253 762h96l140 -158h-132l-56 78l-56 -78h-131z" />
    <glyph glyph-name="Hbar.smcp" horiz-adv-x="614" 
d="M408 539h134v-58h54v-79h-54v-402h-134v216h-204v-216h-134v402h-52v79h52v58h134v-58h204v58zM204 402v-61h204v61h-204z" />
    <glyph glyph-name="Igrave.smcp" horiz-adv-x="262" 
d="M64 539h134v-539h-134v539zM-71 761h159l106 -158h-111z" />
    <glyph glyph-name="Iacute.smcp" horiz-adv-x="262" 
d="M64 539h134v-539h-134v539zM174 761h159l-154 -158h-111z" />
    <glyph glyph-name="Icircumflex.smcp" horiz-adv-x="262" 
d="M86 761h96l140 -158h-132l-56 78l-56 -78h-131zM64 539h134v-539h-134v539z" />
    <glyph glyph-name="Itilde.smcp" horiz-adv-x="262" 
d="M71 750q54 0 79 -33t51 -33q33 0 33 57h77q0 -67 -28 -105t-83 -38q-32 -1 -56.5 16.5t-41.5 34.5t-32 16q-34 0 -34 -58h-76q0 68 28 105.5t83 37.5zM64 539h134v-539h-134v539z" />
    <glyph glyph-name="Idieresis.smcp" horiz-adv-x="262" 
d="M33 741q30 0 50.5 -20t20.5 -50t-20.5 -50t-50.5 -20q-31 0 -51.5 20t-20.5 50t20.5 50t51.5 20zM187 721q21 20 51 20t51 -20t21 -50t-21 -50t-51 -20t-51 20q-20 20 -20 50t20 50zM64 539h134v-539h-134v539z" />
    <glyph glyph-name="Imacron.smcp" horiz-adv-x="262" 
d="M-4 714h279v-97h-279v97zM64 539h134v-539h-134v539z" />
    <glyph glyph-name="Ibreve.smcp" horiz-adv-x="262" 
d="M192 743h103q0 -67 -45 -110q-45 -42 -116 -42q-69 0 -114 42q-45 43 -45 110h103q0 -31 15 -49.5t42 -18.5q26 0 41.5 19t15.5 49zM64 539h134v-539h-134v539z" />
    <glyph glyph-name="Idotaccent.smcp" horiz-adv-x="262" 
d="M77 733q23 22 56 22t56 -22q24 -22 24 -55t-24 -55q-23 -22 -56 -22t-56 22q-22 22 -22 55t22 55zM64 539h134v-539h-134v539z" />
    <glyph glyph-name="Iogonek.smcp" horiz-adv-x="262" 
d="M64 539h134v-539h-43q-61 -28 -61 -83q0 -51 50 -51q22 0 40 9l15 -63q-21 -12 -60 -12q-57 0 -91.5 30.5t-34.5 83.5q0 61 51 98v527z" />
    <glyph glyph-name="Jcircumflex.smcp" horiz-adv-x="457" 
d="M266 539h134v-359q0 -87 -49.5 -135.5t-132.5 -48.5q-93 0 -142 51t-51 143h133q3 -68 57 -68q51 0 51 63v354zM287 761h96l140 -158h-132l-56 78l-56 -78h-131z" />
    <glyph glyph-name="Kcommaaccent.smcp" horiz-adv-x="575" 
d="M367 539h162l-169 -244l195 -295h-159l-129 193l-69 -85v-108h-134v539h134v-249zM291 -35q34 0 56 -23.5t22 -61.5q0 -43 -23 -90t-60 -85l-36 15q24 43 29 95q-29 4 -47.5 24t-18.5 49q0 32 22.5 54.5t55.5 22.5z" />
    <glyph glyph-name="Lacute.smcp" horiz-adv-x="444" 
d="M64 539h134v-414h223v-125h-357v539zM176 762h159l-154 -158h-111z" />
    <glyph glyph-name="Lcaron.smcp" horiz-adv-x="447" 
d="M373 577q34 0 56 -23.5t22 -61.5q0 -47 -23 -99t-60 -93l-37 13q24 51 31 114q-30 4 -48.5 24t-18.5 49q0 32 23 54.5t55 22.5zM64 539h134v-414h223v-125h-357v539z" />
    <glyph glyph-name="Lcommaaccent.smcp" horiz-adv-x="447" 
d="M241 -37q34 0 56 -23.5t22 -61.5q0 -43 -23 -90t-60 -85l-36 15q24 43 29 95q-29 4 -47.5 24t-18.5 49q0 32 22.5 54.5t55.5 22.5zM64 539h134v-414h223v-125h-357v539z" />
    <glyph glyph-name="Lslash.smcp" horiz-adv-x="467" 
d="M81 539h134v-204l61 19l28 -85l-89 -28v-116h223v-125h-357v200l-54 -17l-27 84l81 25v247z" />
    <glyph glyph-name="Ldot.smcp" horiz-adv-x="448" 
d="M64 539h134v-414h223v-125h-357v539zM343 368q33 0 56.5 -23t23.5 -56t-23.5 -56t-56.5 -23q-34 0 -57 22.5t-23 56.5t23 56.5t57 22.5z" />
    <glyph glyph-name="Nacute.smcp" horiz-adv-x="617" 
d="M419 539h135v-539h-134l-200 284l-22 38v-322h-134v539h134l199 -287l22 -38v325zM360 761h159l-154 -158h-111z" />
    <glyph glyph-name="Ncaron.smcp" horiz-adv-x="617" 
d="M419 539h135v-539h-134l-200 284l-22 38v-322h-134v539h134l199 -287l22 -38v325zM374 751h132l-140 -158h-96l-139 158h131l56 -79z" />
    <glyph glyph-name="Ntilde.smcp" horiz-adv-x="617" 
d="M255 750q54 0 79 -33t51 -33q33 0 33 57h77q0 -67 -28 -105t-83 -38q-32 -1 -56.5 16.5t-41.5 34.5t-32 16q-34 0 -34 -58h-76q0 68 28 105.5t83 37.5zM419 539h135v-539h-134l-200 284l-22 38v-322h-134v539h134l199 -287l22 -38v325z" />
    <glyph glyph-name="Ncommaaccent.smcp" horiz-adv-x="617" 
d="M419 539h135v-539h-134l-200 284l-22 38v-322h-134v539h134l199 -287l22 -38v325zM308 -34q34 0 56 -23.5t22 -61.5q0 -43 -23 -90t-60 -85l-36 15q24 43 29 95q-29 4 -47.5 24t-18.5 49q0 32 22.5 54.5t55.5 22.5z" />
    <glyph glyph-name="Ograve.smcp" horiz-adv-x="650" 
d="M325 -10q-127 0 -206 79q-80 80 -80 201q0 122 80 200q79 79 206 79q126 0 205 -79q80 -78 80 -200q0 -121 -80 -201q-79 -79 -205 -79zM432 382q-39 43 -107 43t-108 -43q-39 -44 -39 -112q0 -70 39 -113q40 -43 108 -43t107 43t39 113q0 68 -39 112zM119 762h159
l106 -158h-111z" />
    <glyph glyph-name="Oacute.smcp" horiz-adv-x="650" 
d="M325 -10q-127 0 -206 79q-80 80 -80 201q0 122 80 200q79 79 206 79q126 0 205 -79q80 -78 80 -200q0 -121 -80 -201q-79 -79 -205 -79zM432 382q-39 43 -107 43t-108 -43q-39 -44 -39 -112q0 -70 39 -113q40 -43 108 -43t107 43t39 113q0 68 -39 112zM366 762h159
l-154 -158h-111z" />
    <glyph glyph-name="Ocircumflex.smcp" horiz-adv-x="650" 
d="M325 -10q-127 0 -206 79q-80 80 -80 201q0 122 80 200q79 79 206 79q126 0 205 -79q80 -78 80 -200q0 -121 -80 -201q-79 -79 -205 -79zM432 382q-39 43 -107 43t-108 -43q-39 -44 -39 -112q0 -70 39 -113q40 -43 108 -43t107 43t39 113q0 68 -39 112zM277 762h96
l140 -158h-132l-56 78l-56 -78h-131z" />
    <glyph glyph-name="Otilde.smcp" horiz-adv-x="650" 
d="M261 751q54 0 79 -33t51 -33q33 0 33 57h77q0 -67 -28 -105t-83 -38q-54 0 -79 33q-24 34 -51 34q-34 0 -34 -58h-76q0 68 28 105.5t83 37.5zM325 -10q-127 0 -206 79q-80 80 -80 201q0 122 80 200q79 79 206 79q126 0 205 -79q80 -78 80 -200q0 -121 -80 -201
q-79 -79 -205 -79zM432 382q-39 43 -107 43t-108 -43q-39 -44 -39 -112q0 -70 39 -113q40 -43 108 -43t107 43t39 113q0 68 -39 112z" />
    <glyph glyph-name="Odieresis.smcp" horiz-adv-x="650" 
d="M325 -10q-127 0 -206 79q-80 80 -80 201q0 122 80 200q79 79 206 79q126 0 205 -79q80 -78 80 -200q0 -121 -80 -201q-79 -79 -205 -79zM432 382q-39 43 -107 43t-108 -43q-39 -44 -39 -112q0 -70 39 -113q40 -43 108 -43t107 43t39 113q0 68 -39 112zM222 742
q30 0 50.5 -20t20.5 -50t-20.5 -50t-50.5 -20q-31 0 -51.5 20t-20.5 50t20.5 50t51.5 20zM376 722q21 20 51 20t51 -20t21 -50t-21 -50t-51 -20t-51 20q-20 20 -20 50t20 50z" />
    <glyph glyph-name="Omacron.smcp" horiz-adv-x="650" 
d="M325 -10q-127 0 -206 79q-80 80 -80 201q0 122 80 200q79 79 206 79q126 0 205 -79q80 -78 80 -200q0 -121 -80 -201q-79 -79 -205 -79zM432 382q-39 43 -107 43t-108 -43q-39 -44 -39 -112q0 -70 39 -113q40 -43 108 -43t107 43t39 113q0 68 -39 112zM186 715h279v-97
h-279v97z" />
    <glyph glyph-name="Obreve.smcp" horiz-adv-x="650" 
d="M325 -10q-127 0 -206 79q-80 80 -80 201q0 122 80 200q79 79 206 79q126 0 205 -79q80 -78 80 -200q0 -121 -80 -201q-79 -79 -205 -79zM432 382q-39 43 -107 43t-108 -43q-39 -44 -39 -112q0 -70 39 -113q40 -43 108 -43t107 43t39 113q0 68 -39 112zM382 744h103
q0 -66 -45 -110q-45 -42 -116 -42q-69 0 -114 42q-45 44 -45 110h103q0 -31 15 -49.5t42 -18.5q26 0 41.5 19t15.5 49z" />
    <glyph glyph-name="Ohungarumlaut.smcp" horiz-adv-x="650" 
d="M325 -10q-127 0 -206 79q-80 80 -80 201q0 122 80 200q79 79 206 79q126 0 205 -79q80 -78 80 -200q0 -121 -80 -201q-79 -79 -205 -79zM432 382q-39 43 -107 43t-108 -43q-39 -44 -39 -112q0 -70 39 -113q40 -43 108 -43t107 43t39 113q0 68 -39 112zM248 762h133
l-106 -158h-107zM443 762h133l-106 -158h-107z" />
    <glyph glyph-name="Oslash.smcp" horiz-adv-x="650" 
d="M325 549q58 0 109 -19l47 74l81 -48l-46 -73q94 -79 94 -213q0 -121 -80 -201q-79 -79 -205 -79q-55 0 -108 18l-46 -73l-81 47l45 72q-96 80 -96 216q0 122 80 200q79 79 206 79zM325 425q-68 0 -107.5 -42.5t-39.5 -112.5q0 -61 30 -101l157 251q-22 5 -40 5zM471 270
q0 57 -28 97l-157 -249q15 -4 39 -4q67 0 106.5 43t39.5 113z" />
    <glyph glyph-name="Oslashacute.smcp" horiz-adv-x="650" 
d="M325 549q53 0 104 -17l45 72l92 -48l-47 -75q91 -79 91 -211q0 -121 -80 -201q-79 -79 -205 -79q-55 0 -104 16l-45 -72l-92 48l47 75q-92 80 -92 213q0 122 80 200q79 79 206 79zM368 757h159l-154 -158h-111zM325 425q-68 0 -107.5 -42.5t-39.5 -112.5q0 -55 26 -96
l155 247q-20 4 -34 4zM471 270q0 53 -26 94l-154 -247q15 -3 34 -3q67 0 106.5 43t39.5 113z" />
    <glyph glyph-name="OE.smcp" horiz-adv-x="852" 
d="M474 539h332v-121h-198v-89h168v-111h-168v-97h198v-121h-332v44q-64 -54 -156 -54q-122 0 -201 79t-79 201t79 200q79 79 201 79q88 0 156 -54v44zM325 425q-66 0 -107 -43t-41 -112t41 -112.5t107 -43.5q69 0 109 43t40 113v6q-2 68 -42 108.5t-107 40.5z" />
    <glyph glyph-name="Racute.smcp" horiz-adv-x="494" 
d="M64 539h184q95 0 150.5 -49t55.5 -130q0 -92 -80 -136l104 -224h-147l-87 195h-46v-195h-134v539zM281 761h159l-154 -158h-111zM248 420h-50v-121h50q32 0 50 16t18 44q0 61 -68 61z" />
    <glyph glyph-name="Rcaron.smcp" horiz-adv-x="494" 
d="M64 539h184q95 0 150.5 -49t55.5 -130q0 -92 -80 -136l104 -224h-147l-87 195h-46v-195h-134v539zM292 751h132l-140 -158h-96l-139 158h131l56 -79zM248 420h-50v-121h50q32 0 50 16t18 44q0 61 -68 61z" />
    <glyph glyph-name="Rcommaaccent.smcp" horiz-adv-x="494" 
d="M64 539h184q95 0 150.5 -49t55.5 -130q0 -92 -80 -136l104 -224h-147l-87 195h-46v-195h-134v539zM263 -34q34 0 56 -23.5t22 -61.5q0 -43 -23 -90t-60 -85l-36 15q24 43 29 95q-29 4 -47.5 24t-18.5 49q0 32 22.5 54.5t55.5 22.5zM248 420h-50v-121h50q32 0 50 16t18 44
q0 61 -68 61z" />
    <glyph glyph-name="Sacute.smcp" horiz-adv-x="468" 
d="M234 549q81 0 131 -43.5t54 -118.5h-130q0 28 -15 43t-41 15q-24 0 -37.5 -13t-13.5 -35q0 -26 18.5 -39.5t71.5 -29.5q90 -30 126.5 -68t36.5 -101q0 -79 -55 -124q-54 -45 -138 -45q-96 0 -149.5 48t-55.5 127h129q5 -71 73 -71q29 0 45.5 14t16.5 38q0 22 -20 37
t-68 30q-87 27 -126 65t-39 102q0 76 50 122.5t136 46.5zM277 761h159l-154 -158h-111z" />
    <glyph glyph-name="Scircumflex.smcp" horiz-adv-x="468" 
d="M234 549q81 0 131 -43.5t54 -118.5h-130q0 28 -15 43t-41 15q-24 0 -37.5 -13t-13.5 -35q0 -26 18.5 -39.5t71.5 -29.5q90 -30 126.5 -68t36.5 -101q0 -79 -55 -124q-54 -45 -138 -45q-96 0 -149.5 48t-55.5 127h129q5 -71 73 -71q29 0 45.5 14t16.5 38q0 22 -20 37
t-68 30q-87 27 -126 65t-39 102q0 76 50 122.5t136 46.5zM188 761h96l140 -158h-132l-56 78l-56 -78h-131z" />
    <glyph glyph-name="Scaron.smcp" horiz-adv-x="468" 
d="M234 549q81 0 131 -43.5t54 -118.5h-130q0 28 -15 43t-41 15q-24 0 -37.5 -13t-13.5 -35q0 -26 18.5 -39.5t71.5 -29.5q90 -30 126.5 -68t36.5 -101q0 -79 -55 -124q-54 -45 -138 -45q-96 0 -149.5 48t-55.5 127h129q5 -71 73 -71q29 0 45.5 14t16.5 38q0 22 -20 37
t-68 30q-87 27 -126 65t-39 102q0 76 50 122.5t136 46.5zM292 751h132l-140 -158h-96l-139 158h131l56 -79z" />
    <glyph glyph-name="Scedilla.smcp" horiz-adv-x="473" 
d="M235 549q81 0 131 -43.5t54 -118.5h-130q0 28 -15 43t-41 15q-24 0 -37.5 -13t-13.5 -35q0 -26 18.5 -39.5t71.5 -29.5q90 -30 126.5 -68t36.5 -101q0 -73 -48 -118t-125 -50l-9 -38q40 -2 63.5 -24t23.5 -60q0 -44 -30.5 -69.5t-80.5 -25.5q-57 0 -92 32l39 56
q20 -23 51 -23q35 0 35 29q0 30 -36 30q-7 0 -27 -5l-18 6l21 94q-77 9 -120 55.5t-45 116.5h129q5 -71 73 -71q29 0 45.5 14t16.5 38q0 22 -20 37t-68 30q-87 27 -126 65t-39 102q0 76 50 122.5t136 46.5z" />
    <glyph glyph-name="Scommaaccent.smcp" horiz-adv-x="471" 
d="M235 549q81 0 131 -43.5t54 -118.5h-130q0 28 -15 43t-41 15q-24 0 -37.5 -13t-13.5 -35q0 -26 18.5 -39.5t71.5 -29.5q90 -30 126.5 -68t36.5 -101q0 -79 -55 -124q-54 -45 -138 -45q-96 0 -149.5 48t-55.5 127h129q5 -71 73 -71q29 0 45.5 14t16.5 38q0 22 -20 37
t-68 30q-87 27 -126 65t-39 102q0 76 50 122.5t136 46.5zM235 -41q34 0 56 -23.5t22 -61.5q0 -43 -23 -90t-60 -85l-36 15q24 43 29 95q-29 4 -47.5 24t-18.5 49q0 32 22.5 54.5t55.5 22.5z" />
    <glyph glyph-name="germandbls.smcp" horiz-adv-x="547" 
d="M275 549q131 0 217 -92l-103 -135q55 -9 89 -48t34 -95q0 -87 -53.5 -135.5t-152.5 -48.5q-12 0 -70 5l5 121q34 -8 56 -8q35 0 55.5 16.5t20.5 45.5q0 69 -121 69l-8 49l84 113q-22 22 -59 22q-35 0 -56 -22t-21 -59v-347h-134v344q0 93 57 149t160 56z" />
    <glyph glyph-name="Tcaron.smcp" horiz-adv-x="499" 
d="M11 539h477v-125h-171v-414h-134v414h-172v125zM306 751h132l-140 -158h-96l-139 158h131l56 -79z" />
    <glyph glyph-name="Tcommaaccent.smcp" horiz-adv-x="499" 
d="M11 539h477v-125h-171v-414h-134v414h-172v125zM249 -35q34 0 56 -23.5t22 -61.5q0 -43 -23 -90t-60 -85l-36 15q24 43 29 95q-29 4 -47.5 24t-18.5 49q0 32 22.5 54.5t55.5 22.5z" />
    <glyph glyph-name="Tbar.smcp" horiz-adv-x="499" 
d="M11 539h477v-125h-171v-123h109v-90h-109v-201h-134v201h-109v90h109v123h-172v125z" />
    <glyph glyph-name="Ugrave.smcp" horiz-adv-x="580" 
d="M388 539h134v-319q0 -109 -60.5 -169.5t-170.5 -60.5q-111 0 -172.5 61t-61.5 169v319h134v-319q0 -106 100 -106q97 0 97 106v319zM84 761h159l106 -158h-111z" />
    <glyph glyph-name="Uacute.smcp" horiz-adv-x="580" 
d="M388 539h134v-319q0 -109 -60.5 -169.5t-170.5 -60.5q-111 0 -172.5 61t-61.5 169v319h134v-319q0 -106 100 -106q97 0 97 106v319zM331 761h159l-154 -158h-111z" />
    <glyph glyph-name="Ucircumflex.smcp" horiz-adv-x="580" 
d="M388 539h134v-319q0 -109 -60.5 -169.5t-170.5 -60.5q-111 0 -172.5 61t-61.5 169v319h134v-319q0 -106 100 -106q97 0 97 106v319zM242 761h96l140 -158h-132l-56 78l-56 -78h-131z" />
    <glyph glyph-name="Utilde.smcp" horiz-adv-x="580" 
d="M226 750q54 0 79 -33t51 -33q33 0 33 57h77q0 -67 -28 -105t-83 -38q-32 -1 -56.5 16.5t-41.5 34.5t-32 16q-34 0 -34 -58h-76q0 68 28 105.5t83 37.5zM388 539h134v-319q0 -109 -60.5 -169.5t-170.5 -60.5q-111 0 -172.5 61t-61.5 169v319h134v-319q0 -106 100 -106
q97 0 97 106v319z" />
    <glyph glyph-name="Udieresis.smcp" horiz-adv-x="580" 
d="M388 539h134v-319q0 -109 -60.5 -169.5t-170.5 -60.5q-111 0 -172.5 61t-61.5 169v319h134v-319q0 -106 100 -106q97 0 97 106v319zM187 741q30 0 50.5 -20t20.5 -50t-20.5 -50t-50.5 -20q-31 0 -51.5 20t-20.5 50t20.5 50t51.5 20zM341 721q21 20 51 20t51 -20t21 -50
t-21 -50t-51 -20t-51 20q-20 20 -20 50t20 50z" />
    <glyph glyph-name="Umacron.smcp" horiz-adv-x="580" 
d="M388 539h134v-319q0 -109 -60.5 -169.5t-170.5 -60.5q-111 0 -172.5 61t-61.5 169v319h134v-319q0 -106 100 -106q97 0 97 106v319zM151 714h279v-97h-279v97z" />
    <glyph glyph-name="Ubreve.smcp" horiz-adv-x="580" 
d="M388 539h134v-319q0 -109 -60.5 -169.5t-170.5 -60.5q-111 0 -172.5 61t-61.5 169v319h134v-319q0 -106 100 -106q97 0 97 106v319zM347 743h103q0 -67 -45 -110q-45 -42 -116 -42q-69 0 -114 42q-45 43 -45 110h103q0 -31 15 -49.5t42 -18.5q26 0 41.5 19t15.5 49z" />
    <glyph glyph-name="Uring.smcp" horiz-adv-x="580" 
d="M290 801q50 0 81 -31.5t31 -79.5q0 -46 -32 -77t-80 -31t-80 31t-32 77q0 48 31.5 79.5t80.5 31.5zM290 738q-19 0 -32 -13.5t-13 -33.5q0 -18 13 -31.5t32 -13.5q20 0 32.5 13t12.5 32q0 20 -12.5 33.5t-32.5 13.5zM388 539h134v-319q0 -109 -60.5 -169.5t-170.5 -60.5
q-111 0 -172.5 61t-61.5 169v319h134v-319q0 -106 100 -106q97 0 97 106v319z" />
    <glyph glyph-name="Uhungarumlaut.smcp" horiz-adv-x="580" 
d="M388 539h134v-319q0 -109 -60.5 -169.5t-170.5 -60.5q-111 0 -172.5 61t-61.5 169v319h134v-319q0 -106 100 -106q97 0 97 106v319zM213 761h133l-106 -158h-107zM408 761h133l-106 -158h-107z" />
    <glyph glyph-name="Uogonek.smcp" horiz-adv-x="580" 
d="M388 539h134v-319q0 -86 -38 -142.5t-110 -76.5q-42 -26 -42 -73q0 -51 50 -51q22 0 40 9l15 -63q-21 -12 -60 -12q-57 0 -91.5 30.5t-34.5 83.5q0 37 19 66q-102 6 -157.5 66t-55.5 163v319h134v-319q0 -106 100 -106q97 0 97 106v319z" />
    <glyph glyph-name="Wgrave.smcp" horiz-adv-x="819" 
d="M663 539h141l-165 -539h-144l-79 282l-7 37l-6 -37l-79 -282h-143l-166 539h141l92 -318l7 -40l7 40l85 318h125l86 -318l5 -40l9 40zM203 762h159l106 -158h-111z" />
    <glyph glyph-name="Wacute.smcp" horiz-adv-x="819" 
d="M663 539h141l-165 -539h-144l-79 282l-7 37l-6 -37l-79 -282h-143l-166 539h141l92 -318l7 -40l7 40l85 318h125l86 -318l5 -40l9 40zM450 762h159l-154 -158h-111z" />
    <glyph glyph-name="Wcircumflex.smcp" horiz-adv-x="819" 
d="M663 539h141l-165 -539h-144l-79 282l-7 37l-6 -37l-79 -282h-143l-166 539h141l92 -318l7 -40l7 40l85 318h125l86 -318l5 -40l9 40zM361 762h96l140 -158h-132l-56 78l-56 -78h-131z" />
    <glyph glyph-name="Wdieresis.smcp" horiz-adv-x="819" 
d="M663 539h141l-165 -539h-144l-79 282l-7 37l-6 -37l-79 -282h-143l-166 539h141l92 -318l7 -40l7 40l85 318h125l86 -318l5 -40l9 40zM307 742q30 0 50.5 -20t20.5 -50t-20.5 -50t-50.5 -20q-31 0 -51.5 20t-20.5 50t20.5 50t51.5 20zM461 722q21 20 51 20t51 -20t21 -50
t-21 -50t-51 -20t-51 20q-20 20 -20 50t20 50z" />
    <glyph glyph-name="Ygrave.smcp" horiz-adv-x="565" 
d="M401 539h154l-206 -342v-197h-134v197l-206 342h155l100 -173l18 -37l19 37zM75 762h159l106 -158h-111z" />
    <glyph glyph-name="Yacute.smcp" horiz-adv-x="565" 
d="M401 539h154l-206 -342v-197h-134v197l-206 342h155l100 -173l18 -37l19 37zM321 762h159l-154 -158h-111z" />
    <glyph glyph-name="Ycircumflex.smcp" horiz-adv-x="565" 
d="M401 539h154l-206 -342v-197h-134v197l-206 342h155l100 -173l18 -37l19 37zM232 762h96l140 -158h-132l-56 78l-56 -78h-131z" />
    <glyph glyph-name="Ydieresis.smcp" horiz-adv-x="565" 
d="M401 539h154l-206 -342v-197h-134v197l-206 342h155l100 -173l18 -37l19 37zM178 742q30 0 50.5 -20t20.5 -50t-20.5 -50t-50.5 -20q-31 0 -51.5 20t-20.5 50t20.5 50t51.5 20zM332 722q21 20 51 20t51 -20t21 -50t-21 -50t-51 -20t-51 20q-20 20 -20 50t20 50z" />
    <glyph glyph-name="Zacute.smcp" horiz-adv-x="499" 
d="M42 539h408v-109l-237 -305h249v-125h-420v109l240 305h-240v125zM298 762h159l-154 -158h-111z" />
    <glyph glyph-name="Zcaron.smcp" horiz-adv-x="499" 
d="M42 539h408v-109l-237 -305h249v-125h-420v109l240 305h-240v125zM312 752h132l-140 -158h-96l-139 158h131l56 -79z" />
    <glyph glyph-name="Zdotaccent.smcp" horiz-adv-x="499" 
d="M42 539h408v-109l-237 -305h249v-125h-420v109l240 305h-240v125zM200 734q23 22 56 22t56 -22q24 -22 24 -55t-24 -55q-23 -22 -56 -22t-56 22q-22 22 -22 55t22 55z" />
    <glyph glyph-name="Eng.smcp" horiz-adv-x="617" 
d="M419 539h135v-539q-4 -82 -54.5 -124t-142.5 -42v112q61 0 62 55l-199 283l-22 38v-322h-134v539h134l199 -287l22 -38v325z" />
    <glyph glyph-name="Eth.smcp" horiz-adv-x="619" 
d="M72 539h215q133 0 212 -75q80 -75 80 -194q0 -120 -80 -195q-79 -75 -212 -75h-215v231h-52v90h52v218zM287 414h-81v-93h63v-90h-63v-106h81q75 0 114.5 37t39.5 108q0 70 -39.5 107t-114.5 37z" />
    <glyph glyph-name="Thorn.smcp" horiz-adv-x="506" 
d="M64 539h134v-75h77q91 0 145 -48q55 -48 55 -125q0 -75 -55 -124t-145 -49h-77v-118h-134v539zM274 348h-76v-114h76q29 0 46.5 15.5t17.5 41.5q0 27 -17 42t-47 15z" />
    <glyph glyph-name="exclam.smcp" horiz-adv-x="252" 
d="M63 539h126v-360h-126v360zM125 132q31 0 52.5 -20t21.5 -50t-21.5 -50t-52.5 -20q-30 0 -51 20t-21 50t21 50t51 20z" />
    <glyph glyph-name="exclamdown.smcp" horiz-adv-x="252" 
d="M188 -6h-126v360h126v-360zM126 401q-31 0 -52.5 20t-21.5 50t21.5 50t52.5 20q30 0 51 -20t21 -50t-21 -50t-51 -20z" />
    <glyph glyph-name="question.smcp" horiz-adv-x="391" 
d="M192 549q75 0 125 -40q51 -41 51 -109q0 -47 -18.5 -81.5t-40.5 -50.5t-40.5 -35.5t-18.5 -40.5v-13h-126v19q0 31 13 54.5t31.5 38.5t37 29t31.5 32.5t13 42.5q0 26 -15 40.5t-40 14.5q-28 0 -44.5 -16t-16.5 -44h-119q1 72 53 116q50 43 124 43zM186 132q31 0 52 -20
t21 -50t-21 -50t-52 -20q-30 0 -51.5 20t-21.5 50t21.5 50t51.5 20z" />
    <glyph glyph-name="questiondown.smcp" horiz-adv-x="391" 
d="M194 -9q-75 0 -125 40q-51 41 -51 109q0 47 18.5 81.5t40.5 50.5t40.5 35.5t18.5 40.5v13h126v-19q0 -31 -13 -54.5t-31.5 -38.5t-37 -29t-31.5 -32.5t-13 -42.5q0 -26 15 -40.5t40 -14.5q28 0 44.5 16t16.5 44h119q-1 -72 -53 -116q-50 -43 -124 -43zM200 408
q-31 0 -52 20t-21 50t21 50t52 20q30 0 51.5 -20t21.5 -50t-21.5 -50t-51.5 -20z" />
    <glyph glyph-name="parenleft.smcp" horiz-adv-x="262" 
d="M166 595l88 -59q-52 -71 -73 -127q-22 -59 -22 -142t22 -142q21 -56 73 -127l-88 -58q-64 75 -95.5 152t-31.5 175q0 99 31.5 176t95.5 152z" />
    <glyph glyph-name="parenright.smcp" horiz-adv-x="262" 
d="M8 536l88 59q64 -75 95 -152t31 -176t-31 -175.5t-95 -151.5l-88 58q52 71 73 127q23 61 23 142t-23 142q-21 56 -73 127z" />
    <glyph glyph-name="bracketleft.smcp" horiz-adv-x="300" 
d="M67 571h208v-114h-89v-382h89v-114h-208v610z" />
    <glyph glyph-name="bracketright.smcp" horiz-adv-x="300" 
d="M25 571h208v-610h-208v114h89v382h-89v114z" />
    <glyph glyph-name="braceleft.smcp" horiz-adv-x="283" 
d="M242 571h16v-114h-10q-52 0 -52 -55v-49q0 -34 -17 -57t-47 -30q64 -18 64 -87v-49q0 -55 52 -55h10v-114h-16q-80 0 -121.5 43t-41.5 121v31q0 55 -52 55h-8v110h8q52 0 52 55v31q0 78 41.5 121t121.5 43z" />
    <glyph glyph-name="braceright.smcp" horiz-adv-x="283" 
d="M25 571h16q80 0 122 -43t42 -121v-31q0 -55 52 -55h7v-110h-7q-52 0 -52 -55v-31q0 -78 -42 -121t-122 -43h-16v114h11q24 0 38 14.5t14 40.5v49q0 71 63 87q-30 7 -46.5 30t-16.5 57v49q0 26 -14 40.5t-38 14.5h-11v114z" />
    <glyph glyph-name="zero.smcp" horiz-adv-x="488" 
d="M245 549q98 0 151 -73t53 -206t-53 -206.5t-151 -73.5q-99 0 -152.5 73.5t-53.5 206.5t53.5 206t152.5 73zM245 425q-71 0 -71 -155q0 -156 71 -156q70 0 70 156q0 155 -70 155z" />
    <glyph glyph-name="one.smcp" horiz-adv-x="353" 
d="M193 539h97v-539h-134v343h-118v113q70 0 107 19.5t48 63.5z" />
    <glyph glyph-name="two.smcp" horiz-adv-x="426" 
d="M221 549q84 0 129.5 -43.5t45.5 -118.5q0 -80 -71 -154l-99 -108h167v-125h-354v96l166 181q32 34 44 55.5t12 47.5q0 45 -41 45q-51 0 -49 -56h-134q-1 81 49 130q53 50 135 50z" />
    <glyph glyph-name="three.smcp" horiz-adv-x="467" 
d="M227 549q83 0 132.5 -45t49.5 -116q0 -77 -65 -107q84 -24 84 -120q0 -80 -52 -125.5t-143 -45.5t-142.5 48t-51.5 135h133q1 -27 18 -43t45 -16q27 0 42.5 14.5t15.5 39.5q0 57 -73 57h-42v103h39q58 0 58 48q0 22 -12 35.5t-33 13.5q-22 0 -35.5 -14t-13.5 -40h-133
q0 83 48.5 130.5t130.5 47.5z" />
    <glyph glyph-name="four.smcp" horiz-adv-x="499" 
d="M227 539h168v-342h67v-112h-67v-85h-134v85h-234v108zM264 195v188l-13 -28l-94 -160h107z" />
    <glyph glyph-name="five.smcp" horiz-adv-x="462" 
d="M55 539h340v-122h-206v-87q30 12 67 12q77 0 122.5 -41t45.5 -122q0 -88 -51.5 -138.5t-140.5 -50.5q-91 0 -142 46t-51 130h134q0 -52 59 -52q27 0 42.5 17.5t15.5 46.5q0 30 -16 47t-44 17q-30 0 -55 -16h-120v313z" />
    <glyph glyph-name="six.smcp" horiz-adv-x="478" 
d="M248 549q79 0 130 -48q52 -48 53 -126h-136q-3 50 -53 50q-67 0 -69 -125q33 33 95 33q77 0 124 -43t47 -115q0 -86 -53.5 -135.5t-139.5 -49.5q-98 0 -146 57q-61 67 -61 214q0 146 51.5 217t157.5 71zM242 239q-29 0 -48.5 -20t-19.5 -47q0 -30 19 -49.5t49 -19.5
q27 0 46 20.5t19 48.5q0 27 -19 47t-46 20z" />
    <glyph glyph-name="seven.smcp" horiz-adv-x="440" 
d="M39 539h356v-108l-191 -431h-145l185 414h-205v125z" />
    <glyph glyph-name="eight.smcp" horiz-adv-x="474" 
d="M418 383q0 -67 -55 -107q70 -40 70 -117q0 -73 -57 -121q-56 -48 -139 -48t-140 48q-56 48 -56 121q0 79 69 117q-53 42 -53 107q0 70 50 118q49 48 130 48t130 -49q51 -48 51 -117zM237 229q-28 0 -47 -18.5t-19 -47.5q-4 -43 40.5 -59t73.5 12q32 28 13 72.5t-61 40.5z
M277 423q-15 17 -40 17t-41 -17q-15 -17 -15 -43t15 -43q16 -16 41 -16t40 16q16 17 16 43t-16 43z" />
    <glyph glyph-name="nine.smcp" horiz-adv-x="478" 
d="M229 -10q-79 0 -130 48q-52 48 -53 126h136q3 -50 53 -50q68 0 69 124q-37 -32 -95 -32q-77 0 -124 43t-47 115q0 86 53.5 135.5t139.5 49.5q98 0 146 -57q61 -67 61 -214q0 -146 -51.5 -217t-157.5 -71zM235 300q29 0 48.5 20t19.5 47q0 30 -19 49.5t-49 19.5
q-27 0 -46 -20.5t-19 -48.5q0 -27 19 -47t46 -20z" />
    <glyph glyph-name="ampersand.smcp" horiz-adv-x="590" 
d="M433 410q0 -51 -24 -82t-78 -60l-4 -2l65 -67q13 30 13 66h119q2 -53 -12 -90q-10 -32 -31 -68l105 -107h-152l-30 30q-61 -40 -148 -40q-100 0 -156 42.5t-56 110.5q0 47 23.5 79t74.5 61l10 5l-13 14q-13 13 -27 29q-29 38 -29 85q0 57 46 94q47 39 125 39
q79 0 129 -38t50 -101zM260 88q43 0 69 19l-103 105l-2 -1q-45 -30 -45 -64q0 -59 81 -59zM214 409q0 -16 7 -29q1 -2 3.5 -5.5t3.5 -5.5l20 -22l2 -3q18 9 27 17q25 18 25 46q0 21 -11.5 33.5t-31.5 12.5q-18 0 -31 -12t-14 -32z" />
    <glyph glyph-name="Euro.smcp" horiz-adv-x="537" 
d="M207 243h98v-72h-85q23 -68 76 -68q32 0 51.5 21.5t21.5 59.5h144q-35 -194 -216 -194q-82 0 -138 47.5t-76 133.5h-62v72h51v27q0 23 1 30h-52v73h63q21 84 76.5 130t136.5 46q187 0 216 -194h-144q-7 81 -73 81q-52 0 -74 -63h83v-73h-97q-1 -7 -1 -30v-27z" />
    <glyph glyph-name="dollar.smcp" horiz-adv-x="483" 
d="M193 626h91v-82q61 -12 96.5 -53t39.5 -104h-130q0 28 -15 43t-41 15q-24 0 -37.5 -13t-13.5 -35q0 -26 18.5 -39.5t71.5 -29.5q90 -30 126.5 -68t36.5 -101q0 -68 -41.5 -112t-110.5 -54v-83h-91v84q-73 12 -113 57.5t-42 113.5h129q5 -71 73 -71q29 0 45.5 14t16.5 38
q0 22 -20 37t-68 30q-87 27 -126 65t-39 102q0 66 38.5 110.5t105.5 55.5v80z" />
    <glyph glyph-name="cent.smcp" horiz-adv-x="475" 
d="M202 480h89v-83q61 -11 99 -51t46 -105h-120q-15 46 -69 46q-34 0 -57 -26t-23 -65t23.5 -64.5t59.5 -25.5q55 0 67 45h121q-10 -64 -48.5 -103.5t-98.5 -50.5v-84h-89v83q-76 12 -121 66t-45 134q0 78 45.5 133t120.5 68v83z" />
    <glyph glyph-name="sterling.smcp" horiz-adv-x="463" 
d="M208 308h103v-85h-75q3 -17 3 -33q0 -27 -14 -49l-8 -15h71q25 0 35.5 11.5t10.5 37.5h115q-1 -85 -44.5 -130t-123.5 -45h-257v26l38 46q48 57 48 122q0 16 -3 29h-82v85h52q-18 40 -18 79q0 72 49 117t127 45q82 0 130 -44.5t50 -125.5h-121q0 24 -15 40t-37 16
q-52 0 -52 -52q0 -31 18 -75z" />
    <glyph glyph-name="florin.smcp" horiz-adv-x="314" 
d="M285 572q29 0 51 -6l-11 -111q-15 7 -36 7q-51 0 -57 -46l-3 -24h88l-12 -114h-88l-35 -305q-7 -71 -53.5 -109t-124.5 -38q-32 0 -51 6l11 111q15 -7 36 -7q54 0 58 46l33 296h-60l12 114h60l3 33q9 72 55 109.5t124 37.5z" />
    <glyph glyph-name="yen.smcp" horiz-adv-x="556" 
d="M407 539h154l-157 -261h57v-82h-106v-50h106v-82h-106v-64h-134v64h-103v82h103v50h-103v82h54l-157 261h155l100 -173l18 -37l19 37z" />
    <glyph glyph-name="F.smcp_I.smcp" horiz-adv-x="683" 
d="M64 539h328v-121h-194v-98h164v-113h-164v-207h-134v539zM485 539h134v-539h-134v539z" />
    <glyph glyph-name="F.smcp_J.smcp" horiz-adv-x="835" 
d="M64 539h328v-121h-194v-98h164v-113h-164v-207h-134v539zM644 539h134v-359q0 -87 -49.5 -135.5t-132.5 -48.5q-93 0 -142 51t-51 143h133q3 -68 57 -68q51 0 51 63v354z" />
    </font>
</defs>
</svg>
